<svg width="106" height="15" viewBox="0 0 106 15" fill="none" xmlns="http://www.w3.org/2000/svg">
<path fill-rule="evenodd" clip-rule="evenodd" d="M0 0.0048158H11.9099L11.5304 3.82615L7.12773 3.22418V6.04984H11.3115L11.0471 8.72863H7.1252V14.9892H0V0.0048158ZM32.095 8.73826H34.8479L33.8093 5.39851L40.8219 6.10763L43.9101 14.3848L45.0208 6.53142L64.9011 8.54202L65.7866 14.5184L67.8374 8.83939L84.9976 10.5755L86.3968 14.3402L88.7108 10.9511L95.4159 11.6289L93.832 15H79.4095L78.629 12.4874H73.5242L72.7271 15H59.1498L58.2427 9.45341L56.5904 14.994H53.1012L51.449 9.44739L50.5419 14.994H36.7899L36.0093 12.4813H30.9096L30.11 14.994H13.4217V3.33614L20.7165 4.07416V10.6634H24.632L26.8207 4.69059L33.1805 5.33349L32.1001 8.73826H32.095ZM33.5904 4.68938L33.4854 4.35468L33.3855 4.67253L27.0282 4.10908L27.4318 3.00626L39.978 3.83217L40.5233 5.30219L33.5904 4.68697V4.68938ZM27.6215 2.48736L27.9745 1.5242L39.2493 1.89381L39.7098 3.12666L27.6215 2.49097V2.48736ZM28.1706 0.986034L28.5299 0.0048158H38.5459L38.9976 1.21478L28.1706 0.986034ZM13.4217 2.90152V2.08404L20.7165 2.56562V3.54924L13.4217 2.90272V2.90152ZM13.4217 1.73971V1.04382L20.7165 1.28461V2.12738L13.4217 1.74332V1.73971ZM13.4217 0.674211V0.0048158H20.7165V0.828317L13.4217 0.674211ZM45.136 5.71394L45.3523 4.18493L54.5219 4.7869L54.8686 6.05827L55.1748 4.83024L64.4431 5.43944L64.7391 7.45124L45.1296 5.71274L45.136 5.71394ZM45.4598 3.42644L45.6471 2.10209L53.8628 2.37178L54.274 3.89116L45.456 3.42644H45.4598ZM45.7521 1.35805L45.9431 0.0048158H53.2163L53.6313 1.5242L45.7521 1.35805ZM55.3936 3.95016L55.7732 2.43198L64.042 2.70287L64.2951 4.41849L55.3962 3.95016H55.3936ZM55.9844 1.56995L56.3754 0.0048158H63.6359L63.889 1.74091L55.9844 1.56995ZM68.222 7.75825L68.9495 5.73802L75.5281 6.17024L74.8348 8.34818L68.222 7.76186V7.75825ZM69.329 4.68336L69.978 2.89429L82.294 3.29762L83.0759 5.40332L76.3176 5.04816L76.1012 4.35107L75.8874 5.02528L69.329 4.68336ZM70.3411 1.87816L71.023 0.0048158H81.0681L81.8538 2.12136L70.3411 1.88057V1.87816ZM83.5516 6.69396L84.4827 9.19937L77.4119 8.57693L76.6882 6.24729L83.5566 6.69877L83.5516 6.69396ZM89.5888 9.65206L91.2663 7.20684L101.067 7.85095L103.145 10.8608L89.5938 9.65687L89.5888 9.65206ZM90.4339 5.78979L88.6285 3.50229L95.6728 3.73706L96.0422 4.47387L96.3774 3.76114L102.711 3.96822L100.875 6.34481L90.4389 5.79461L90.4339 5.78979ZM87.6291 2.23814L85.8668 0.0048158H93.7966L94.9997 2.39827L87.6341 2.24296L87.6291 2.23814ZM96.991 2.43679L98.1296 0H105.766L103.782 2.58488L96.9974 2.44161L96.991 2.43679ZM104.296 12.5259L106 14.994H98.3004L96.5672 11.7433L104.297 12.5235L104.296 12.5259Z" fill="#BE3D3D"/>
</svg>
