<svg width="106" height="40" viewBox="0 0 106 40" fill="none" xmlns="http://www.w3.org/2000/svg">
<path fill-rule="evenodd" clip-rule="evenodd" d="M0 0.0048158H11.9099L11.5304 3.82615L7.12773 3.22418V6.04984H11.3115L11.0471 8.72863H7.1252V14.9892H0V0.0048158ZM32.095 8.73826H34.8479L33.8093 5.39851L40.8219 6.10763L43.9101 14.3848L45.0208 6.53142L64.9011 8.54202L65.7866 14.5184L67.8374 8.83939L84.9976 10.5755L86.3968 14.3402L88.7108 10.9511L95.4159 11.6289L93.832 15H79.4095L78.629 12.4874H73.5242L72.7271 15H59.1498L58.2427 9.45341L56.5904 14.994H53.1012L51.449 9.44739L50.5419 14.994H36.7899L36.0093 12.4813H30.9096L30.11 14.994H13.4217V3.33614L20.7165 4.07416V10.6634H24.632L26.8207 4.69059L33.1805 5.33349L32.1001 8.73826H32.095ZM33.5904 4.68938L33.4854 4.35468L33.3855 4.67253L27.0282 4.10908L27.4318 3.00626L39.978 3.83217L40.5233 5.30219L33.5904 4.68697V4.68938ZM27.6215 2.48736L27.9745 1.5242L39.2493 1.89381L39.7098 3.12666L27.6215 2.49097V2.48736ZM28.1706 0.986034L28.5299 0.0048158H38.5459L38.9976 1.21478L28.1706 0.986034ZM13.4217 2.90152V2.08404L20.7165 2.56562V3.54924L13.4217 2.90272V2.90152ZM13.4217 1.73971V1.04382L20.7165 1.28461V2.12738L13.4217 1.74332V1.73971ZM13.4217 0.674211V0.0048158H20.7165V0.828317L13.4217 0.674211ZM45.136 5.71394L45.3523 4.18493L54.5219 4.7869L54.8686 6.05827L55.1748 4.83024L64.4431 5.43944L64.7391 7.45124L45.1296 5.71274L45.136 5.71394ZM45.4598 3.42644L45.6471 2.10209L53.8628 2.37178L54.274 3.89116L45.456 3.42644H45.4598ZM45.7521 1.35805L45.9431 0.0048158H53.2163L53.6313 1.5242L45.7521 1.35805ZM55.3936 3.95016L55.7732 2.43198L64.042 2.70287L64.2951 4.41849L55.3962 3.95016H55.3936ZM55.9844 1.56995L56.3754 0.0048158H63.6359L63.889 1.74091L55.9844 1.56995ZM68.222 7.75825L68.9495 5.73802L75.5281 6.17024L74.8348 8.34818L68.222 7.76186V7.75825ZM69.329 4.68336L69.978 2.89429L82.294 3.29762L83.0759 5.40332L76.3176 5.04816L76.1012 4.35107L75.8874 5.02528L69.329 4.68336ZM70.3411 1.87816L71.023 0.0048158H81.0681L81.8538 2.12136L70.3411 1.88057V1.87816ZM83.5516 6.69396L84.4827 9.19937L77.4119 8.57693L76.6882 6.24729L83.5566 6.69877L83.5516 6.69396ZM89.5888 9.65206L91.2663 7.20684L101.067 7.85095L103.145 10.8608L89.5938 9.65687L89.5888 9.65206ZM90.4339 5.78979L88.6285 3.50229L95.6728 3.73706L96.0422 4.47387L96.3774 3.76114L102.711 3.96822L100.875 6.34481L90.4389 5.79461L90.4339 5.78979ZM87.6291 2.23814L85.8668 0.0048158H93.7966L94.9997 2.39827L87.6341 2.24296L87.6291 2.23814ZM96.991 2.43679L98.1296 0H105.766L103.782 2.58488L96.9974 2.44161L96.991 2.43679ZM104.296 12.5259L106 14.994H98.3004L96.5672 11.7433L104.297 12.5235L104.296 12.5259Z" fill="#333333"/>
<path d="M10.5411 27.719H12.0481C12.3341 27.719 12.5614 27.8033 12.7301 27.972C12.8988 28.1407 12.9794 28.3643 12.9721 28.643C12.9648 28.8997 12.8768 29.1013 12.7081 29.248C12.5468 29.3947 12.3268 29.468 12.0481 29.468H10.5411V27.719Z" fill="#BE3D3D"/>
<path d="M10.5411 30.81H12.2901C12.5834 30.81 12.8034 30.8613 12.9501 30.964C13.1921 31.1327 13.3058 31.3857 13.2911 31.723C13.2764 31.987 13.1884 32.196 13.0271 32.35C12.8658 32.4967 12.6458 32.57 12.3671 32.57H10.5411V30.81Z" fill="#BE3D3D"/>
<path fill-rule="evenodd" clip-rule="evenodd" d="M10 20C4.47715 20 0 24.4772 0 30C0 35.5228 4.47715 40 10 40H60C65.5229 40 70 35.5228 70 30C70 24.4772 65.5229 20 60 20H10ZM23.6301 31.723H25.2031C25.2177 32.053 25.3754 32.3023 25.6761 32.471C25.9841 32.6397 26.3434 32.724 26.7541 32.724C27.7367 32.724 28.2281 32.4013 28.2281 31.756C28.2281 31.5873 28.1877 31.4407 28.1071 31.316C28.0337 31.1913 27.9494 31.0997 27.8541 31.041C27.7587 30.975 27.6231 30.92 27.4471 30.876C27.2711 30.832 27.1244 30.8027 27.0071 30.788C26.8971 30.7733 26.7431 30.7587 26.5451 30.744C24.6751 30.5827 23.7401 29.853 23.7401 28.555C23.7401 27.7557 24.0187 27.1543 24.5761 26.751C25.1334 26.3403 25.8301 26.135 26.6661 26.135C27.0474 26.135 27.4031 26.179 27.7331 26.267C28.0704 26.3477 28.3821 26.476 28.6681 26.652C28.9541 26.828 29.1814 27.0737 29.3501 27.389C29.5187 27.697 29.6031 28.0563 29.6031 28.467H28.0631C28.0191 28.1737 27.8651 27.9537 27.6011 27.807C27.3371 27.653 27.0254 27.576 26.6661 27.576C26.3141 27.576 26.0061 27.664 25.7421 27.84C25.4854 28.0087 25.3571 28.236 25.3571 28.522C25.3571 28.83 25.4817 29.05 25.7311 29.182C25.9877 29.3067 26.3544 29.3947 26.8311 29.446C27.2931 29.49 27.6817 29.5487 27.9971 29.622C28.3197 29.6953 28.6314 29.8127 28.9321 29.974C29.2401 30.1353 29.4711 30.3663 29.6251 30.667C29.7791 30.9603 29.8561 31.3233 29.8561 31.756C29.8561 32.1887 29.7681 32.5663 29.5921 32.889C29.4161 33.2117 29.1741 33.461 28.8661 33.637C28.5654 33.813 28.2391 33.9413 27.8871 34.022C27.5424 34.11 27.1684 34.1577 26.7651 34.165C25.9144 34.165 25.1774 33.956 24.5541 33.538C23.9381 33.1127 23.6301 32.5077 23.6301 31.723ZM19.2957 34.099C20.1537 34.099 20.8761 33.8643 21.4627 33.395C22.0494 32.9183 22.3427 32.2657 22.3427 31.437V26.3H20.7147V31.404C20.7147 31.8 20.5791 32.108 20.3077 32.328C20.0364 32.5407 19.6991 32.647 19.2957 32.647C18.8924 32.647 18.5514 32.5407 18.2727 32.328C18.0014 32.108 17.8657 31.8 17.8657 31.404V26.3H16.2157V31.437C16.2157 32.2657 16.5127 32.9183 17.1067 33.395C17.7081 33.8643 18.4377 34.099 19.2957 34.099ZM14.3801 29.402C14.5194 29.1453 14.5891 28.874 14.5891 28.588C14.5891 27.884 14.3654 27.3303 13.9181 26.927C13.4708 26.5163 12.8878 26.311 12.1691 26.311H8.9021V34H12.4771C13.2398 34 13.8374 33.7947 14.2701 33.384C14.7028 32.966 14.9191 32.4123 14.9191 31.723C14.9191 30.887 14.5524 30.315 13.8191 30.007C14.0611 29.8603 14.2481 29.6587 14.3801 29.402ZM34.6239 32.691H33.5349V27.576H34.5359V26.3H30.8839V27.576H31.8849V32.691H30.7959V34H34.6239V32.691ZM42.0101 34.022L37.6541 29.6V34H36.0151V26.267H36.5321L40.8551 30.667V26.3H42.5051V34.022H42.0101ZM49.0056 27.741V26.3H44.2866V34H49.0936V32.504H45.9476V30.744H48.8076V29.303H45.9476V27.741H49.0056ZM50.1525 31.723H51.7255C51.7402 32.053 51.8979 32.3023 52.1985 32.471C52.5065 32.6397 52.8659 32.724 53.2765 32.724C54.2592 32.724 54.7505 32.4013 54.7505 31.756C54.7505 31.5873 54.7102 31.4407 54.6295 31.316C54.5562 31.1913 54.4719 31.0997 54.3765 31.041C54.2812 30.975 54.1455 30.92 53.9695 30.876C53.7935 30.832 53.6469 30.8027 53.5295 30.788C53.4195 30.7733 53.2655 30.7587 53.0675 30.744C51.1975 30.5827 50.2625 29.853 50.2625 28.555C50.2625 27.7557 50.5412 27.1543 51.0985 26.751C51.6559 26.3403 52.3525 26.135 53.1885 26.135C53.5699 26.135 53.9255 26.179 54.2555 26.267C54.5929 26.3477 54.9045 26.476 55.1905 26.652C55.4765 26.828 55.7039 27.0737 55.8725 27.389C56.0412 27.697 56.1255 28.0563 56.1255 28.467H54.5855C54.5415 28.1737 54.3875 27.9537 54.1235 27.807C53.8595 27.653 53.5479 27.576 53.1885 27.576C52.8365 27.576 52.5285 27.664 52.2645 27.84C52.0079 28.0087 51.8795 28.236 51.8795 28.522C51.8795 28.83 52.0042 29.05 52.2535 29.182C52.5102 29.3067 52.8769 29.3947 53.3535 29.446C53.8155 29.49 54.2042 29.5487 54.5195 29.622C54.8422 29.6953 55.1539 29.8127 55.4545 29.974C55.7625 30.1353 55.9935 30.3663 56.1475 30.667C56.3015 30.9603 56.3785 31.3233 56.3785 31.756C56.3785 32.1887 56.2905 32.5663 56.1145 32.889C55.9385 33.2117 55.6965 33.461 55.3885 33.637C55.0879 33.813 54.7615 33.9413 54.4095 34.022C54.0649 34.11 53.6909 34.1577 53.2875 34.165C52.4369 34.165 51.6999 33.956 51.0765 33.538C50.4605 33.1127 50.1525 32.5077 50.1525 31.723ZM58.8583 31.723H57.2853C57.2853 32.5077 57.5933 33.1127 58.2093 33.538C58.8327 33.956 59.5697 34.165 60.4203 34.165C60.8237 34.1577 61.1977 34.11 61.5423 34.022C61.8943 33.9413 62.2207 33.813 62.5213 33.637C62.8293 33.461 63.0713 33.2117 63.2473 32.889C63.4233 32.5663 63.5113 32.1887 63.5113 31.756C63.5113 31.3233 63.4343 30.9603 63.2803 30.667C63.1263 30.3663 62.8953 30.1353 62.5873 29.974C62.2867 29.8127 61.975 29.6953 61.6523 29.622C61.337 29.5487 60.9483 29.49 60.4863 29.446C60.0097 29.3947 59.643 29.3067 59.3863 29.182C59.137 29.05 59.0123 28.83 59.0123 28.522C59.0123 28.236 59.1407 28.0087 59.3973 27.84C59.6613 27.664 59.9693 27.576 60.3213 27.576C60.6807 27.576 60.9923 27.653 61.2563 27.807C61.5203 27.9537 61.6743 28.1737 61.7183 28.467H63.2583C63.2583 28.0563 63.174 27.697 63.0053 27.389C62.8367 27.0737 62.6093 26.828 62.3233 26.652C62.0373 26.476 61.7257 26.3477 61.3883 26.267C61.0583 26.179 60.7027 26.135 60.3213 26.135C59.4853 26.135 58.7887 26.3403 58.2313 26.751C57.674 27.1543 57.3953 27.7557 57.3953 28.555C57.3953 29.853 58.3303 30.5827 60.2003 30.744C60.3983 30.7587 60.5523 30.7733 60.6623 30.788C60.7797 30.8027 60.9263 30.832 61.1023 30.876C61.2783 30.92 61.414 30.975 61.5093 31.041C61.6047 31.0997 61.689 31.1913 61.7623 31.316C61.843 31.4407 61.8833 31.5873 61.8833 31.756C61.8833 32.4013 61.392 32.724 60.4093 32.724C59.9987 32.724 59.6393 32.6397 59.3313 32.471C59.0307 32.3023 58.873 32.053 58.8583 31.723Z" fill="#BE3D3D"/>
</svg>
