<svg width="65" height="18" viewBox="0 0 65 18" fill="none" xmlns="http://www.w3.org/2000/svg">
<path fill-rule="evenodd" clip-rule="evenodd" d="M34.9381 4.63666C35.0943 4.80646 36.5003 8.85172 36.6473 9.35114C36.7937 9.88621 37.0005 10.3995 37.263 10.8793C37.75 10.9992 37.796 10.4698 37.943 10.0503C38.7425 7.78297 39.9555 4.47685 40.5619 2.24945C40.9847 1.17072 41.0214 0.881057 40.2587 0.881057C39.496 0.881057 39.5787 1.42043 39.2754 2.11961C39.009 3.44805 37.9797 6.25476 37.603 7.54325C37.603 7.71305 37.603 7.71305 37.41 7.71305C36.7759 5.7953 36.0408 3.44805 35.324 1.55027C35.131 1.18071 34.791 1.1008 34.5613 1.92983C34.1753 3.24828 33.6424 4.81645 33.2288 6.09495C33.2288 6.09495 32.7326 7.71305 32.6959 7.79296C32.4331 7.33368 32.2406 6.83105 32.1261 6.3047C31.5564 4.77649 31.0602 3.12842 30.5731 1.60021C30.4537 1.31055 30.4537 1.14075 30.1872 0.970952C29.92 0.86336 29.6312 0.835762 29.3509 0.891045C28.5974 1.02089 29.0844 1.68012 29.2407 2.16955C30.1596 4.8564 31.1796 8.08262 32.1996 10.6396C32.2235 10.703 32.2623 10.7584 32.3122 10.8002C32.362 10.8421 32.4211 10.8689 32.4836 10.8781C32.546 10.8872 32.6095 10.8782 32.6678 10.8522C32.726 10.8261 32.7769 10.7838 32.8153 10.7295C32.9623 10.4199 34.8278 4.63666 34.9381 4.63666Z" fill="#2A2626"/>
<path fill-rule="evenodd" clip-rule="evenodd" d="M0.167099 1.04761C0.129114 1.214 0.142017 1.38932 0.203857 1.54703C0.360076 2.24621 -0.0993921 10.2169 0.0200697 10.5365C0.392032 10.7183 0.809065 10.7605 1.2055 10.6564C1.38928 10.4466 1.31577 10.2468 1.31577 9.91722C1.31577 8.50887 1.42604 7.15046 1.42604 5.70216C1.47199 5.16279 1.50875 4.79322 1.50875 4.46361C1.50875 4.134 1.50875 4.17395 1.58226 4.09404C1.65578 4.01414 2.85958 6.29147 2.97904 6.54118C3.20878 7.0306 3.65906 7.77973 3.96231 8.35905C4.42177 9.26798 4.65151 8.64871 4.76178 8.43895C5.02827 8.06939 7.08669 4.14399 7.23372 4.06408C7.37156 4.22389 7.37156 8.14929 7.37156 8.43895C7.37156 10.5864 7.14183 10.7962 8.39158 10.7063C8.77753 10.7063 8.81429 10.3767 8.77753 10.0071C8.77753 9.30794 8.77753 8.51886 8.77753 7.81968C8.67645 6.04176 8.60294 4.01414 8.60294 2.24621C8.60294 2.03645 8.67645 1.24738 8.67645 1.12752C8.56395 0.989725 8.41156 0.897789 8.24446 0.866913C8.07737 0.836038 7.90558 0.868072 7.75751 0.957718C7.49102 1.12752 7.41751 1.49709 7.22453 1.74679C6.45262 3.23505 5.41423 4.92307 4.68827 6.33142C4.42177 6.83084 4.42177 6.66104 4.19204 6.33142C3.69582 5.54235 3.05256 4.18394 2.60228 3.39486L1.68334 1.74679C1.55561 1.46039 1.39168 1.1948 1.19631 0.957718C0.939006 0.757952 0.433591 0.917765 0.167099 1.04761Z" fill="#2A2626"/>
<path fill-rule="evenodd" clip-rule="evenodd" d="M48.658 5.67443C48.9832 5.38598 49.369 5.18943 49.7811 5.10229C50.1931 5.01516 50.6186 5.04014 51.0196 5.17501C52.2326 5.75434 52.3888 7.70205 51.8559 8.65094C51.6289 9.02075 51.3019 9.30486 50.92 9.46409C50.5381 9.62332 50.1202 9.64981 49.7239 9.5399C49.34 9.45755 48.9766 9.2873 48.658 9.04049V5.67443ZM48.658 4.26608C48.6007 3.17825 48.6007 2.08774 48.658 0.999906C48.658 0.550432 48.5109 0.470526 48.125 0.630339C47.206 1.04985 47.206 0.880046 47.3347 1.78898C47.4082 2.24844 47.3347 7.57221 47.3347 8.32133C47.3347 9.7996 47.1417 10.1392 49.1174 10.7585C49.68 10.8867 50.2606 10.89 50.8244 10.7681C51.3881 10.6463 51.9234 10.4018 52.398 10.0493C54.337 8.32133 53.804 3.44704 50.2661 3.81661C49.9577 3.83475 49.6507 3.87479 49.3472 3.93647C49.2277 3.97642 48.7774 4.26608 48.7223 4.26608H48.658Z" fill="#2A2626"/>
<path fill-rule="evenodd" clip-rule="evenodd" d="M21.8611 10.6282C22.0048 10.1074 22.0455 9.55932 21.9805 9.02012C21.9429 8.45485 21.9429 7.88737 21.9805 7.32211C22.0908 7.32211 22.2103 7.53186 22.44 7.78157C22.6697 8.03128 24.5627 10.1788 24.866 10.4185C24.9718 10.5255 25.0993 10.6039 25.2382 10.6473C25.3772 10.6907 25.5235 10.6978 25.6655 10.6682C25.932 10.6682 26.3547 10.6682 26.5017 10.4684C26.5017 10.1788 25.9687 9.7193 25.739 9.46959C25.5092 9.21989 25.2152 8.90026 24.9487 8.56066C24.3642 8.00154 23.8175 7.39734 23.313 6.75278C23.313 6.66288 25.399 4.75512 25.7849 4.39554C25.932 4.22574 26.0882 4.18578 26.0514 3.93608C25.5784 3.77748 25.0725 3.77748 24.5995 3.93608C24.4157 4.02597 23.1568 5.26452 22.8168 5.59413C22.7065 5.71399 22.054 6.46312 21.9805 6.42316C21.8703 6.04361 21.9805 0.879655 21.907 0.589995C21.8335 0.300334 20.5378 0.759796 20.5746 1.25921C20.6466 1.61011 20.6836 1.96843 20.6848 2.32796V9.46959C20.6848 9.7193 20.6113 10.4684 20.7675 10.5883C21.1251 10.6876 21.4982 10.7012 21.8611 10.6282Z" fill="#2A2626"/>
<path fill-rule="evenodd" clip-rule="evenodd" d="M11.9637 7.24207C12.3864 7.12221 13.8016 7.49178 13.8659 7.9013C13.9026 8.34321 13.9026 8.78783 13.8659 9.22974C13.5994 9.59931 11.7707 10.3384 11.1642 9.01999C11.0825 8.83269 11.0401 8.62799 11.0401 8.42069C11.0401 8.21339 11.0825 8.00869 11.1642 7.82139C11.2525 7.66911 11.3693 7.53879 11.5071 7.43896C11.6448 7.33912 11.8004 7.27203 11.9637 7.24207ZM13.9027 6.74266C13.5456 6.48553 13.1462 6.30578 12.7264 6.21328C12.2033 6.15032 11.674 6.19093 11.1642 6.33314C10.735 6.46676 10.3565 6.74657 10.0845 7.13141C9.81244 7.51625 9.66119 7.98582 9.65296 8.47106C9.64473 8.95629 9.77996 9.4316 10.0388 9.82707C10.2976 10.2226 10.6663 10.5173 11.0907 10.6681C11.8176 10.9375 12.6061 10.9375 13.3329 10.6681C13.4891 10.5882 13.7924 10.3784 13.9027 10.3384C14.0129 10.2985 14.0589 10.6281 14.2059 10.708C14.3529 10.7879 15.0421 10.708 15.2351 10.5082C15.4281 10.3085 15.4649 10.3384 15.3454 10.0488C15.1676 9.66659 15.1034 9.23381 15.1616 8.81024V5.83372C15.2097 5.41227 15.115 4.9862 14.8951 4.63513C14.1692 3.06696 9.79502 3.68624 10.1442 5.01468C10.4934 6.34313 11.0632 4.55522 12.9929 4.80493C14.0313 4.92479 13.921 6.00352 13.921 6.74266H13.9027Z" fill="#2A2626"/>
<path fill-rule="evenodd" clip-rule="evenodd" d="M58.886 6.54355H55.7341C55.7763 6.13343 55.9485 5.75205 56.2211 5.46481C56.5187 5.18117 56.8926 5.00952 57.2871 4.97539C57.4926 4.95693 57.6994 4.98369 57.8952 5.05405C58.091 5.12441 58.2717 5.23694 58.4266 5.38491C58.5825 5.52433 58.7055 5.70221 58.7854 5.90373C58.8654 6.10526 58.8998 6.32461 58.886 6.54355ZM55.6514 7.6123C55.8811 7.49244 59.3271 7.6123 59.952 7.6123C60.5769 7.6123 60.292 5.38491 59.1525 4.47597C58.687 4.09874 58.1328 3.8723 57.554 3.82281C56.9751 3.77331 56.3951 3.90278 55.8811 4.19625C55.367 4.48973 54.9398 4.93525 54.6488 5.48138C54.3577 6.02751 54.2147 6.65198 54.2362 7.28268C54.2144 7.89526 54.3455 8.50283 54.6157 9.04094C54.8859 9.57905 55.2851 10.0276 55.7708 10.3391C56.7909 11.0882 59.5293 11.0483 59.8693 9.88963C60.292 8.40137 59.2996 9.2304 58.9504 9.39021C58.6567 9.52106 58.3472 9.60517 58.0314 9.63992C56.0006 9.88963 55.5044 7.94191 55.6514 7.6123Z" fill="#2A2626"/>
<path fill-rule="evenodd" clip-rule="evenodd" d="M41.8591 6.54369C41.8913 6.11708 42.0698 5.71918 42.3591 5.42876C42.6484 5.13835 43.0275 4.97659 43.4213 4.97553C44.2116 4.88563 45.1305 5.63476 44.9743 6.54369H41.8591ZM41.7029 7.54252C41.8959 7.54252 45.4705 7.54252 45.9668 7.54252C46.463 7.54252 46.3803 7.21291 46.3435 6.80339C46.3167 6.24879 46.1577 5.71128 45.8823 5.24352C45.6069 4.77575 45.2244 4.39377 44.7723 4.13498C44.3202 3.8762 43.8141 3.74949 43.3034 3.76727C42.7927 3.78505 42.295 3.9467 41.8591 4.23639C41.3689 4.55115 40.9681 5.00669 40.7006 5.55294C40.4331 6.0992 40.3093 6.71503 40.3429 7.33277C40.3039 7.94256 40.4302 8.55141 40.7062 9.08399C40.9822 9.61656 41.3958 10.0495 41.8959 10.3293C43.1916 11.1982 45.737 10.8287 45.9668 9.83983C45.9668 9.55017 46.1505 8.841 45.737 9.0108C45.2375 9.31774 44.6938 9.5305 44.1289 9.64006C43.8277 9.6838 43.5216 9.66217 43.2282 9.57645C42.9349 9.49072 42.66 9.3426 42.4197 9.14065C42.0888 8.85099 41.5559 7.98201 41.7029 7.54252Z" fill="#2A2626"/>
<path fill-rule="evenodd" clip-rule="evenodd" d="M62.3421 10.6684C62.5719 10.4187 62.5351 10.2988 62.5351 9.92925V8.93042C62.5351 7.61196 62.3054 5.42452 63.7113 5.09491C64.0146 5.015 64.0881 5.29467 64.4741 5.21477C64.7017 4.99282 64.8726 4.71067 64.9703 4.39573C64.9703 3.76646 64.0514 3.64661 63.2151 4.05613C62.9486 4.18597 62.7281 4.63545 62.5351 4.6754C62.5351 4.30583 62.6086 4.14602 62.3789 3.81641C62.0843 3.84711 61.7992 3.94586 61.5427 4.10607C61.1659 4.30583 61.0924 4.30583 61.1659 4.80525C61.2394 5.30466 61.1659 8.73065 61.1659 9.54969C61.2027 10.7982 61.2027 10.7583 62.3421 10.6684Z" fill="#2A2626"/>
<path fill-rule="evenodd" clip-rule="evenodd" d="M17.5339 10.6267V10.5468C17.6406 9.53234 17.6683 8.5099 17.6166 7.49038C17.6166 6.7013 17.8004 5.4228 18.5999 5.1731C19.2431 4.92339 19.2799 5.58262 19.7026 5.1731C20.6859 4.05441 19.3626 3.60493 18.5631 3.9745C17.7637 4.34407 17.8739 4.63373 17.6442 4.71363C17.6257 4.55111 17.6257 4.38673 17.6442 4.22421C17.6442 4.01445 17.5615 4.01445 17.488 3.89459C17.1933 3.89199 16.9038 3.97844 16.6517 4.1443C16.275 4.30411 16.1555 4.34407 16.275 4.84348C16.3558 5.60924 16.3804 6.38078 16.3485 7.15078V9.42811C16.4312 10.6667 16.275 10.7566 17.5339 10.6267Z" fill="#2A2626"/>
<path fill-rule="evenodd" clip-rule="evenodd" d="M34.674 11.9573C33.157 12.1607 31.6654 12.546 30.2264 13.106C29.7761 13.3157 29.3074 13.4356 28.8572 13.6454C27.9382 14.0149 27.0744 14.3445 26.1647 14.7241C25.8614 14.8439 23.6927 15.5431 23.316 15.633C21.4781 16.1225 18.7213 16.7018 16.9661 15.8328C16.1299 15.3833 16.0472 16.7817 17.9494 17.2811C19.0618 17.4928 20.2033 17.4383 21.2943 17.1213C22.2132 16.9115 23.316 16.542 24.189 16.2523C25.0619 15.9626 26.0912 15.633 27.0377 15.3434C27.2674 15.2535 27.4512 15.1736 27.7177 15.0937L29.1236 14.6342C29.3901 14.5543 29.5831 14.4344 29.8128 14.3445L31.2648 13.975C31.5313 13.8951 31.7242 13.8152 31.954 13.7253C33.8779 13.2791 35.8403 13.0581 37.8076 13.066C38.2946 13.066 39.0206 13.1959 39.5168 13.2758C40.4357 13.3956 40.2336 12.8663 39.6271 12.5267C38.0501 11.8699 36.3424 11.6736 34.674 11.9573Z" fill="#F9CC46"/>
</svg>
