<svg width="20" height="20" viewBox="0 0 20 20" fill="none" xmlns="http://www.w3.org/2000/svg">
<path d="M8.51275 7.62178C8.11979 7.75277 7.90742 8.17751 8.03841 8.57046C8.16939 8.96342 8.59413 9.17579 8.98709 9.04481L8.51275 7.62178ZM8.94583 8.26799L8.70865 7.55648L8.94583 8.26799ZM11.054 8.26799L10.8168 8.9795H10.8168L11.054 8.26799ZM11.0127 9.04481C11.4057 9.17579 11.8304 8.96342 11.9614 8.57046C12.0924 8.17751 11.88 7.75277 11.4871 7.62178L11.0127 9.04481ZM17.4166 8.33329C17.4166 7.91908 17.0808 7.58329 16.6666 7.58329C16.2524 7.58329 15.9166 7.91908 15.9166 8.33329H17.4166ZM4.08325 8.33329C4.08325 7.91908 3.74747 7.58329 3.33325 7.58329C2.91904 7.58329 2.58325 7.91908 2.58325 8.33329H4.08325ZM8.15135 17.6057C7.7495 17.7061 7.50518 18.1133 7.60565 18.5152C7.70611 18.917 8.11331 19.1614 8.51515 19.0609L8.15135 17.6057ZM8.98935 18.1693L8.80745 17.4417L8.98935 18.1693ZM11.0105 18.1693L11.1924 17.4417L11.0105 18.1693ZM11.4847 19.0609C11.8865 19.1614 12.2937 18.917 12.3942 18.5152C12.4947 18.1133 12.2503 17.7061 11.8485 17.6057L11.4847 19.0609ZM12.5833 4.99996V8.33329H14.0833V4.99996H12.5833ZM7.41658 8.33329V4.99996H5.91659V8.33329H7.41658ZM9.99992 10.9166C8.57318 10.9166 7.41658 9.76003 7.41658 8.33329H5.91659C5.91659 10.5885 7.74476 12.4166 9.99992 12.4166V10.9166ZM12.5833 8.33329C12.5833 9.76003 11.4267 10.9166 9.99992 10.9166V12.4166C12.2551 12.4166 14.0833 10.5885 14.0833 8.33329H12.5833ZM9.99992 2.41663C11.4267 2.41663 12.5833 3.57322 12.5833 4.99996H14.0833C14.0833 2.7448 12.2551 0.916626 9.99992 0.916626V2.41663ZM9.99992 0.916626C7.74476 0.916626 5.91659 2.7448 5.91659 4.99996H7.41658C7.41658 3.57322 8.57318 2.41663 9.99992 2.41663V0.916626ZM8.98709 9.04481L9.183 8.9795L8.70865 7.55648L8.51275 7.62178L8.98709 9.04481ZM10.8168 8.9795L11.0127 9.04481L11.4871 7.62178L11.2912 7.55648L10.8168 8.9795ZM9.183 8.9795C9.71327 8.80274 10.2866 8.80274 10.8168 8.9795L11.2912 7.55648C10.453 7.27709 9.54683 7.27709 8.70865 7.55648L9.183 8.9795ZM15.9166 8.33329C15.9166 11.601 13.2676 14.25 9.99992 14.25V15.75C14.096 15.75 17.4166 12.4294 17.4166 8.33329H15.9166ZM9.99992 14.25C6.73223 14.25 4.08325 11.601 4.08325 8.33329H2.58325C2.58325 12.4294 5.90381 15.75 9.99992 15.75V14.25ZM9.24992 15.8333V17.5H10.7499V15.8333H9.24992ZM8.51515 19.0609L9.17126 18.8969L8.80745 17.4417L8.15135 17.6057L8.51515 19.0609ZM10.8286 18.8969L11.4847 19.0609L11.8485 17.6057L11.1924 17.4417L10.8286 18.8969ZM10.7499 15.8333V15H9.24992V15.8333H10.7499ZM9.17126 18.8969C9.44329 18.8289 9.7216 18.7949 9.99992 18.7949V17.2949C9.59942 17.2949 9.19892 17.3438 8.80745 17.4417L9.17126 18.8969ZM9.99992 18.7949C10.2782 18.7949 10.5565 18.8289 10.8286 18.8969L11.1924 17.4417C10.8009 17.3438 10.4004 17.2949 9.99992 17.2949V18.7949ZM9.24992 17.5V18.0449H10.7499V17.5H9.24992Z" fill="#BE3D3D"/>
</svg>
