<svg width="159" height="28" viewBox="0 0 159 28" fill="none" xmlns="http://www.w3.org/2000/svg">
<g clip-path="url(#clip0_67_780)">
<path d="M46.9907 5.35464H53.6201V26.9453H58.3894V5.35464H65.0547V0.658645H46.9907V5.35464Z" fill="#333333"/>
<path d="M135.189 16.9706C136.217 15.9826 136.345 14.648 136.345 13.6933C136.345 11.6666 135.451 8.26531 129.469 8.26531H121.938V26.9453H130.374C134.838 26.9453 137.503 24.8346 137.503 21.3013C137.503 19.3573 136.686 17.836 135.189 16.9706ZM126.491 12.3106H129.686C131.085 12.3106 131.793 12.8866 131.793 14.02C131.793 15.0933 131.081 15.656 129.686 15.692H126.491V12.3106ZM130.515 22.9013H126.491V19.1573H130.518C132.701 19.1573 132.953 20.236 132.953 21.048C132.953 22.2613 132.155 22.868 130.515 22.9013Z" fill="#333333"/>
<path d="M153.456 8.26566V9.32833C152.154 8.44166 150.588 7.97633 148.885 7.97633C143.416 7.97633 139.292 12.1163 139.292 17.6057C139.292 23.095 143.416 27.2363 148.885 27.2363C150.608 27.2363 152.177 26.7817 153.456 25.9177V26.9457H158.008V8.26566H153.456ZM153.456 20.599C152.497 21.999 150.768 22.8643 148.921 22.8643C146.041 22.8643 143.952 20.6523 143.952 17.6057C143.952 14.5577 146.041 12.347 148.921 12.347C150.768 12.347 152.497 13.2123 153.456 14.6123V20.599Z" fill="#333333"/>
<path d="M13.468 4.89753C15.832 4.89753 18.0853 5.85887 19.652 7.5322L19.8613 7.7562H19.8667L22.3893 3.7842C22.264 3.6682 22.1453 3.5442 22.016 3.43353C20.2413 1.86953 18.0853 0.882868 15.6653 0.512201C15.5053 0.488201 15.3453 0.4642 15.1827 0.4442C15.0013 0.422867 14.8187 0.402868 14.6347 0.386868C14.2507 0.357535 13.8627 0.333533 13.468 0.333533C13.44 0.333533 13.4133 0.336201 13.3867 0.336201C5.876 0.378868 0.00133333 6.2762 0 13.8002V13.8015C0 21.3255 5.87467 27.2255 13.3867 27.2669C13.4133 27.2669 13.44 27.2695 13.468 27.2695C13.856 27.2695 14.2347 27.2469 14.6093 27.2175C14.7973 27.2029 14.984 27.1842 15.1693 27.1602C15.3533 27.1402 15.536 27.1122 15.7173 27.0842C18.1227 26.7069 20.2667 25.7175 22.0307 24.1562C22.1267 24.0749 22.216 23.9855 22.3093 23.9015L19.8773 19.8482H19.8613L19.652 20.0722C18.0853 21.7455 15.832 22.7055 13.468 22.7055C8.55733 22.7055 4.85467 18.8775 4.85467 13.8015C4.85467 8.72553 8.55733 4.89753 13.468 4.89753Z" fill="#333333"/>
<path d="M118.306 8.27889H112.654L106.807 14.6709V8.27889H102.278V26.9629H106.808L106.782 21.0162L107.799 19.8909L114.635 26.9629H120.636L110.743 16.6376L118.306 8.27889Z" fill="#333333"/>
<path d="M73.7498 26.9434H78.8684L81.5484 21.2247H86.4738H87.8938L85.8204 16.822H85.1498H83.6218L86.7578 10.1714L89.0418 15.0274L91.8898 21.086L94.6444 26.9434H99.7698L86.7604 0.0246954L73.7498 26.9434Z" fill="#333333"/>
<path d="M31.8535 9.27331L23.3135 26.9453H28.4721L34.2761 14.5546L33.0961 11.9413L31.8535 9.27331Z" fill="#333333"/>
<path d="M33.9194 4.99865L37.9181 13.4866L37.9061 13.496L44.2341 26.9453H49.3581L36.3354 -1.8739e-05L33.9194 4.99865Z" fill="#333333"/>
</g>
<defs>
<clipPath id="clip0_67_780">
<rect width="158.008" height="27.2692" fill="white"/>
</clipPath>
</defs>
</svg>
