<svg width="227" height="50" viewBox="0 0 227 50" fill="none" xmlns="http://www.w3.org/2000/svg">
<g clip-path="url(#clip0_67_942)">
<path d="M11.1415 12.3776L4.63474 22.4293H1.49756L9.08876 10.8014L1.83322 0.723857H4.90585L11.1286 9.58691V0.710938H13.8913V9.57399L20.0882 0.710938H23.1867L15.9053 10.7885L23.4965 22.4164H20.3981L13.8913 12.3647V22.4164H11.1415V12.3776Z" fill="#333333"/>
<path d="M24.4003 25.865C24.7747 26.1105 25.2653 26.2655 25.6655 26.2655C26.8145 26.2655 27.0856 24.7797 27.3438 23.604L27.5891 22.4283L22.4121 6.66602H25.3815L28.9447 18.7849L31.8882 6.66602H34.4961L29.758 24.2758C29.1641 26.4464 28.6477 28.281 26.0399 28.281C25.3298 28.281 24.7747 28.1906 24.4003 28.1001V25.865Z" fill="#333333"/>
<path d="M38.1238 6.66703V8.28202H38.1883C38.7435 7.01587 40.0474 6.04688 41.8806 6.04688C45.0049 6.04688 47.5482 8.68253 47.5482 14.5482C47.5482 19.6903 45.5084 23.0495 41.9065 23.0495C40.3314 23.0495 38.8984 22.2484 38.2529 21.0986V28.1657H35.645V6.66703H38.1238ZM41.5321 21.1115C43.3266 21.1115 44.8113 19.5869 44.8113 14.5352C44.8113 8.92801 42.6423 7.95902 41.403 7.95902C39.8537 7.95902 38.1238 9.35437 38.1238 14.5998C38.1238 20.5947 40.7316 21.1115 41.5321 21.1115Z" fill="#333333"/>
<path d="M52.1572 22.4154H49.5493V6.66602H52.1572V13.1518H57.5536V6.66602H60.1615V22.4154H57.5536V15.0639H52.1572V22.4154Z" fill="#333333"/>
<path d="M62.3819 11.3182C62.3819 10.1683 62.6272 6.04688 67.7396 6.04688C71.2383 6.04688 72.7617 7.8815 72.7617 11.344V18.9409C72.7617 20.3363 72.8908 20.4913 73.5105 20.4913C73.6396 20.4913 73.7945 20.4913 73.9107 20.4526V22.4035C73.6267 22.4681 73.1103 22.5327 72.6971 22.5327C71.9225 22.5327 70.9026 22.3776 70.554 21.0727C69.4438 22.5327 67.9462 23.0236 66.4615 23.0236C62.9241 23.0236 61.9688 20.6076 61.9688 18.282C61.9688 14.2768 65.0026 13.6955 67.4169 13.3854C70.0764 13.0107 70.1409 13.0753 70.1409 11.2794C70.1409 8.3337 68.8757 7.95902 67.7267 7.95902C65.0672 7.95902 64.8735 10.2588 64.9123 11.3053H62.3819V11.3182ZM70.1667 14.7549C66.8488 15.6593 64.6799 14.7807 64.6799 18.3595C64.6799 19.3544 64.809 21.1244 66.7843 21.1244C69.4825 21.1244 70.1667 18.9797 70.1667 15.7239V14.7549Z" fill="#333333"/>
<path d="M74.1304 20.3999C77.0481 21.1105 77.0093 16.8986 77.0093 12.5833V6.66602H85.8399V22.4154H83.2708V8.59108H79.4881V12.5962C79.4881 18.5136 79.0492 23.5394 74.1304 22.3895V20.3999Z" fill="#333333"/>
<path d="M99.0341 8.08786H96.1809V4.56072C96.1809 2.94574 96.4908 0.400517 99.0341 0V1.73127C98.5047 1.91214 97.8592 2.35142 97.8592 4.5478V4.677H99.0341V8.08786ZM102.946 8.08786H100.054V4.56072C100.054 3.01034 100.338 0.374677 102.933 0V1.73127C101.913 2.10594 101.758 3.10078 101.758 4.5478V4.677H102.933V8.08786H102.946Z" fill="#333333"/>
<path d="M117.508 0.710938H120.232V22.4164H117.47V5.86598L109.168 22.4293H106.47V0.710938H109.233V17.145L117.508 0.710938Z" fill="#333333"/>
<path d="M138.049 15.2324C137.739 18.3073 136.37 23.0748 130.793 23.0748C124.816 23.0748 122.711 17.5192 122.711 11.9378C122.711 9.23758 122.957 0.0644531 130.742 0.0644531C133.685 0.0644531 137.429 1.30476 137.842 7.41587H135.118C134.937 5.40037 134.098 2.51923 130.754 2.51923C125.732 2.51923 125.616 9.93525 125.616 11.8216C125.616 17.9973 128.185 20.6329 130.909 20.6329C133.543 20.6329 135.183 18.0619 135.338 15.2324H138.049Z" fill="#333333"/>
<path d="M149.358 0.710938H152.211L146.608 18.5404C145.395 22.4164 143.846 22.7264 142.18 22.7264C141.341 22.7264 140.812 22.6618 140.037 22.3259V19.6903C140.837 20.1554 141.586 20.22 141.87 20.22C142.8 20.22 143.549 19.8453 144.22 17.0288L137.958 0.723857H141.147L145.64 13.3078L149.358 0.710938Z" fill="#333333"/>
<path d="M155.929 22.4164H153.167V0.710938H166.49V22.4164H163.727V3.16572H155.916V22.4164H155.929Z" fill="#333333"/>
<path d="M172.867 0.710938V5.14246C172.867 6.78329 172.002 8.52747 170.014 8.77295V7.13213C170.789 6.79621 171.189 6.02101 171.189 5.09078V4.09595H170.014V0.710938H172.867ZM176.779 0.710938V5.14246C176.779 6.62825 175.979 8.52747 173.9 8.77295V7.13213C174.985 6.64117 175.075 5.67218 175.075 5.09078V4.09595H173.9V0.710938H176.779Z" fill="#333333"/>
<path d="M227 27.0801H24V28.9793H227V27.0801Z" fill="#333333"/>
<path d="M4.0538 35.8906C4.77677 35.8906 8.12051 36.0327 8.12051 41.64C8.12051 47.286 4.63476 47.3893 4.0538 47.3893C3.40829 47.3893 0 47.286 0 41.64C0 38.565 1.17483 35.8906 4.0538 35.8906ZM4.0538 46.1749C5.13826 46.1749 6.68748 45.5289 6.68748 41.6529C6.68748 39.7408 6.19689 37.1309 4.0538 37.1309C1.93653 37.1309 1.43303 39.7666 1.43303 41.6529C1.44594 43.3842 1.84616 46.1749 4.0538 46.1749Z" fill="#333333"/>
<path d="M8.44336 40.1533V39.1973H13.8915V40.1533H11.8129V47.0655H10.5219V40.1533H8.44336Z" fill="#333333"/>
<path d="M15.8668 39.1987V39.9998H15.8926C16.1767 39.3667 16.8222 38.8887 17.7388 38.8887C19.3009 38.8887 20.5661 40.2065 20.5661 43.1393C20.5661 45.7104 19.5462 47.39 17.7517 47.39C16.9642 47.39 16.2541 46.9894 15.9314 46.421V49.9481H14.6274V39.2117H15.8668V39.1987ZM17.571 46.421C18.4747 46.421 19.2106 45.6587 19.2106 43.1393C19.2106 40.3357 18.1261 39.8577 17.5064 39.8577C16.7318 39.8577 15.8668 40.5553 15.8668 43.1781C15.8668 46.1497 17.1578 46.421 17.571 46.421Z" fill="#333333"/>
<path d="M21.2371 41.5243C21.2371 40.9559 21.3662 38.8887 23.9224 38.8887C25.6653 38.8887 26.427 39.806 26.427 41.5373V45.3357C26.427 46.0334 26.4916 46.1109 26.8014 46.1109C26.866 46.1109 26.9434 46.1109 27.008 46.098V47.0799C26.866 47.1057 26.6078 47.1445 26.4012 47.1445C26.0139 47.1445 25.4975 47.067 25.3296 46.421C24.7745 47.1445 24.0257 47.39 23.2898 47.39C21.5211 47.39 21.0435 46.1755 21.0435 45.0256C21.0435 43.023 22.5669 42.7259 23.7675 42.5838C25.0973 42.4029 25.136 42.4287 25.136 41.5243C25.136 40.0515 24.5034 39.8706 23.9224 39.8706C22.5927 39.8706 22.5023 41.0205 22.5152 41.5502H21.2371V41.5243ZM25.1231 43.2427C23.4706 43.6949 22.3861 43.2556 22.3861 45.0385C22.3861 45.5295 22.4507 46.421 23.4448 46.421C24.7874 46.421 25.136 45.3486 25.136 43.7207V43.2427H25.1231Z" fill="#333333"/>
<path d="M33.1793 44.2633C33.1664 44.9093 32.9469 47.377 30.4423 47.377C29.6935 47.377 27.3955 47.2478 27.3955 43.0747C27.3955 41.6664 27.6924 38.8887 30.3778 38.8887C32.2239 38.8887 33.1276 40.284 33.1276 41.6664H31.8753C31.8495 40.7104 31.3331 39.8577 30.3907 39.8577C29.5128 39.8577 28.7511 40.5812 28.7511 43.0876C28.7511 46.0592 29.913 46.4339 30.4681 46.4339C31.0362 46.4339 31.8883 45.9817 31.927 44.2763H33.1793V44.2633Z" fill="#333333"/>
<path d="M33.373 46.0577C34.8319 46.4195 34.819 44.3135 34.819 42.1559V39.1973H39.2343V47.0655H37.9433V40.1533H36.0584V42.1559C36.0584 45.1146 35.8389 47.621 33.373 47.0526V46.0577Z" fill="#333333"/>
<path d="M46.128 44.7931C46.0376 45.8913 45.3792 47.377 43.391 47.377C40.2797 47.377 40.228 43.8758 40.228 43.1652C40.228 40.8267 40.9897 38.8887 43.3136 38.8887C44.682 38.8887 46.0247 39.5347 46.1796 42.7646C46.1925 42.9972 46.1925 43.2168 46.1925 43.4494H41.5965C41.5836 44.5863 41.9709 46.421 43.3652 46.421C44.3851 46.421 44.8241 45.5037 44.8757 44.7931H46.128ZM44.837 42.4804C44.8241 40.0385 43.8042 39.8447 43.3136 39.8447C41.7385 39.8447 41.5836 41.7827 41.5965 42.4804H44.837Z" fill="#333333"/>
<path d="M50.0399 39.1973C50.7887 39.1973 52.2218 39.3523 52.2218 41.1353C52.2218 42.466 51.4342 42.8278 50.892 42.8924V42.9828C51.5117 43.0603 52.4542 43.4996 52.4542 44.9725C52.4542 46.9363 50.892 47.0784 49.9883 47.0784H47.1997V39.2102H50.0399V39.1973ZM48.5036 42.4789H49.601C50.0529 42.4789 50.8533 42.3756 50.8533 41.2644C50.8533 40.205 50.0787 40.1533 49.6397 40.1533H48.4907V42.4789H48.5036ZM48.5036 46.1094H49.7172C50.182 46.1094 51.0986 46.0061 51.0986 44.7787C51.0986 43.5125 50.182 43.4479 49.6785 43.4479H48.5165V46.1094H48.5036Z" fill="#333333"/>
<path d="M56.1078 38.8887C56.4951 38.8887 59.1675 38.9016 59.1675 43.1135C59.1675 45.452 58.2251 47.377 56.1078 47.377C53.2934 47.377 53.0352 44.2633 53.0352 43.1135C53.0481 41.9378 53.2934 38.8887 56.1078 38.8887ZM56.1078 46.421C57.1922 46.421 57.8119 45.1677 57.8119 43.1264C57.8119 41.6277 57.4375 39.8577 56.1078 39.8577C54.778 39.8577 54.4036 41.6277 54.4036 43.1264C54.4036 45.1677 55.0233 46.421 56.1078 46.421Z" fill="#333333"/>
<path d="M64.3443 39.1981H65.7515V47.0664H64.4476V41.2136L61.5815 47.0664H60.1743V39.1981H61.4782V45.0508L64.3443 39.1981ZM61.9172 36.2266C61.9043 36.5496 61.9688 37.454 62.9371 37.454C63.9183 37.454 63.9699 36.5496 63.957 36.2266H65.0673C64.9898 38.2162 63.376 38.2679 62.9242 38.2679C62.4723 38.2679 60.8715 38.2033 60.7811 36.2266H61.9172Z" fill="#333333"/>
<path d="M72.1291 47.0655H70.8252V39.1973H72.1291V42.4402H74.8274V39.1973H76.1313V47.0655H74.8274V43.3962H72.1291V47.0655Z" fill="#333333"/>
<path d="M77.2415 41.5243C77.2415 40.9559 77.3706 38.8887 79.9268 38.8887C81.6697 38.8887 82.4314 39.806 82.4314 41.5373V45.3357C82.4314 46.0334 82.496 46.1109 82.8058 46.1109C82.8703 46.1109 82.9478 46.1109 83.0124 46.098V47.0799C82.8704 47.1057 82.6121 47.1445 82.4056 47.1445C82.0183 47.1445 81.5019 47.067 81.334 46.421C80.7789 47.1445 80.0301 47.39 79.2942 47.39C77.5255 47.39 77.0479 46.1755 77.0479 45.0256C77.0479 43.023 78.5713 42.7259 79.7719 42.5838C81.1017 42.4029 81.1404 42.4287 81.1404 41.5243C81.1404 40.0515 80.5078 39.8706 79.9268 39.8706C78.5971 39.8706 78.5067 41.0205 78.5196 41.5502H77.2415V41.5243ZM81.1275 43.2427C79.475 43.6949 78.3905 43.2556 78.3905 45.0385C78.3905 45.5295 78.4551 46.421 79.4491 46.421C80.7918 46.421 81.1404 45.3486 81.1404 43.7207V43.2427H81.1275Z" fill="#333333"/>
<path d="M84.0066 48.7838C84.1873 48.913 84.4455 48.9905 84.6392 48.9905C85.2072 48.9905 85.3492 48.2412 85.4783 47.6598L85.6074 47.0655L83.0254 39.1973H84.5101L86.2917 45.2567L87.7634 39.1973H89.0674L86.7048 47.9957C86.4079 49.081 86.1497 49.9983 84.8457 49.9983C84.4842 49.9983 84.2131 49.9466 84.0195 49.9079V48.7838H84.0066Z" fill="#333333"/>
<path d="M90.6682 39.1973V41.6133C90.6682 42.4789 90.6424 42.9053 91.8947 42.9053C92.1399 42.9053 92.4369 42.8794 92.9275 42.8536V39.1973H94.2314V47.0655H92.9275V43.8097C92.7209 43.8226 92.1012 43.8743 91.6752 43.8743C89.6225 43.8743 89.3643 43.0345 89.3643 41.8329V39.1973H90.6682Z" fill="#333333"/>
<path d="M96.9944 47.0655H95.6904V39.1973H96.9944V42.4402H99.6926V39.1973H100.997V47.0655H99.6926V43.3962H96.9944V47.0655Z" fill="#333333"/>
<path d="M105.063 38.8887C105.451 38.8887 108.123 38.9016 108.123 43.1135C108.123 45.452 107.181 47.377 105.063 47.377C102.249 47.377 101.991 44.2633 101.991 43.1135C102.004 41.9378 102.249 38.8887 105.063 38.8887ZM105.063 46.421C106.148 46.421 106.767 45.1677 106.767 43.1264C106.767 41.6277 106.393 39.8577 105.063 39.8577C103.734 39.8577 103.359 41.6277 103.359 43.1264C103.359 45.1677 103.979 46.421 105.063 46.421Z" fill="#333333"/>
<path d="M109.246 42.2598H112.629V43.5776H109.246V42.2598Z" fill="#333333"/>
<path d="M113.468 40.1533V39.1973H118.916V40.1533H116.837V47.0655H115.533V40.1533H113.468Z" fill="#333333"/>
<path d="M125.087 44.7931C124.997 45.8913 124.338 47.377 122.35 47.377C119.239 47.377 119.187 43.8758 119.187 43.1652C119.187 40.8267 119.949 38.8887 122.273 38.8887C123.641 38.8887 124.984 39.5347 125.139 42.7646C125.152 42.9972 125.152 43.2168 125.152 43.4494H120.555C120.543 44.5863 120.93 46.421 122.324 46.421C123.344 46.421 123.783 45.5037 123.835 44.7931H125.087ZM123.796 42.4804C123.783 40.0385 122.763 39.8447 122.273 39.8447C120.698 39.8447 120.543 41.7827 120.555 42.4804H123.796Z" fill="#333333"/>
<path d="M129.683 39.1973H131.077L128.973 42.957L131.232 47.0655H129.838L128.263 44.0422L126.688 47.0655H125.293L127.553 42.957L125.448 39.1973H126.843L128.263 41.8975L129.683 39.1973Z" fill="#333333"/>
<path d="M133.104 47.0655H131.8V39.1973H133.104V42.4402H135.802V39.1973H137.106V47.0655H135.802V43.3962H133.104V47.0655Z" fill="#333333"/>
<path d="M142.722 39.1973H144.129V47.0655H142.826V41.2128L139.959 47.0655H138.552V39.1973H139.856V45.05L142.722 39.1973Z" fill="#333333"/>
<path d="M146.634 39.1973V41.6133C146.634 42.4789 146.608 42.9053 147.86 42.9053C148.106 42.9053 148.403 42.8794 148.893 42.8536V39.1973H150.197V47.0655H148.893V43.8097C148.687 43.8226 148.067 43.8743 147.641 43.8743C145.588 43.8743 145.33 43.0345 145.33 41.8329V39.1973H146.634Z" fill="#333333"/>
<path d="M157.104 44.7931C157.014 45.8913 156.355 47.377 154.367 47.377C151.256 47.377 151.204 43.8758 151.204 43.1652C151.204 40.8267 151.966 38.8887 154.29 38.8887C155.658 38.8887 157.001 39.5347 157.156 42.7646C157.169 42.9972 157.169 43.2168 157.169 43.4494H152.573C152.56 44.5863 152.947 46.421 154.341 46.421C155.361 46.421 155.8 45.5037 155.852 44.7931H157.104ZM155.8 42.4804C155.787 40.0385 154.767 39.8447 154.277 39.8447C152.702 39.8447 152.547 41.7827 152.56 42.4804H155.8Z" fill="#333333"/>
<path d="M163.507 44.2633C163.494 44.9093 163.275 47.377 160.77 47.377C160.035 47.377 157.724 47.2478 157.724 43.0747C157.724 41.6664 158.021 38.8887 160.706 38.8887C162.552 38.8887 163.456 40.284 163.456 41.6664H162.203C162.165 40.7104 161.661 39.8577 160.719 39.8577C159.841 39.8577 159.079 40.5812 159.079 43.0876C159.079 46.0592 160.241 46.4339 160.796 46.4339C161.364 46.4339 162.216 45.9817 162.255 44.2763H163.507V44.2633Z" fill="#333333"/>
<path d="M168.039 39.1973H169.485L166.683 42.8536L169.627 47.0655H168.181L165.741 43.4867V47.0655H164.437V39.1973H165.741V42.311L168.039 39.1973Z" fill="#333333"/>
<path d="M174.352 39.1973H175.759V47.0655H174.455V41.2128L171.589 47.0655H170.182V39.1973H171.486V45.05L174.352 39.1973Z" fill="#333333"/>
<path d="M181.388 39.1981H182.795V47.0664H181.492V41.2136L178.625 47.0664H177.218V39.1981H178.522V45.0508L181.388 39.1981ZM178.961 36.2266C178.948 36.5496 179.013 37.454 179.981 37.454C180.962 37.454 181.014 36.5496 181.001 36.2266H182.111C182.034 38.2162 180.42 38.2679 179.981 38.2679C179.529 38.2679 177.915 38.2033 177.838 36.2266H178.961Z" fill="#333333"/>
<path d="M190.606 43.5771L188.463 47.0655H186.979L189.703 42.9311L187.121 39.1973H188.566L190.606 42.3756V39.1973H191.91V42.3756L193.95 39.1973H195.396L192.814 42.9311L195.538 47.0655H194.053L191.923 43.5771V47.0655H190.619V43.5771H190.606Z" fill="#333333"/>
<path d="M196.287 48.7838C196.468 48.913 196.726 48.9905 196.919 48.9905C197.487 48.9905 197.629 48.2412 197.759 47.6598L197.888 47.0655L195.306 39.1973H196.79L198.572 45.2567L200.044 39.1973H201.348L198.972 47.9957C198.675 49.081 198.417 49.9983 197.113 49.9983C196.752 49.9983 196.48 49.9466 196.3 49.9079V48.7838H196.287Z" fill="#333333"/>
<path d="M203.142 39.1987V39.9998H203.168C203.452 39.3667 204.097 38.8887 205.014 38.8887C206.576 38.8887 207.854 40.2065 207.854 43.1393C207.854 45.7104 206.834 47.39 205.04 47.39C204.252 47.39 203.542 46.9894 203.219 46.421V49.9481H201.916V39.2117H203.142V39.1987ZM204.846 46.421C205.75 46.421 206.486 45.6587 206.486 43.1393C206.486 40.3357 205.401 39.8577 204.782 39.8577C204.007 39.8577 203.142 40.5553 203.142 43.1781C203.142 46.1497 204.446 46.421 204.846 46.421Z" fill="#333333"/>
<path d="M210.165 47.0655H208.861V39.1973H210.165V42.4402H212.863V39.1973H214.167V47.0655H212.863V43.3962H210.165V47.0655Z" fill="#333333"/>
<path d="M215.278 41.5243C215.278 40.9559 215.407 38.8887 217.963 38.8887C219.706 38.8887 220.468 39.806 220.468 41.5373V45.3357C220.468 46.0334 220.532 46.1109 220.842 46.1109C220.906 46.1109 220.984 46.1109 221.048 46.098V47.0799C220.906 47.1057 220.648 47.1445 220.442 47.1445C220.054 47.1445 219.538 47.067 219.37 46.421C218.815 47.1445 218.066 47.39 217.33 47.39C215.562 47.39 215.084 46.1755 215.084 45.0256C215.084 43.023 216.607 42.7259 217.808 42.5838C219.138 42.4029 219.177 42.4287 219.177 41.5243C219.177 40.0515 218.544 39.8706 217.963 39.8706C216.633 39.8706 216.543 41.0205 216.556 41.5502H215.278V41.5243ZM219.164 43.2427C217.511 43.6949 216.427 43.2556 216.427 45.0385C216.427 45.5295 216.491 46.421 217.472 46.421C218.815 46.421 219.164 45.3486 219.164 43.7207V43.2427Z" fill="#333333"/>
<path d="M221.152 46.0577C222.611 46.4195 222.598 44.3135 222.598 42.1559V39.1973H227.013V47.0655H225.722V40.1533H223.837V42.1559C223.837 45.1146 223.618 47.621 221.165 47.0526V46.0577H221.152Z" fill="#333333"/>
</g>
<defs>
<clipPath id="clip0_67_942">
<rect width="227" height="50" fill="white"/>
</clipPath>
</defs>
</svg>
