<svg width="210" height="54" viewBox="0 0 210 54" fill="none" xmlns="http://www.w3.org/2000/svg">
<g clip-path="url(#clip0_67_1045)">
<path d="M67.1114 0H63.1394V54H67.1114V0Z" fill="#333333"/>
<path d="M38.6883 10.9945C35.1806 10.9945 32.395 13.807 32.395 17.2331V27.4093H36.367V17.2331C36.367 15.9547 37.4503 14.8809 38.7399 14.8809H59.2705V10.9434H38.6883V10.9945Z" fill="#333333"/>
<path d="M99.4547 17.2331C99.4547 16.4149 99.2999 15.5968 98.9904 14.8809C98.0619 12.5797 95.7922 10.9434 93.1614 10.9434H77.3765C74.7457 10.9434 72.476 12.5797 71.5475 14.8809C71.238 15.5968 71.0833 16.4149 71.0833 17.2331V21.1195C71.0833 24.5968 73.9204 27.3581 77.3765 27.3581H93.213C96.7207 27.3581 99.5062 24.5456 99.5062 21.1195V17.2331H99.4547ZM93.1614 23.5229H77.3765C76.0869 23.5229 75.0037 22.449 75.0037 21.1706V17.2331C75.0037 15.9547 76.0869 14.8809 77.3765 14.8809H93.1614C94.451 14.8809 95.5343 15.9547 95.5343 17.2331V21.1706C95.5343 22.449 94.451 23.5229 93.1614 23.5229Z" fill="#333333"/>
<path d="M138.968 0H134.996V27.4091H138.968V0Z" fill="#333333"/>
<path d="M142.889 27.4091H146.861V10.9943H142.889V27.4091ZM142.889 3.9375V7.875H146.861V3.9375H142.889Z" fill="#333333"/>
<path d="M188.696 23.5229C187.406 23.5229 186.323 22.449 186.323 21.1706H210V17.2331C210 16.4149 209.845 15.5968 209.536 14.8809C208.917 13.2956 207.627 12.0684 206.028 11.4036C205.306 11.0968 204.481 10.9434 203.655 10.9434H188.644C187.819 10.9434 186.994 11.0968 186.271 11.4036C184.672 12.0172 183.434 13.2956 182.764 14.8809C182.454 15.5968 182.299 16.4149 182.299 17.2331V21.1195C182.299 21.9377 182.454 22.7559 182.764 23.4718C183.383 25.057 184.672 26.2843 186.271 26.949C186.994 27.2559 187.819 27.4093 188.644 27.4093H209.691V23.4718H188.696V23.5229ZM188.696 14.8809H190.295H202.159H203.758C205.048 14.8809 206.131 15.8524 206.131 17.5399H186.374C186.323 15.8524 187.406 14.8809 188.696 14.8809Z" fill="#333333"/>
<path d="M27.9587 14.8809C27.0302 12.5797 24.7605 10.9434 22.1297 10.9434H6.29329H0V17.2331V21.1195V35.182H3.972V27.4093H6.34488H22.1297C25.6374 27.4093 28.423 24.5968 28.423 21.1706V17.2331C28.423 16.4149 28.2682 15.5968 27.9587 14.8809ZM24.451 21.1706C24.451 22.449 23.3677 23.5229 22.0781 23.5229H3.92041V21.1706V17.2331V14.8809H22.0781C23.3677 14.8809 24.451 15.9547 24.451 17.2331V21.1706Z" fill="#333333"/>
<path d="M124.731 10.9941H103.427V27.4089H107.399V14.8805H116.065H124.731C126.021 14.8805 127.104 15.9544 127.104 17.2328V27.4089H131.076V17.2328C131.076 13.8066 128.239 10.9941 124.731 10.9941Z" fill="#333333"/>
<path d="M172.137 10.9941H150.833V27.4089H154.805V14.8805H163.471H172.137C173.427 14.8805 174.51 15.9544 174.51 17.2328V27.4089H178.482V17.2328C178.43 13.8066 175.593 10.9941 172.137 10.9941Z" fill="#333333"/>
</g>
<defs>
<clipPath id="clip0_67_1045">
<rect width="210" height="54" fill="white"/>
</clipPath>
</defs>
</svg>
