<svg width="218" height="46" viewBox="0 0 218 46" fill="none" xmlns="http://www.w3.org/2000/svg">
<g clip-path="url(#clip0_67_1011)">
<path fill-rule="evenodd" clip-rule="evenodd" d="M62.0727 0.576602C62.2024 2.75487 62.2024 4.93315 62.0727 7.11142C61.943 9.35376 61.6187 11.532 61.1646 13.7744C60.7106 16.0167 60.1917 18.195 59.5431 20.3092C58.8945 22.4234 58.181 24.5376 57.3378 26.5237C56.4946 28.5738 55.6514 30.4958 54.6785 32.3538C53.7055 34.2117 52.7326 35.9415 51.63 37.6072C50.5273 39.273 49.4895 40.7465 48.3869 42.0919C47.2842 43.4373 46.1816 44.5905 45.0141 45.6156L44.6249 45.9359L44.2357 45.6156C43.0682 44.5905 41.9007 43.4373 40.7981 42.0919C39.6954 40.8106 38.5928 39.337 37.4253 37.6713C36.3226 36.0056 35.2848 34.2758 34.3119 32.4819C33.339 30.688 32.4958 28.766 31.6526 26.7159C30.8094 24.7298 30.0959 22.6797 29.4473 20.5014C28.7987 18.3872 28.2798 16.1448 27.8257 13.9025C27.3717 11.6602 27.1123 9.41783 26.9825 7.17549C26.8528 4.93315 26.9177 2.69081 27.1123 0.448468L27.1771 0H62.0078L62.0727 0.576602Z" fill="#555555"/>
<path fill-rule="evenodd" clip-rule="evenodd" d="M29.8364 3.13885C29.5121 6.91879 29.7067 10.6987 30.4202 14.4787C31.1336 18.2586 32.2363 21.9104 33.6632 25.306C35.0902 28.7656 36.7117 31.9049 38.6576 34.7879C40.5386 37.6709 42.5493 40.1054 44.6249 42.0915C46.5058 40.0413 48.322 37.5427 50.203 34.5957C52.0191 31.6486 53.7055 28.4452 55.1324 25.0497C56.5594 21.5901 57.662 18.0024 58.4404 14.2224C59.2187 10.4425 59.4782 6.72659 59.2836 3.01071H29.8364V3.13885ZM27.696 0.576172H61.424C61.6835 4.86865 61.424 9.2252 60.516 13.6458C59.6728 18.1305 58.3755 22.3589 56.754 26.3951C55.1324 30.4313 53.2514 34.0831 51.0462 37.3505C48.9057 40.618 46.7004 43.2447 44.4951 45.2308C42.225 43.2447 39.9548 40.682 37.8144 37.4146C35.6091 34.2113 33.7281 30.5595 32.1066 26.5873C30.485 22.6152 29.2526 18.3868 28.4094 13.9021C27.5662 9.48146 27.3068 4.99678 27.696 0.576172Z" fill="#555555"/>
<path fill-rule="evenodd" clip-rule="evenodd" d="M57.0783 32.6742L55.5865 17.3622L55.3919 15.248L54.6784 17.2981L51.3056 26.8441L45.5978 26.78L55.0027 5.44576L55.2622 4.8051H54.5487L33.7281 4.54883H33.2092V5.06136L34.4416 18.0029L34.6362 19.8608L35.3497 18.131L38.5927 10.5711L43.3276 10.6352L33.9876 32.2898L33.7281 32.9304H34.4416L56.5594 33.1867H57.0783V32.6742Z" fill="#333333"/>
<path fill-rule="evenodd" clip-rule="evenodd" d="M71.9316 13.7099C71.2181 13.1333 70.3749 12.6208 69.3371 12.3645C68.3642 12.0441 67.1967 11.916 65.8995 11.916C64.6671 11.916 63.4996 12.0441 62.5266 12.3645C61.4889 12.6848 60.6457 13.1333 59.9322 13.7099C59.2187 14.3506 58.635 15.0553 58.3106 15.9522C57.9215 16.7851 57.7917 17.7461 57.7917 18.8352C57.7917 19.604 57.8566 20.3088 58.0512 20.9494C58.2458 21.5901 58.5052 22.2308 58.8944 22.7433C59.2836 23.2558 59.6727 23.7043 60.1916 24.0887C60.6457 24.4731 61.2294 24.7935 61.8132 25.0497C62.3969 25.306 63.0455 25.4341 63.759 25.5623C64.4725 25.6904 65.2508 25.7545 66.094 25.7545C66.9372 25.7545 67.7156 25.6904 68.4291 25.5623C69.1425 25.4341 69.7912 25.2419 70.3749 24.9216C70.9587 24.6653 71.4776 24.2809 71.9316 23.8965C72.3856 23.5121 72.7748 23.0636 73.0991 22.5511C73.4234 22.0386 73.6829 21.462 73.8126 20.8213C73.9423 20.1806 74.072 19.4759 74.072 18.7071C74.072 17.618 73.8774 16.657 73.5531 15.8241C73.164 15.0553 72.6451 14.2865 71.9316 13.7099ZM68.3642 20.3728C68.2345 20.7572 68.1047 21.0776 67.8453 21.3338C67.6507 21.526 67.3913 21.7182 67.067 21.8464C66.7427 21.9745 66.3535 22.0386 65.8995 22.0386C65.5103 22.0386 65.1211 21.9745 64.7968 21.8464C64.4725 21.7182 64.2131 21.5901 63.9536 21.3338C63.759 21.1416 63.5644 20.8213 63.4347 20.4369C63.305 20.0525 63.2401 19.54 63.2401 18.9634C63.2401 18.3868 63.305 17.8742 63.4347 17.4898C63.5644 17.1054 63.6942 16.7851 63.9536 16.5929C64.2131 16.3366 64.4725 16.2085 64.7319 16.0804C65.0563 15.9522 65.3806 15.8882 65.8346 15.8882C66.2886 15.8882 66.6778 15.9522 67.0021 16.0804C67.3264 16.2085 67.5859 16.3366 67.8453 16.5929C68.0399 16.7851 68.2345 17.1054 68.3642 17.4258C68.4939 17.8102 68.5588 18.2586 68.5588 18.8352C68.5588 19.3478 68.4939 19.9244 68.3642 20.3728Z" fill="#333333"/>
<path fill-rule="evenodd" clip-rule="evenodd" d="M12.8427 18.0016C12.2589 17.6172 11.4806 17.3609 10.6374 17.1687C9.79419 16.9765 8.7564 16.9124 7.58889 16.9124H5.64304V15.567H13.5562V12.1074H0.0649414V25.5615H8.43209C9.40502 25.5615 10.2482 25.4974 11.0266 25.3052C11.8049 25.113 12.4535 24.9208 12.9724 24.5364C13.5562 24.2161 13.9453 23.7676 14.2696 23.2551C14.5291 22.7425 14.7237 22.1659 14.7237 21.5252C14.7237 20.7564 14.594 20.0517 14.2696 19.4751C13.9453 18.8985 13.4913 18.386 12.8427 18.0016ZM5.64304 20.4361H7.52403C8.17265 20.4361 8.62668 20.5002 8.88613 20.6924C9.08071 20.8205 9.14557 20.9486 9.14557 21.1408C9.14557 21.3971 9.01585 21.5893 8.82126 21.7175C8.56182 21.9097 8.10779 21.9737 7.45917 21.9737H5.64304V20.4361Z" fill="#333333"/>
<path fill-rule="evenodd" clip-rule="evenodd" d="M23.6099 20.308H30.7447V16.7843H23.6099V15.7592H31.3285V12.1074H18.5507H18.0967V25.6255H31.523V21.7815H23.6099V20.308Z" fill="#333333"/>
<path fill-rule="evenodd" clip-rule="evenodd" d="M163.387 13.7099C162.673 13.1333 161.83 12.6208 160.792 12.3645C159.819 12.0441 158.652 11.916 157.355 11.916C156.122 11.916 155.02 12.0441 153.982 12.3645C153.009 12.6848 152.101 13.1333 151.387 13.7099C150.674 14.3506 150.09 15.0553 149.766 15.9522C149.377 16.7851 149.247 17.7461 149.247 18.8352C149.247 19.604 149.312 20.3088 149.506 20.9494C149.701 21.5901 149.96 22.2308 150.349 22.7433C150.739 23.2558 151.128 23.7043 151.647 24.0887C152.101 24.4731 152.684 24.7935 153.268 25.0497C153.852 25.306 154.501 25.4341 155.214 25.5623C155.928 25.6904 156.706 25.7545 157.614 25.7545C158.457 25.7545 159.236 25.6904 159.949 25.5623C160.662 25.4341 161.311 25.2419 161.895 24.9216C162.479 24.6653 162.997 24.2809 163.452 23.8965C163.906 23.5121 164.295 23.0636 164.619 22.5511C164.943 22.0386 165.203 21.462 165.333 20.8213C165.462 20.1806 165.592 19.4759 165.592 18.7071C165.592 17.618 165.397 16.657 165.073 15.8241C164.684 15.0553 164.165 14.2865 163.387 13.7099ZM159.884 20.3728C159.754 20.7572 159.625 21.0776 159.365 21.3338C159.171 21.526 158.911 21.7182 158.587 21.8464C158.263 21.9745 157.873 22.0386 157.419 22.0386C157.03 22.0386 156.641 21.9745 156.317 21.8464C155.992 21.7182 155.733 21.5901 155.474 21.3338C155.279 21.1416 155.084 20.8213 154.955 20.4369C154.825 20.0525 154.76 19.54 154.76 18.9634C154.76 18.3868 154.825 17.8742 154.955 17.4898C155.084 17.1054 155.214 16.7851 155.474 16.5929C155.733 16.3366 155.992 16.2085 156.252 16.0804C156.576 15.9522 156.901 15.8882 157.355 15.8882C157.809 15.8882 158.133 15.9522 158.522 16.0804C158.846 16.2085 159.106 16.3366 159.365 16.5929C159.56 16.7851 159.754 17.1054 159.884 17.4258C160.014 17.8102 160.079 18.2586 160.079 18.8352C160.014 19.3478 159.949 19.9244 159.884 20.3728Z" fill="#333333"/>
<path fill-rule="evenodd" clip-rule="evenodd" d="M179.667 19.5407L179.213 19.4126L179.083 19.8611C179.018 20.2455 178.888 20.5658 178.759 20.8221C178.629 21.0783 178.434 21.2705 178.305 21.4627C178.11 21.655 177.915 21.719 177.656 21.8471C177.397 21.9112 177.007 21.9753 176.618 21.9753C176.229 21.9753 175.905 21.9112 175.58 21.8471C175.321 21.719 175.062 21.5909 174.867 21.3987C174.672 21.2065 174.543 20.8861 174.413 20.5017C174.283 20.0533 174.218 19.5407 174.218 18.9001C174.218 18.3875 174.283 17.9391 174.348 17.5547C174.413 17.2343 174.543 16.914 174.737 16.7218C174.932 16.4655 175.256 16.2093 175.58 16.0811C175.905 15.953 176.294 15.8889 176.748 15.8889C176.943 15.8889 177.137 15.8889 177.332 15.953C177.526 16.0171 177.656 16.0171 177.851 16.0811C177.98 16.1452 178.11 16.2093 178.24 16.3374C178.369 16.4015 178.499 16.5296 178.564 16.6577C178.629 16.7218 178.694 16.7859 178.759 16.914C178.823 17.0421 178.888 17.1703 178.953 17.3625L179.083 17.7469L179.472 17.6828L183.494 16.914L184.077 16.7859L183.883 16.2733C183.623 15.5686 183.234 14.9279 182.845 14.4154C182.391 13.9029 181.872 13.4544 181.353 13.07C180.769 12.7497 180.056 12.4934 179.278 12.3012C178.499 12.109 177.656 12.0449 176.683 12.0449C175.451 12.0449 174.348 12.1731 173.375 12.4934C172.402 12.8137 171.559 13.2622 170.846 13.8388C169.419 15.0561 168.705 16.7859 168.705 18.9641C168.705 19.797 168.835 20.5658 169.029 21.2065C169.224 21.9112 169.548 22.4878 169.937 23.0644C170.327 23.577 170.781 24.0254 171.235 24.4098C171.689 24.7942 172.208 25.1146 172.791 25.3068C173.31 25.499 173.959 25.6912 174.672 25.7552C175.321 25.8834 176.099 25.8834 176.942 25.8834C177.656 25.8834 178.24 25.8193 178.823 25.7552C179.407 25.6912 179.926 25.563 180.38 25.3708C180.834 25.1786 181.288 24.9864 181.677 24.7302C182.067 24.4739 182.456 24.1536 182.715 23.8332C183.04 23.5129 183.299 23.0644 183.558 22.68C183.818 22.2316 183.948 21.7831 184.142 21.2705L184.272 20.8221L183.818 20.6939L179.667 19.5407Z" fill="#333333"/>
<path fill-rule="evenodd" clip-rule="evenodd" d="M185.31 12.1074V16.1436H189.98V25.6255H195.558V16.1436H200.228V12.1074H185.828H185.31Z" fill="#333333"/>
<path fill-rule="evenodd" clip-rule="evenodd" d="M217.546 19.4751C217.222 18.8985 216.768 18.386 216.184 18.0016C215.6 17.6172 214.822 17.3609 213.979 17.1687C213.136 16.9765 212.098 16.9124 210.93 16.9124H208.984V12.1074H203.471V25.5615H211.838C212.811 25.5615 213.654 25.4974 214.433 25.3052C215.211 25.113 215.86 24.9208 216.379 24.5364C216.962 24.2161 217.352 23.7676 217.676 23.2551C217.935 22.7425 218.13 22.1659 218.13 21.5252C218 20.7564 217.87 20.0517 217.546 19.4751ZM212.163 21.7175C211.903 21.9097 211.449 21.9737 210.801 21.9737H208.92V20.4361H210.801C211.449 20.4361 211.903 20.5002 212.163 20.6924C212.357 20.8205 212.422 20.9486 212.422 21.1408C212.487 21.3971 212.422 21.5893 212.163 21.7175Z" fill="#333333"/>
<path fill-rule="evenodd" clip-rule="evenodd" d="M76.083 25.6255H81.5962V16.1436H85.6825V25.6255H90.7417H91.1958V12.1074H76.083V25.6255Z" fill="#333333"/>
<path fill-rule="evenodd" clip-rule="evenodd" d="M140.101 16.528H136.08V12.1074H131.021H130.502V25.6255H136.08V20.5002H140.101V25.6255H145.68V12.1074H140.101V16.528Z" fill="#333333"/>
<path fill-rule="evenodd" clip-rule="evenodd" d="M105.4 12.4281L105.27 12.1719H99.6274L99.4976 12.4281L93.9195 24.9852L93.5952 25.6259H99.3679L99.4976 25.3056L100.081 23.5758H104.622L105.27 25.3056L105.4 25.6259H111.302L110.978 24.9852L105.4 12.4281ZM101.508 19.8599L102.481 17.2332L103.454 19.8599H101.508Z" fill="#333333"/>
<path fill-rule="evenodd" clip-rule="evenodd" d="M122.978 19.5404L122.524 19.4122L122.394 19.8607C122.329 20.2451 122.199 20.5654 122.07 20.8217C121.94 21.078 121.745 21.2702 121.616 21.4624C121.421 21.5905 121.226 21.7186 120.967 21.8468C120.707 21.9108 120.318 21.9749 119.929 21.9749C119.54 21.9749 119.216 21.9108 118.891 21.8468C118.632 21.7186 118.372 21.5905 118.178 21.3983C117.983 21.2061 117.854 20.8858 117.724 20.5014C117.594 20.0529 117.529 19.5404 117.529 18.8356C117.529 18.3231 117.594 17.8746 117.659 17.4902C117.724 17.1699 117.854 16.8495 118.048 16.6573C118.243 16.4011 118.567 16.1448 118.891 16.0167C119.216 15.8885 119.605 15.8245 120.059 15.8245C120.253 15.8245 120.448 15.8245 120.643 15.8885C120.837 15.9526 120.967 15.9526 121.162 16.0167C121.291 16.0807 121.421 16.1448 121.551 16.2729C121.68 16.337 121.81 16.4651 121.875 16.5933C121.94 16.6573 122.005 16.7214 122.07 16.8495C122.134 16.9777 122.199 17.1058 122.264 17.298L122.394 17.6824L122.783 17.6184L126.804 16.8495L127.388 16.7214L127.194 16.2089C126.934 15.5041 126.545 14.8635 126.156 14.3509C125.702 13.8384 125.183 13.3899 124.599 13.0055C124.015 12.6852 123.367 12.4289 122.524 12.2367C121.745 12.0445 120.902 11.9805 119.929 11.9805C118.697 11.9805 117.594 12.1086 116.621 12.4289C115.648 12.7493 114.805 13.1977 114.092 13.7743C113.378 14.3509 112.859 15.1197 112.47 15.9526C112.146 16.7855 111.951 17.8106 111.951 18.8997C111.951 19.7326 112.081 20.5014 112.275 21.142C112.47 21.8468 112.794 22.4234 113.184 23C113.573 23.5125 114.027 23.961 114.481 24.3454C114.935 24.7298 115.454 24.986 116.037 25.2423C116.556 25.4345 117.205 25.6267 117.918 25.6908C118.567 25.8189 119.345 25.8189 120.189 25.8189C120.902 25.8189 121.486 25.7548 122.07 25.6908C122.653 25.6267 123.172 25.4986 123.626 25.3064C124.08 25.1142 124.534 24.922 124.924 24.6657C125.313 24.4094 125.702 24.0891 125.961 23.7688C126.286 23.4484 126.545 23.064 126.804 22.6156C126.999 22.1671 127.194 21.7186 127.388 21.2061L127.518 20.7576L127.064 20.6295L122.978 19.5404Z" fill="#333333"/>
</g>
<defs>
<clipPath id="clip0_67_1011">
<rect width="218" height="46" fill="white"/>
</clipPath>
</defs>
</svg>
