<svg width="12" height="12" viewBox="0 0 12 12" fill="none" xmlns="http://www.w3.org/2000/svg">
<path d="M6.27778 9.88889L7.89444 7.76111C8.05 7.61111 8.26667 7.56667 8.46111 7.62778C9.08333 7.83333 9.75 7.94444 10.4444 7.94444C10.75 7.94444 11 8.19444 11 8.5V10.4444C11 10.75 10.75 11 10.4444 11C5.22778 11 1 6.77222 1 1.55556C1 1.25 1.25 1 1.55556 1H3.5C3.80556 1 4.05556 1.25 4.05556 1.55556C4.05556 2.25 4.16667 2.91667 4.37222 3.53889C4.43333 3.73333 4.38889 3.95 4.23333 4.1L2.38889 6" stroke="#C8C8C8"/>
</svg>
