<svg width="16" height="16" viewBox="0 0 16 16" fill="none" xmlns="http://www.w3.org/2000/svg">
<path fill-rule="evenodd" clip-rule="evenodd" d="M15.6329 4.1094C15.7442 3.75816 15.6329 3.5 15.1035 3.5H13.3531C12.908 3.5 12.703 3.72299 12.5917 3.96895C12.5917 3.96895 11.7015 6.02391 10.4404 7.35875C10.0325 7.74516 9.84705 7.86796 9.6245 7.86796C9.51322 7.86796 9.35218 7.74516 9.35218 7.39392V4.1094C9.35218 3.68782 9.22303 3.5 8.85207 3.5H6.10142C5.82336 3.5 5.65607 3.69563 5.65607 3.88108C5.65607 4.28075 6.28647 4.37288 6.35148 5.49693V7.93842C6.35148 8.47368 6.24946 8.57079 6.02691 8.57079C5.43352 8.57079 3.99018 6.50647 3.13398 4.14457C2.96619 3.68545 2.7979 3.5 2.35055 3.5H0.60014C0.100023 3.5 0 3.72299 0 3.96895C0 4.40805 0.593513 6.58605 2.76314 9.46653C4.20973 11.4335 6.24746 12.5 8.10189 12.5C9.21465 12.5 9.35218 12.2632 9.35218 11.8552V10.3684C9.35218 9.89474 9.45758 9.80024 9.80979 9.80024C10.0696 9.80024 10.5146 9.92316 11.5532 10.8716C12.74 11.9955 12.9355 12.5 13.6032 12.5H15.3536C15.8537 12.5 16.1038 12.2632 15.9595 11.7957C15.8017 11.3299 15.2351 10.6542 14.4831 9.85293C14.0752 9.39618 13.4631 8.90438 13.2779 8.65854C13.0182 8.34235 13.0923 8.20191 13.2779 7.92101C13.2779 7.92101 15.4103 5.07559 15.6329 4.10951V4.1094Z" fill="#2A2626"/>
</svg>
