<svg width="16" height="16" viewBox="0 0 16 16" fill="none" xmlns="http://www.w3.org/2000/svg">
<path d="M15.6704 4.22118C15.4859 3.54824 14.9456 3.01765 14.2602 2.83647C13.0082 2.5 7.99997 2.5 7.99997 2.5C7.99997 2.5 2.99175 2.5 1.7397 2.82353C1.06754 3.00471 0.514001 3.54824 0.329488 4.22118C0 5.45059 0 8 0 8C0 8 0 10.5624 0.329488 11.7788C0.514001 12.4518 1.05436 12.9824 1.7397 13.1635C3.00493 13.5 7.99997 13.5 7.99997 13.5C7.99997 13.5 13.0082 13.5 14.2602 13.1765C14.9456 12.9953 15.4859 12.4647 15.6704 11.7918C15.9999 10.5624 15.9999 8.01294 15.9999 8.01294C15.9999 8.01294 16.0131 5.45059 15.6704 4.22118Z" fill="#2A2626"/>
<path d="M6 10.5L11 8L6 5.5V10.5Z" fill="#F3F5F8"/>
</svg>
