<svg width="16" height="16" viewBox="0 0 16 16" fill="none" xmlns="http://www.w3.org/2000/svg">
<path d="M6.00048 8C6.00048 6.89547 6.89567 5.99984 8.00024 5.99984C9.10481 5.99984 10.0005 6.89547 10.0005 8C10.0005 9.10453 9.10481 10.0002 8.00024 10.0002C6.89567 10.0002 6.00048 9.10453 6.00048 8ZM4.91919 8C4.91919 9.7016 6.29857 11.0809 8.00024 11.0809C9.70191 11.0809 11.0813 9.7016 11.0813 8C11.0813 6.2984 9.70191 4.91907 8.00024 4.91907C6.29857 4.91907 4.91919 6.2984 4.91919 8ZM10.4832 4.79691C10.4832 4.93931 10.5254 5.07854 10.6044 5.19697C10.6835 5.31541 10.7959 5.40774 10.9275 5.46228C11.059 5.51683 11.2038 5.53115 11.3435 5.50342C11.4831 5.4757 11.6115 5.40717 11.7122 5.30652C11.8129 5.20587 11.8816 5.0776 11.9094 4.93795C11.9372 4.79829 11.923 4.65352 11.8686 4.52193C11.8141 4.39035 11.7219 4.27786 11.6035 4.1987C11.4852 4.11954 11.346 4.07726 11.2036 4.0772H11.2033C11.0124 4.07729 10.8293 4.15314 10.6943 4.28808C10.5593 4.42302 10.4834 4.60603 10.4832 4.79691ZM5.57614 12.8839C4.99114 12.8572 4.67318 12.7598 4.46187 12.6775C4.18174 12.5684 3.98186 12.4385 3.7717 12.2287C3.56155 12.0188 3.43147 11.8191 3.32288 11.539C3.24051 11.3278 3.14307 11.0097 3.11648 10.4248C3.08739 9.79232 3.08158 9.60234 3.08158 8.00005C3.08158 6.39776 3.08787 6.2083 3.11648 5.57533C3.14312 4.99035 3.24128 4.67293 3.32288 4.4611C3.43195 4.18098 3.56184 3.9811 3.7717 3.77096C3.98157 3.56082 4.18126 3.43074 4.46187 3.32216C4.67308 3.23979 4.99114 3.14235 5.57614 3.11576C6.20862 3.08667 6.39861 3.08086 8.00024 3.08086C9.60187 3.08086 9.79206 3.08715 10.4251 3.11576C11.0101 3.1424 11.3275 3.24056 11.5393 3.32216C11.8195 3.43074 12.0193 3.5611 12.2295 3.77096C12.4396 3.98082 12.5693 4.18098 12.6783 4.4611C12.7607 4.6723 12.8581 4.99035 12.8847 5.57533C12.9138 6.2083 12.9196 6.39776 12.9196 8.00005C12.9196 9.60234 12.9138 9.79179 12.8847 10.4248C12.8581 11.0097 12.7602 11.3277 12.6783 11.539C12.5693 11.8191 12.4394 12.019 12.2295 12.2287C12.0196 12.4383 11.8195 12.5684 11.5393 12.6775C11.3281 12.7598 11.0101 12.8573 10.4251 12.8839C9.79258 12.9129 9.60259 12.9188 8.00024 12.9188C6.39789 12.9188 6.20842 12.9129 5.57614 12.8839ZM5.52646 2.03634C4.8877 2.06542 4.45122 2.1667 4.07003 2.31502C3.67527 2.46819 3.34108 2.67368 3.00713 3.00709C2.67318 3.3405 2.46821 3.6752 2.31504 4.06995C2.16671 4.45136 2.06543 4.88758 2.03634 5.52632C2.00677 6.16606 2 6.37059 2 8C2 9.62941 2.00677 9.83394 2.03634 10.4737C2.06543 11.1125 2.16671 11.5486 2.31504 11.93C2.46821 12.3246 2.67323 12.6596 3.00713 12.9929C3.34103 13.3262 3.67527 13.5314 4.07003 13.685C4.45194 13.8333 4.8877 13.9346 5.52646 13.9637C6.16657 13.9928 6.37077 14 8.00024 14C9.62971 14 9.83425 13.9932 10.474 13.9637C11.1128 13.9346 11.549 13.8333 11.9304 13.685C12.325 13.5314 12.6594 13.3263 12.9934 12.9929C13.3273 12.6595 13.5318 12.3246 13.6854 11.93C13.8338 11.5486 13.9355 11.1124 13.9641 10.4737C13.9932 9.83346 14 9.62941 14 8C14 6.37059 13.9932 6.16606 13.9641 5.52632C13.9351 4.88754 13.8338 4.45112 13.6854 4.06995C13.5318 3.67544 13.3268 3.34102 12.9934 3.00709C12.6599 2.67315 12.325 2.46819 11.9309 2.31502C11.549 2.1667 11.1128 2.06494 10.4745 2.03634C9.83473 2.00725 9.63019 2 8.00072 2C6.37125 2 6.16657 2.00677 5.52646 2.03634Z" fill="#2A2626"/>
</svg>
