<svg width="28" height="28" viewBox="0 0 28 28" fill="none" xmlns="http://www.w3.org/2000/svg">
<path d="M20.8787 22.0651L23.1759 23.2621C23.6227 23.4954 24.1454 23.1186 24.0602 22.6251L23.6215 20.0876L25.48 18.2909C25.8417 17.9409 25.6422 17.3308 25.1417 17.2584L22.5739 16.8874L21.4247 14.5763C21.2007 14.1259 20.5544 14.1259 20.3315 14.5763L19.1824 16.8874L16.6145 17.2584C16.1152 17.3308 15.9145 17.9409 16.2762 18.2909L18.1347 20.0876L17.696 22.6251C17.6109 23.1186 18.1335 23.4966 18.5804 23.2621L20.8775 22.0651" stroke="#BE3D3D" stroke-width="1.5" stroke-linecap="round"/>
<path d="M13.9989 12.4914L16.296 13.6884C16.7429 13.9218 17.2655 13.5449 17.1804 13.0514L16.7417 10.5139L18.6002 8.71727C18.9619 8.36727 18.7624 7.7571 18.2619 7.68477L15.6952 7.31493L14.546 5.00377C14.322 4.55343 13.6757 4.55343 13.4529 5.00377L12.3049 7.31493L9.73587 7.68593C9.23653 7.75827 9.03587 8.36843 9.39753 8.71843L11.256 10.5151L10.8174 13.0526C10.7322 13.5461 11.2549 13.9241 11.7017 13.6896L13.9989 12.4926" stroke="#BE3D3D" stroke-width="1.5" stroke-linecap="round"/>
<path d="M7.11893 22.0651L9.4161 23.2621C9.86293 23.4954 10.3856 23.1186 10.3004 22.6251L9.86176 20.0876L11.7203 18.2909C12.0819 17.9409 11.8824 17.3308 11.3819 17.2584L8.8141 16.8874L7.66493 14.5763C7.44093 14.1259 6.7946 14.1259 6.57176 14.5763L5.4226 16.8874L2.85476 17.2584C2.35543 17.3308 2.15476 17.9409 2.51643 18.2909L4.37493 20.0876L3.93626 22.6251C3.8511 23.1186 4.37376 23.4966 4.8206 23.2621L7.11776 22.0651" stroke="#BE3D3D" stroke-width="1.5" stroke-linecap="round"/>
</svg>
