<svg width="32" height="32" viewBox="0 0 32 32" fill="none" xmlns="http://www.w3.org/2000/svg">
<path fill-rule="evenodd" clip-rule="evenodd" d="M7.99654 28.0049H5.32876C4.59219 28.0046 3.99514 27.4075 3.99487 26.671V18.6676C3.99514 17.9311 4.59219 17.334 5.32876 17.3337H7.99654C8.73312 17.334 9.33016 17.9311 9.33043 18.6676V26.671C9.33016 27.4075 8.73312 28.0046 7.99654 28.0049V28.0049Z" stroke="currentcolor" stroke-width="2" stroke-linecap="round" stroke-linejoin="round"/>
<path d="M17.3339 22.6693H19.9483C20.5256 22.6696 21.0874 22.4824 21.549 22.1357L24.7717 19.7187C25.5763 19.1158 26.7017 19.1959 27.4128 19.9068V19.9068C27.792 20.2855 28.005 20.7995 28.005 21.3354C28.005 21.8713 27.792 22.3853 27.4128 22.764L24.6476 25.5291C23.9026 26.2738 22.954 26.7815 21.9211 26.9884L18.0128 27.7701C17.238 27.925 16.4384 27.9059 15.6719 27.7141L12.1371 26.831C11.7145 26.7245 11.2803 26.6707 10.8445 26.671H9.33057" stroke="currentColor" stroke-width="2" stroke-linecap="round" stroke-linejoin="round"/>
<path d="M17.3339 22.6693H19.3147C19.8507 22.6694 20.3648 22.4566 20.7438 22.0776C21.1228 21.6985 21.3357 21.1845 21.3356 20.6485V20.2443C21.3358 19.3174 20.7049 18.5094 19.8056 18.2848L16.7483 17.5205C16.2514 17.3965 15.7412 17.3337 15.229 17.3337V17.3337C13.9922 17.3334 12.783 17.6996 11.7542 18.3862L9.33057 20.0015" stroke="currentColor" stroke-width="2" stroke-linecap="round" stroke-linejoin="round"/>
<path d="M25.6944 8.9733C26.9967 10.2756 26.9967 12.387 25.6944 13.6893C24.3921 14.9916 22.2807 14.9916 20.9784 13.6893C19.6761 12.387 19.6761 10.2756 20.9784 8.9733C21.6038 8.34792 22.452 7.99658 23.3364 7.99658C24.2209 7.99658 25.0691 8.34792 25.6944 8.9733" stroke="currentcolor" stroke-width="2" stroke-linecap="round" stroke-linejoin="round"/>
<path fill-rule="evenodd" clip-rule="evenodd" d="M8.89247 7.7101C8.31395 7.13158 8.31395 6.19362 8.89247 5.6151L11.6176 2.88994C12.1961 2.31142 13.1341 2.31142 13.7126 2.88994L16.4378 5.6151C17.0163 6.19361 17.0163 7.13158 16.4378 7.7101L13.7126 10.4353C13.1341 11.0138 12.1961 11.0138 11.6176 10.4353L8.89247 7.7101Z" stroke="currentColor" stroke-width="2" stroke-linecap="round" stroke-linejoin="round"/>
</svg>
