<svg width="28" height="28" viewBox="0 0 28 28" fill="none" xmlns="http://www.w3.org/2000/svg">
<path fill-rule="evenodd" clip-rule="evenodd" d="M8.94271 11.6653H19.0584C19.5743 11.6652 20.069 11.4602 20.4337 11.0953C20.7983 10.7304 21.0031 10.2356 21.0029 9.7197V4.27377C21.0029 3.75771 20.7981 3.26275 20.4332 2.89784C20.0683 2.53293 19.5733 2.32799 19.0573 2.32813H8.94155C8.42567 2.32823 7.93097 2.53329 7.5663 2.89818C7.20163 3.26307 6.99687 3.75789 6.99707 4.27377V9.72087C6.99707 10.2367 7.20224 10.7314 7.56713 11.0961C7.93202 11.4608 8.42684 11.6655 8.94271 11.6653Z" stroke="#BE3D3D" stroke-width="1.5" stroke-linecap="round"/>
<path d="M19.7829 23.2324H18.6731C18.3713 23.2322 18.0731 23.2969 17.7986 23.4223L13.3608 25.4434" stroke="#BE3D3D" stroke-width="1.5" stroke-linecap="round"/>
<path d="M24.5043 16.4373H21.5864C20.6195 16.4373 19.8357 17.2211 19.8357 18.188V22.8566C19.8357 23.8235 20.6195 24.6073 21.5864 24.6073H24.5043" stroke="#BE3D3D" stroke-width="1.5" stroke-linecap="round"/>
<path d="M3.49561 24.6073H6.41349C7.38039 24.6073 8.16422 23.8235 8.16422 22.8566V18.188C8.16422 17.2211 7.38039 16.4373 6.41349 16.4373H3.49561" stroke="#BE3D3D" stroke-width="1.5" stroke-linecap="round"/>
<path d="M20.3088 16.9367L16.694 15.3455C16.0439 15.0593 15.2934 15.1196 14.6972 15.5058L11.944 17.2896C11.5303 17.5577 11.2645 18.0028 11.2246 18.4942C11.1848 18.9856 11.3753 19.4677 11.7404 19.7991V19.7991C12.2144 20.2282 12.8993 20.3317 13.4789 20.0617L15.1202 19.2949L16.2739 20.342C16.6111 20.6481 16.8129 21.0755 16.835 21.5303C16.857 21.9851 16.6974 22.4301 16.3914 22.7673C16.3557 22.8065 16.3183 22.8441 16.2792 22.8799L13.8343 25.1177C13.0307 25.8531 11.7994 25.8559 10.9925 25.1241L9.52276 23.791C9.16095 23.4699 8.70609 23.2725 8.22437 23.2277" stroke="#BE3D3D" stroke-width="1.5" stroke-linecap="round"/>
<path d="M8.18774 17.6671L10.7363 16.7485C11.3224 16.543 11.9695 16.6079 12.5032 16.9258" stroke="#BE3D3D" stroke-width="1.5" stroke-linecap="round"/>
<path d="M15.2382 5.75808C15.9221 6.442 15.9221 7.55086 15.2382 8.23478C14.5543 8.9187 13.4454 8.9187 12.7615 8.23478C12.0776 7.55086 12.0776 6.442 12.7615 5.75808C13.0899 5.42964 13.5353 5.24512 13.9998 5.24512C14.4643 5.24512 14.9098 5.42964 15.2382 5.75808" stroke="#BE3D3D" stroke-width="1.5" stroke-linecap="round"/>
</svg>
