<svg width="32" height="32" viewBox="0 0 32 32" fill="none" xmlns="http://www.w3.org/2000/svg">
<path fill-rule="evenodd" clip-rule="evenodd" d="M9.22238 21.1098C6.88782 21.1105 4.99547 23.003 4.99487 25.3376C4.99473 25.8899 4.5469 26.3375 3.99462 26.3373C3.44233 26.3372 2.99473 25.8893 2.99487 25.3371C2.99575 21.8982 5.78327 19.1107 9.22213 19.1098H14.4499C17.8887 19.1107 20.6765 21.8982 20.6774 25.3371L18.6774 25.3376C18.6768 23.003 16.7845 21.1105 14.4499 21.1098M14.4499 21.1098H9.22238H14.4499Z" fill="currentColor"/>
<path fill-rule="evenodd" clip-rule="evenodd" d="M11.8355 7.99634C9.99352 7.99634 8.50033 9.48953 8.50033 11.3315C8.50033 13.1734 9.99352 14.6666 11.8355 14.6666C13.6774 14.6666 15.1706 13.1734 15.1706 11.3315C15.1706 9.48953 13.6774 7.99634 11.8355 7.99634ZM6.50033 11.3315C6.50033 8.38496 8.88896 5.99634 11.8355 5.99634C14.782 5.99634 17.1706 8.38496 17.1706 11.3315C17.1706 14.278 14.782 16.6666 11.8355 16.6666C8.88896 16.6666 6.50033 14.278 6.50033 11.3315Z" fill="currentColor"/>
<path fill-rule="evenodd" clip-rule="evenodd" d="M24.7461 15.8133C24.3556 16.2038 23.7224 16.2038 23.3319 15.8133C20.6098 13.0912 20.6098 8.67772 23.3319 5.95558C23.7224 5.56505 24.3556 5.56505 24.7461 5.95557C25.1366 6.3461 25.1366 6.97926 24.7461 7.36979C22.805 9.31088 22.805 12.458 24.7461 14.3991C25.1366 14.7896 25.1366 15.4228 24.7461 15.8133Z" fill="currentColor"/>
<path fill-rule="evenodd" clip-rule="evenodd" d="M28.7117 13.7018C28.3212 14.0923 27.6881 14.0923 27.2975 13.7018C25.7412 12.1454 25.7412 9.62212 27.2975 8.06579C27.6881 7.67527 28.3212 7.67526 28.7117 8.06579C29.1023 8.45631 29.1023 9.08947 28.7117 9.48C27.9365 10.2553 27.9365 11.5123 28.7117 12.2875C29.1023 12.6781 29.1023 13.3112 28.7117 13.7018Z" fill="currentColor"/>
</svg>
