<?xml version="1.0" encoding="utf-8"?><svg xmlns="http://www.w3.org/2000/svg" xmlns:xlink="http://www.w3.org/1999/xlink"><symbol fill="none" viewBox="0 0 23 16" id="back-icon" xmlns="http://www.w3.org/2000/svg"><path d="M6.88 1.023L1 6.963m0 0l5.88 6.363M1 6.963h14.7c2.1 0 6.3.933 6.3 8.06" stroke="#333"/></symbol><symbol fill="none" viewBox="0 0 18 18" id="date-icon" xmlns="http://www.w3.org/2000/svg"><path d="M5.697 2.394v2.202M12.303 2.394v2.202M2.394 7.165h13.212M2.394 6.137a2.642 2.642 0 012.642-2.642h7.928a2.642 2.642 0 012.642 2.642v6.827a2.642 2.642 0 01-2.642 2.642H5.036a2.642 2.642 0 01-2.642-2.642V6.137z" stroke="#BE3D3D" stroke-width="1.5"/></symbol><symbol fill="none" viewBox="0 0 86 86" id="link-icon" xmlns="http://www.w3.org/2000/svg"><g clip-path="url(#acclip0_67_563)"><path d="M15.33 86l48.925-48.925v39.031H86V0H9.894v21.745h39.031L0 70.67 15.33 86z" fill="currentColor" stroke="#000" stroke-opacity=".25"/></g><defs><clipPath id="acclip0_67_563"><path fill="#fff" d="M0 0h86v86H0z"/></clipPath></defs></symbol><symbol fill="none" viewBox="0 0 18 18" id="location-icon" xmlns="http://www.w3.org/2000/svg"><path d="M14 7.5c0 4.761-5 9-5 9s-5-4.239-5-9a5 5 0 0110 0z" stroke="#BE3D3D" stroke-width="1.5"/><circle cx="9" cy="7.5" r="1" fill="#BE3D3D"/></symbol><symbol fill="none" viewBox="0 0 106 15" id="logo" xmlns="http://www.w3.org/2000/svg"><path fill-rule="evenodd" clip-rule="evenodd" d="M0 .005h11.91l-.38 3.821-4.402-.602V6.05h4.184l-.265 2.679H7.125v6.26H0V.005zm32.095 8.733h2.753l-1.039-3.34 7.013.71 3.088 8.277 1.11-7.854 19.881 2.011.886 5.976 2.05-5.679 17.16 1.736 1.4 3.765 2.314-3.389 6.705.678L93.832 15H79.41l-.781-2.513h-5.105L72.727 15H59.15l-.907-5.547-1.653 5.541h-3.489L51.45 9.447l-.907 5.547H36.79l-.78-2.513h-5.1l-.8 2.513H13.422V3.336l7.294.738v6.59h3.916l2.189-5.973 6.36.642-1.08 3.405h-.006zM33.59 4.69l-.105-.334-.1.318-6.357-.564.404-1.103 12.546.826.545 1.47-6.933-.615v.002zm-5.969-2.202l.354-.963 11.274.37.46 1.233-12.088-.636v-.004zm.55-1.501l.359-.981h10.016l.452 1.21L28.17.986zM13.42 2.902v-.818l7.296.482v.983l-7.295-.646v-.001zm0-1.162v-.696l7.296.24v.843l-7.295-.384V1.74zm0-1.066v-.67h7.296v.824L13.421.674zm31.715 5.04l.216-1.53 9.17.603.347 1.271.306-1.228 9.268.61.296 2.011-19.61-1.738h.007zm.324-2.288l.187-1.324 8.216.27.411 1.52-8.818-.466h.004zm.292-2.068l.191-1.353h7.273l.415 1.52-7.879-.167zm9.642 2.592l.38-1.518 8.268.27.253 1.716-8.899-.468h-.002zm.59-2.38l.391-1.565h7.26l.254 1.736-7.905-.171zm12.238 6.188l.728-2.02 6.578.432-.693 2.178-6.613-.586v-.004zm1.107-3.075l.649-1.789 12.316.404.782 2.105-6.758-.355-.217-.697-.214.674-6.558-.342zm1.012-2.805l.682-1.873h10.045l.786 2.116-11.513-.24v-.003zm13.21 4.816l.932 2.505-7.071-.622-.724-2.33 6.869.452-.005-.005zm6.038 2.958l1.677-2.445 9.801.644 2.078 3.01-13.551-1.204-.005-.005zm.845-3.862l-1.805-2.288 7.044.235.37.737.334-.713 6.334.207-1.836 2.377-10.436-.55-.005-.005zm-2.805-3.552L85.867.005h7.93L95 2.398l-7.366-.155-.005-.005zm9.362.199L98.13 0h7.636l-1.984 2.585-6.785-.143-.006-.005zm7.305 10.089L106 14.994h-7.7l-1.733-3.25 7.73.78-.001.002z" fill="currentColor"/></symbol><symbol fill="none" viewBox="0 0 65 18" id="mark-weber" xmlns="http://www.w3.org/2000/svg"><path fill-rule="evenodd" clip-rule="evenodd" d="M34.938 4.637c.156.17 1.562 4.215 1.71 4.714.146.535.352 1.048.615 1.528.487.12.533-.41.68-.829.8-2.267 2.013-5.573 2.619-7.8.423-1.08.46-1.369-.303-1.369s-.68.54-.984 1.239c-.266 1.328-1.295 4.135-1.672 5.423 0 .17 0 .17-.193.17-.634-1.918-1.37-4.265-2.086-6.163-.193-.37-.533-.45-.763.38-.386 1.318-.919 2.886-1.332 4.165 0 0-.496 1.618-.533 1.698a5.24 5.24 0 01-.57-1.488c-.57-1.529-1.066-3.177-1.553-4.705-.12-.29-.12-.46-.386-.629a1.47 1.47 0 00-.836-.08c-.754.13-.267.79-.11 1.279.919 2.686 1.939 5.913 2.959 8.47a.387.387 0 00.112.16.333.333 0 00.356.052.364.364 0 00.147-.123c.147-.31 2.013-6.092 2.123-6.092zM.167 1.048a.853.853 0 00.037.499c.156.7-.303 8.67-.184 8.99.372.181.79.223 1.185.12.184-.21.11-.41.11-.74 0-1.408.111-2.767.111-4.215.046-.54.083-.909.083-1.238 0-.33 0-.29.073-.37.074-.08 1.278 2.197 1.397 2.447.23.49.68 1.239.983 1.818.46.909.69.29.8.08.266-.37 2.325-4.295 2.472-4.375.138.16.138 4.085.138 4.375 0 2.147-.23 2.357 1.02 2.267.386 0 .422-.33.386-.699V7.82a102.927 102.927 0 01-.175-5.574c0-.21.073-.999.073-1.118a.73.73 0 00-.432-.261.693.693 0 00-.486.09c-.267.17-.34.54-.533.79-.772 1.488-1.81 3.176-2.537 4.584-.266.5-.266.33-.496 0-.496-.789-1.14-2.147-1.59-2.936l-.919-1.648a3.45 3.45 0 00-.487-.79C.94.759.434.918.167 1.048zM48.658 5.674a2.461 2.461 0 011.123-.572 2.35 2.35 0 011.239.073c1.213.58 1.369 2.527.836 3.476-.227.37-.554.654-.936.813-.382.16-.8.186-1.196.076a2.648 2.648 0 01-1.066-.5V5.674zm0-1.408a31.05 31.05 0 010-3.266c0-.45-.147-.53-.533-.37-.919.42-.919.25-.79 1.159.073.46 0 5.783 0 6.532 0 1.479-.193 1.818 1.782 2.438a3.93 3.93 0 001.707.01 4.087 4.087 0 001.574-.72c1.939-1.728 1.406-6.602-2.132-6.232a6.542 6.542 0 00-.919.12c-.12.04-.57.33-.625.33h-.064zM21.861 10.628c.144-.52.184-1.069.12-1.608a12.794 12.794 0 010-1.698c.11 0 .23.21.459.46.23.25 2.123 2.397 2.426 2.636a.903.903 0 00.372.23c.14.043.285.05.428.02.266 0 .689 0 .836-.2 0-.29-.533-.749-.763-.998-.23-.25-.524-.57-.79-.91a17.007 17.007 0 01-1.636-1.807c0-.09 2.086-1.998 2.472-2.357.147-.17.303-.21.266-.46a2.275 2.275 0 00-1.451 0c-.184.09-1.443 1.329-1.783 1.658-.11.12-.763.87-.837.83-.11-.38 0-5.544-.073-5.834-.073-.29-1.37.17-1.332.67.072.35.109.708.11 1.068V9.47c0 .25-.074.998.082 1.118.358.1.731.113 1.094.04zM11.964 7.242c.422-.12 1.838.25 1.902.66.037.441.037.886 0 1.328-.267.37-2.095 1.108-2.702-.21a1.501 1.501 0 010-1.199c.088-.152.205-.282.343-.382.138-.1.293-.167.457-.197zm1.939-.5a3.187 3.187 0 00-1.177-.529 4.019 4.019 0 00-1.562.12 2.09 2.09 0 00-1.08.798 2.395 2.395 0 00-.431 1.34c-.008.485.127.96.386 1.356.259.396.627.69 1.052.841.727.27 1.515.27 2.242 0 .156-.08.46-.29.57-.33.11-.04.156.29.303.37.147.08.836 0 1.03-.2.192-.2.229-.17.11-.46a2.227 2.227 0 01-.184-1.238V5.834a1.867 1.867 0 00-.267-1.199c-.726-1.568-5.1-.949-4.75.38.348 1.328.918-.46 2.848-.21 1.038.12.928 1.199.928 1.938h-.018zM58.886 6.544h-3.152a1.84 1.84 0 01.487-1.08 1.766 1.766 0 011.066-.489 1.42 1.42 0 01.608.08c.196.07.377.182.532.33.156.14.279.317.358.519.08.201.115.42.101.64zm-3.235 1.068c.23-.12 3.676 0 4.301 0s.34-2.227-.8-3.136a2.873 2.873 0 00-3.271-.28 3.209 3.209 0 00-1.232 1.285 3.578 3.578 0 00-.413 1.802c-.022.612.11 1.22.38 1.758s.67.987 1.155 1.298c1.02.75 3.758.71 4.098-.45.423-1.488-.57-.659-.919-.499-.293.131-.603.215-.919.25-2.03.25-2.527-1.698-2.38-2.028zM41.86 6.544c.031-.427.21-.825.5-1.115.288-.29.668-.452 1.061-.453.79-.09 1.71.659 1.553 1.568H41.86zm-.157.999h4.264c.496 0 .413-.33.377-.74a3.402 3.402 0 00-.462-1.56 3.059 3.059 0 00-1.11-1.108 2.758 2.758 0 00-1.469-.368c-.51.018-1.008.18-1.444.47-.49.314-.89.77-1.158 1.316a3.61 3.61 0 00-.358 1.78 3.35 3.35 0 00.363 1.751 3 3 0 001.19 1.245c1.296.87 3.841.5 4.07-.49 0-.289.184-.998-.229-.828-.5.307-1.043.52-1.608.63a2.12 2.12 0 01-.9-.065 2.23 2.23 0 01-.81-.435c-.33-.29-.863-1.159-.716-1.598zM62.342 10.668c.23-.25.193-.37.193-.739V8.93c0-1.318-.23-3.505 1.176-3.835.304-.08.377.2.763.12.228-.222.399-.504.496-.82 0-.629-.919-.748-1.755-.339-.266.13-.487.58-.68.62 0-.37.074-.53-.156-.86-.295.031-.58.13-.836.29-.377.2-.45.2-.377.7.073.499 0 3.925 0 4.744.037 1.248.037 1.208 1.176 1.118zM17.534 10.627v-.08c.107-1.015.134-2.037.083-3.057 0-.789.183-2.067.983-2.317.643-.25.68.41 1.103 0 .983-1.119-.34-1.568-1.14-1.199-.8.37-.69.66-.919.74a2.165 2.165 0 010-.49c0-.21-.082-.21-.156-.33a1.495 1.495 0 00-.836.25c-.377.16-.497.2-.377.7.08.765.105 1.537.074 2.307v2.277c.082 1.239-.074 1.329 1.185 1.199z" fill="#2A2626"/><path fill-rule="evenodd" clip-rule="evenodd" d="M34.674 11.957a19.35 19.35 0 00-4.448 1.149c-.45.21-.919.33-1.369.54-.919.369-1.783.698-2.692 1.078-.304.12-2.472.82-2.849.909-1.838.49-4.595 1.069-6.35.2-.836-.45-.919.949.983 1.448a7.164 7.164 0 003.345-.16c.92-.21 2.022-.579 2.895-.869.873-.29 1.902-.619 2.849-.909.23-.09.413-.17.68-.25l1.406-.459c.266-.08.46-.2.689-.29l1.452-.369c.266-.08.46-.16.689-.25a25.445 25.445 0 015.854-.659c.487 0 1.213.13 1.709.21.919.12.717-.41.11-.75a8.947 8.947 0 00-4.953-.569z" fill="#F9CC46"/></symbol><symbol fill="none" viewBox="0 0 20 20" id="mic-icon" xmlns="http://www.w3.org/2000/svg"><path d="M8.513 7.622a.75.75 0 10.474 1.423l-.474-1.423zm.433.646l-.237-.712.237.712zm2.108 0l-.237.711.237-.711zm-.041.777a.75.75 0 00.474-1.423l-.474 1.423zm6.404-.712a.75.75 0 00-1.5 0h1.5zm-13.334 0a.75.75 0 10-1.5 0h1.5zm4.068 9.273a.75.75 0 10.364 1.455l-.364-1.455zm.838.563l-.182-.727.182.727zm2.021 0l.182-.727-.181.727zm.475.892a.75.75 0 00.364-1.455l-.364 1.455zM12.583 5v3.333h1.5V5h-1.5zM7.417 8.333V5h-1.5v3.333h1.5zM10 10.917a2.583 2.583 0 01-2.583-2.584h-1.5A4.083 4.083 0 0010 12.417v-1.5zm2.583-2.584A2.583 2.583 0 0110 10.917v1.5a4.083 4.083 0 004.083-4.084h-1.5zM10 2.417A2.583 2.583 0 0112.583 5h1.5A4.083 4.083 0 0010 .917v1.5zm0-1.5A4.083 4.083 0 005.917 5h1.5A2.583 2.583 0 0110 2.417v-1.5zM8.987 9.045l.196-.066-.474-1.423-.196.066.474 1.423zm1.83-.066l.196.066.474-1.423-.196-.066-.474 1.423zm-1.634 0a2.583 2.583 0 011.634 0l.474-1.423a4.083 4.083 0 00-2.582 0l.474 1.423zm6.734-.646A5.917 5.917 0 0110 14.25v1.5a7.417 7.417 0 007.417-7.417h-1.5zM10 14.25a5.917 5.917 0 01-5.917-5.917h-1.5A7.417 7.417 0 0010 15.75v-1.5zm-.75 1.583V17.5h1.5v-1.667h-1.5zm-.735 3.228l.656-.164-.364-1.455-.656.164.364 1.455zm2.314-.164l.656.164.364-1.455-.657-.164-.363 1.455zm-.08-3.064V15h-1.5v.833h1.5zm-1.578 3.064c.272-.068.55-.102.829-.102v-1.5c-.4 0-.801.049-1.193.147l.364 1.455zm.829-.102c.278 0 .556.034.829.102l.363-1.455A4.915 4.915 0 0010 17.295v1.5zM9.25 17.5v.545h1.5V17.5h-1.5z" fill="#BE3D3D"/></symbol><symbol fill="none" viewBox="0 0 139 57" id="partners-1" xmlns="http://www.w3.org/2000/svg"><g clip-path="url(#ahclip0_67_766)" fill="#333"><path fill-rule="evenodd" clip-rule="evenodd" d="M136.042.423c-.593 0-1.167.214-1.625.603-.457.389-.77.93-.886 1.53-.115.602-.024 1.225.255 1.765.28.54.733.963 1.28 1.197a2.485 2.485 0 001.724.086 2.571 2.571 0 001.386-1.063 2.719 2.719 0 00-.319-3.343 2.571 2.571 0 00-.833-.575 2.491 2.491 0 00-.982-.2zm-2.118.475a2.9 2.9 0 013.755-.382c.572.395.994.983 1.193 1.663.2.68.165 1.412-.098 2.069a3.042 3.042 0 01-1.346 1.533 2.89 2.89 0 01-1.982.304 2.96 2.96 0 01-1.719-1.065 3.14 3.14 0 01-.674-1.95 3.132 3.132 0 01.871-2.172z"/><path fill-rule="evenodd" clip-rule="evenodd" d="M134.565 4.833V1.13h1.598c.247-.01.493.023.729.1a.804.804 0 01.396.337c.1.169.153.363.151.56a.953.953 0 01-.248.67c-.21.2-.48.321-.765.343.104.048.201.111.287.188.152.146.284.312.394.493l.623 1.013h-.605l-.442-.775a7.498 7.498 0 00-.342-.513 1.113 1.113 0 00-.242-.247.744.744 0 00-.218-.1 1.38 1.38 0 00-.266-.015h-.55v1.65h-.5zm.478-2.079h1.035c.172.008.344-.016.508-.068a.562.562 0 00.282-.225.642.642 0 00.048-.57.54.54 0 00-.139-.196.835.835 0 00-.584-.172h-1.137l-.013 1.231z"/><path d="M137.839 4.833h-.799l-.481-.778a5.054 5.054 0 00-.318-.475 1.01 1.01 0 00-.202-.213.67.67 0 00-.179-.081 1.545 1.545 0 00-.224 0h-.417v1.563h-.654v-3.72h1.607c.247-.01.494.025.729.103a.876.876 0 01.426.375c.103.176.157.379.155.584.005.26-.088.512-.26.7-.141.153-.32.261-.518.313l.061.054c.15.143.28.307.387.487l.687 1.088zm-.69-.21h.324l-.487-.793a2.33 2.33 0 00-.354-.447 1.165 1.165 0 00-.248-.157l-.303-.15.336-.05a1.08 1.08 0 00.662-.294.784.784 0 00.206-.556.928.928 0 00-.124-.475.653.653 0 00-.33-.291 1.834 1.834 0 00-.653-.088h-1.404v3.302h.248V3.06h.605c.09-.003.181.003.27.018.085.023.167.06.242.11.096.07.181.157.251.256.09.119.202.288.329.494l.43.685zm-1.068-1.75h-1.065V1.501h1.174a.886.886 0 01.605.187.63.63 0 01.206.488c0 .131-.035.26-.103.372a.628.628 0 01-.303.253 1.529 1.529 0 01-.517.072h.003zm-.862-.21h.859c.151.006.303-.015.448-.059a.438.438 0 00.212-.169.501.501 0 00.039-.441.411.411 0 00-.106-.15.696.696 0 00-.484-.134h-.971l.003.954z"/><path fill-rule="evenodd" clip-rule="evenodd" d="M22.936 19.905a11.055 11.055 0 00-4.758.966c-1.5.672-2.843 1.67-3.937 2.926-2.317 2.603-3.477 5.818-3.479 9.644-.002 3.827 1.162 7.02 3.491 9.58a11.952 11.952 0 003.957 2.86 11.617 11.617 0 004.73 1.01c1.627 0 3.236-.344 4.73-1.01a11.952 11.952 0 003.957-2.86c2.337-2.579 3.507-5.787 3.51-9.623.001-3.837-1.163-7.046-3.492-9.626a11.417 11.417 0 00-3.947-2.913 11.083 11.083 0 00-4.762-.954zm-1.637 36.283c-5.675 0-10.516-2.213-14.52-6.637C2.772 45.126.771 39.756.775 33.44c0-6.319 2-11.702 6.002-16.15 4.001-4.447 8.853-6.672 14.554-6.674 5.506 0 10.175 2.045 14.007 6.134v-4.705h9.13v42.713h-9.112v-4.661c-3.88 4.035-8.562 6.065-14.046 6.09H21.3zM89.859 36.083c-1.277 4.51-3.987 8.443-7.693 11.166-3.75 2.783-8.064 4.174-12.945 4.174-6.062 0-11.222-2.213-15.48-6.637-4.257-4.425-6.386-9.794-6.386-16.11 0-6.316 2.129-11.699 6.386-16.146C58 8.082 63.16 5.858 69.221 5.855c4.921 0 9.274 1.41 13.06 4.23 3.743 2.762 6.484 6.74 7.787 11.298H79.017a10.58 10.58 0 00-3.933-4.586 11 11 0 00-5.95-1.582c-3.278 0-6.061 1.279-8.35 3.836-2.29 2.557-3.435 5.666-3.437 9.326 0 3.886 1.176 7.139 3.527 9.756a11.453 11.453 0 003.951 2.95 11.112 11.112 0 004.78.98 9.652 9.652 0 005.364-1.62 10.699 10.699 0 003.839-4.376l11.05.016zM134.744 31.478c-1.28 4.51-3.991 8.444-7.696 11.17-3.746 2.776-8.056 4.165-12.933 4.167-6.065 0-11.224-2.21-15.48-6.63-4.255-4.421-6.383-9.792-6.383-16.113 0-6.315 2.128-11.697 6.383-16.147 4.256-4.45 9.415-6.673 15.48-6.671 4.925 0 9.278 1.409 13.06 4.227 3.744 2.762 6.485 6.74 7.787 11.3h-11.058a10.588 10.588 0 00-3.932-4.589 11.006 11.006 0 00-5.978-1.578c-3.275 0-6.058 1.278-8.35 3.835-2.291 2.558-3.436 5.664-3.436 9.32 0 3.887 1.176 7.14 3.527 9.76a11.454 11.454 0 003.957 2.95 11.115 11.115 0 004.786.976 9.686 9.686 0 005.37-1.625 10.716 10.716 0 003.827-4.352h11.069z"/><path fill-rule="evenodd" clip-rule="evenodd" d="M135.491 31.713a22.853 22.853 0 01-3.071 6.524 21.408 21.408 0 01-4.916 5.064 21.516 21.516 0 01-6.268 3.245 23.095 23.095 0 01-7.121 1.079 22.334 22.334 0 01-12.608-3.973c-3.734-2.575-6.65-6.23-8.387-10.508a25.661 25.661 0 010-18.131 23.492 23.492 0 014.955-7.64 21.728 21.728 0 017.319-5.188 21.127 21.127 0 018.715-1.731A23.162 23.162 0 01121.3 1.55a21.707 21.707 0 016.325 3.289 21.762 21.762 0 014.965 5.124 23.28 23.28 0 013.113 6.593l.302 1.044h-12.591l-.214-.453a10.838 10.838 0 00-1.58-2.467 8.93 8.93 0 00-2.069-1.785 9.214 9.214 0 00-2.541-1.094 11.696 11.696 0 00-3.004-.366 10 10 0 00-4.235.885 10.898 10.898 0 00-3.555 2.688 12.407 12.407 0 00-2.42 3.983 13.81 13.81 0 00-.805 4.786c-.021 1.73.26 3.448.829 5.074a12.482 12.482 0 002.487 4.133 10.66 10.66 0 003.694 2.76 10.35 10.35 0 004.474.91 8.917 8.917 0 002.562-.369 9.35 9.35 0 002.39-1.119 9.755 9.755 0 002.042-1.76 10.242 10.242 0 001.513-2.282l.218-.447h12.596l-.305 1.035zm-4.344 5.586a20.923 20.923 0 002.514-5.002h-9.509c-.422.787-.929 1.52-1.512 2.189a11.43 11.43 0 01-2.369 2.038 10.958 10.958 0 01-2.783 1.303 10.42 10.42 0 01-2.998.438 11.878 11.878 0 01-5.092-1.048 12.228 12.228 0 01-4.21-3.138 14.085 14.085 0 01-2.805-4.674 16.48 16.48 0 01-.935-5.627c-.018-1.83.29-3.646.908-5.361a13.912 13.912 0 012.723-4.508 12.427 12.427 0 014.059-3.064A11.513 11.513 0 01114 9.814a13.218 13.218 0 013.391.422c1.042.272 2.04.7 2.962 1.272a10.74 10.74 0 012.42 2.088 12.23 12.23 0 011.591 2.383h9.493a21.256 21.256 0 00-2.553-5.087 20.17 20.17 0 00-4.586-4.76 20.301 20.301 0 00-5.878-3.058 21.717 21.717 0 00-6.725-1.007 19.571 19.571 0 00-8.112 1.6 20.133 20.133 0 00-6.808 4.83 21.853 21.853 0 00-4.626 7.106 24.067 24.067 0 000 16.926c1.562 4.021 4.265 7.461 7.753 9.866a20.305 20.305 0 0011.793 3.61 21.556 21.556 0 006.655-1.003 20.133 20.133 0 005.824-3.01 19.874 19.874 0 004.553-4.69V37.3zM22.936 20.715c-1.532-.019-3.051.289-4.462.904a10.95 10.95 0 00-3.66 2.73 12.488 12.488 0 00-2.46 4.088 14.652 14.652 0 00-.82 5.002 14.49 14.49 0 00.82 4.97 12.382 12.382 0 002.46 4.065 10.605 10.605 0 003.661 2.717c1.396.624 2.904.93 4.424.897a10.878 10.878 0 004.472-.904 10.943 10.943 0 003.675-2.716 12.256 12.256 0 002.469-4.065 15.605 15.605 0 000-10.003 12.32 12.32 0 00-2.46-4.064 10.871 10.871 0 00-3.657-2.71 10.88 10.88 0 00-4.462-.91zm-5.083-.578a12.97 12.97 0 0110.168 0 12.443 12.443 0 014.184 3.098 13.931 13.931 0 012.78 4.611 17.197 17.197 0 010 11.133 13.93 13.93 0 01-2.792 4.608 12.59 12.59 0 01-4.2 3.095 12.4 12.4 0 01-5.081 1.028 12.248 12.248 0 01-5.056-1.038 12.444 12.444 0 01-4.174-3.095 13.917 13.917 0 01-2.777-4.595 17.123 17.123 0 010-11.107 14.022 14.022 0 012.777-4.627 12.466 12.466 0 014.184-3.11h-.013zM21.3 56.998a19.455 19.455 0 01-8.198-1.732A21.15 21.15 0 016.212 50.1a23.43 23.43 0 01-4.655-7.6 27.178 27.178 0 010-18.132 23.64 23.64 0 014.658-7.634 21.153 21.153 0 016.898-5.193A20.426 20.426 0 0121.18 9.8c2.773-.025 5.524.52 8.093 1.6a19.48 19.48 0 015.292 3.457v-3.62h10.697v44.332H34.574v-3.617a19.985 19.985 0 01-5.337 3.44 19.936 19.936 0 01-7.92 1.6l-.018.006zm-7.563-3.21a17.977 17.977 0 007.563 1.588c2.516.026 5.01-.479 7.33-1.485a18.445 18.445 0 006.16-4.365l1.34-1.39v5.826h7.563V12.856h-7.563v5.89l-1.344-1.432c-2.678-2.828-6.122-4.751-9.88-5.517a18.392 18.392 0 00-11.166 1.228 19.611 19.611 0 00-6.383 4.818 22.065 22.065 0 00-4.344 7.112 25.595 25.595 0 000 16.962 21.83 21.83 0 004.341 7.078 19.58 19.58 0 006.374 4.79l.01.002z"/><path fill-rule="evenodd" clip-rule="evenodd" d="M90.606 36.317a22.83 22.83 0 01-3.07 6.521 21.307 21.307 0 01-4.916 5.065 21.577 21.577 0 01-6.266 3.245 23.13 23.13 0 01-7.133 1.084c-6.276 0-11.62-2.292-16.034-6.877a23.251 23.251 0 01-4.958-7.606 25.67 25.67 0 010-18.15 23.463 23.463 0 014.958-7.638 21.74 21.74 0 017.32-5.184 21.136 21.136 0 018.714-1.731c2.44-.02 4.867.346 7.2 1.084a21.783 21.783 0 016.325 3.29 21.926 21.926 0 014.968 5.151 23.3 23.3 0 013.11 6.565l.302 1.047H78.532l-.217-.456a10.712 10.712 0 00-1.582-2.467 8.945 8.945 0 00-2.067-1.778 9.275 9.275 0 00-2.54-1.098 11.73 11.73 0 00-3.005-.369 9.998 9.998 0 00-4.235.888 10.887 10.887 0 00-3.53 2.701 12.257 12.257 0 00-2.42 3.983 13.752 13.752 0 00-.812 4.793 14.816 14.816 0 00.811 5.07 12.488 12.488 0 002.487 4.133 10.662 10.662 0 003.695 2.76c1.41.634 2.936.944 4.473.91a8.852 8.852 0 002.565-.372 9.326 9.326 0 002.387-1.122 9.892 9.892 0 003.555-4.04l.22-.446h12.595l-.306 1.044zM86.262 41.9a20.69 20.69 0 002.514-5.002h-9.508a11.441 11.441 0 01-3.89 4.233 10.793 10.793 0 01-2.787 1.307c-.974.294-1.983.442-2.998.44a11.876 11.876 0 01-5.092-1.047 12.24 12.24 0 01-4.21-3.138 14.15 14.15 0 01-2.808-4.674 16.52 16.52 0 01-.932-5.627 15.38 15.38 0 01.908-5.368 13.93 13.93 0 012.738-4.51 12.412 12.412 0 014.063-3.064 11.472 11.472 0 014.858-1.032c1.142-.007 2.28.136 3.388.425 1.043.272 2.042.7 2.965 1.273a10.677 10.677 0 012.42 2.088c.627.721 1.17 1.517 1.615 2.37h9.497a21.117 21.117 0 00-2.566-5.065 20.068 20.068 0 00-4.604-4.755 20.165 20.165 0 00-5.878-3.06 21.718 21.718 0 00-6.734-1.029 19.615 19.615 0 00-8.112 1.605 20.176 20.176 0 00-6.811 4.829 21.823 21.823 0 00-4.614 7.1 24.077 24.077 0 000 16.928 21.716 21.716 0 004.62 7.08c4.096 4.27 9.068 6.406 14.917 6.406 2.255.016 4.5-.323 6.655-1.007a20.043 20.043 0 005.82-3.013 19.759 19.759 0 004.554-4.69l.012-.003z"/></g><defs><clipPath id="ahclip0_67_766"><path fill="#fff" d="M0 0h139v57H0z"/></clipPath></defs></symbol><symbol fill="none" viewBox="0 0 159 28" id="partners-2" xmlns="http://www.w3.org/2000/svg"><g clip-path="url(#aiclip0_67_780)" fill="#333"><path d="M46.99 5.355h6.63v21.59h4.77V5.355h6.665V.659H46.99v4.696zM135.189 16.97c1.028-.987 1.156-2.322 1.156-3.277 0-2.026-.894-5.428-6.876-5.428h-7.531v18.68h8.436c4.464 0 7.129-2.11 7.129-5.644 0-1.944-.817-3.465-2.314-4.33zm-8.698-4.66h3.195c1.399 0 2.107.577 2.107 1.71 0 1.073-.712 1.636-2.107 1.672h-3.195v-3.381zm4.024 10.591h-4.024v-3.744h4.027c2.183 0 2.435 1.079 2.435 1.891 0 1.213-.798 1.82-2.438 1.853zM153.456 8.266v1.062c-1.302-.886-2.868-1.352-4.571-1.352-5.469 0-9.593 4.14-9.593 9.63 0 5.489 4.124 9.63 9.593 9.63 1.723 0 3.292-.454 4.571-1.318v1.028h4.552V8.266h-4.552zm0 12.333c-.959 1.4-2.688 2.265-4.535 2.265-2.88 0-4.969-2.212-4.969-5.258 0-3.048 2.089-5.259 4.969-5.259 1.847 0 3.576.865 4.535 2.265V20.6zM13.468 4.898c2.364 0 4.617.96 6.184 2.634l.21.224h.005l2.522-3.972c-.125-.116-.244-.24-.373-.35-1.775-1.564-3.93-2.551-6.35-2.922-.16-.024-.32-.048-.483-.068a15.267 15.267 0 00-1.715-.11l-.081.002C5.876.38 0 6.276 0 13.8v.002c0 7.524 5.875 13.424 13.387 13.465.026 0 .053.003.081.003a14.518 14.518 0 001.701-.11c.184-.02.367-.048.548-.076 2.406-.377 4.55-1.366 6.314-2.928.096-.081.185-.17.278-.255l-2.432-4.053h-.016l-.209.224c-1.567 1.674-3.82 2.634-6.184 2.634-4.91 0-8.613-3.828-8.613-8.904 0-5.076 3.702-8.904 8.613-8.904zM118.306 8.279h-5.652l-5.847 6.392V8.279h-4.529v18.684h4.53l-.026-5.947 1.017-1.125 6.836 7.072h6.001l-9.893-10.325 7.563-8.36zM73.75 26.943h5.118l2.68-5.718h6.346l-2.074-4.403h-2.198l3.136-6.65 2.284 4.855 2.848 6.059 2.754 5.857h5.126L86.76.025 73.75 26.943zM31.854 9.273l-8.54 17.672h5.158l5.804-12.39-1.18-2.614-1.242-2.668zM33.92 4.999l3.998 8.488-.012.009 6.328 13.45h5.124L36.335 0 33.92 4.999z"/></g><defs><clipPath id="aiclip0_67_780"><path fill="#fff" d="M0 0h158.008v27.269H0z"/></clipPath></defs></symbol><symbol fill="none" viewBox="0 0 199 60" id="partners-3" xmlns="http://www.w3.org/2000/svg"><path fill-rule="evenodd" clip-rule="evenodd" d="M48.076 35.682v13.162c-.033-4.33.017-8.783 0-13.162zM48.101 35.682H60.64v13.162h-4.035v-9.932h-4.46v9.932h-4.043V35.682zM97.624 35.682h12.305v3.263h-4.151v9.899h-4.044v-9.899h-4.152l.042-3.263zM111.781 35.682h10.852v2.814h-6.792v2.09h6.311v2.705h-6.311v2.597h7v2.964h-11.06v-13.17zM139.324 35.682h4.035v4.587c1.42.041 3.023.041 4.443 0v-4.587h4.068v13.162h-4.043v-5.295c-1.42-.058-2.956 0-4.41 0-.066 1.723 0 3.555 0 5.32h-4.035l-.058-13.187zM128.595 35.682c.773 1.357 1.537 2.706 2.325 4.03a262.677 262.677 0 002.251-4.03h4.434c-1.354 2.123-2.724 4.23-4.069 6.36 1.445 2.307 2.989 4.505 4.442 6.802h-3.387a4.896 4.896 0 01-1.105 0c-.191-.066-.565-.832-.689-1.032-.656-1.066-1.312-2.114-1.926-3.18-.939 1.349-1.736 2.839-2.641 4.212h-4.484c0-.108.116-.25.208-.39 1.353-2.14 2.881-4.322 4.251-6.47-1.353-2.106-2.723-4.162-4.094-6.269 1.462-.066 3.006-.016 4.484-.033zM70.072 35.473a6.748 6.748 0 014.468 1.615c.084.11.181.207.29.292a6.553 6.553 0 011.586 4.162V42.525c-.058.058 0 .241 0 .341a6.671 6.671 0 01-1.536 4.238 5.08 5.08 0 00-.423.424 6.574 6.574 0 01-4.352 1.54h-.689c-4.243-.133-6.385-2.372-6.576-6.568v-.666c.058 0 0-.184 0-.267.332-3.804 2.416-5.827 6.31-6.086l.922-.008zm2.3 6.352c0-1.515-.481-2.497-1.453-3.013a3.1 3.1 0 00-1.66-.267c-1.661.175-2.384 1.599-2.375 3.33a2.245 2.245 0 000 .833c.05 1.906.73 3.188 2.557 3.33a.57.57 0 00.374 0c1.926-.1 2.49-1.54 2.49-3.547.068-.215.09-.441.067-.666zM78.949 35.607c1.303.05 2.632.2 3.321.766a5.132 5.132 0 011.163 2.09c.324.832.59 2.197 1.66 2.28.067-1.664 0-3.38 0-5.061h4.036v5.062c1.013-.092 1.304-1.216 1.61-2.015a5.675 5.675 0 011.246-2.356c.764-.633 1.977-.691 3.322-.766h1.278v2.78c-3.022-.382-2.183 3.106-4.25 3.68.458.19.887.449 1.27.766.075.101.165.19.265.267 1.304 1.665 2.11 3.813 3.114 5.77h-4.459c-.548-1.141-1.146-2.54-1.769-3.789-.323-.65-.597-1.399-1.536-1.424-.058 1.666 0 3.48 0 5.212h-4.035v-5.236h-.216c-.78.066-1.071.774-1.37 1.398-.59 1.216-1.22 2.648-1.769 3.788h-4.583c.614-1.232 1.228-2.58 1.868-3.838.64-1.257 1.378-2.497 2.773-2.939a5.926 5.926 0 00-.581-.316c-1.055-.74-1.005-2.556-2.11-3.155a3.263 3.263 0 00-1.535-.233v-2.756h.83c.108.058.316.008.457.025zM181.365 38.362c-3.023-.383-2.168 3.122-4.252 3.68 1.661.6 2.392 2.181 3.172 3.755.515 1.04 1.055 2.08 1.478 3.047h-4.542c-.548-1.158-1.162-2.548-1.768-3.813-.283-.591-.582-1.29-1.346-1.374 0-.058-.132 0-.191 0-.058 1.665 0 3.48 0 5.212h-4.043V35.68h4.043v5.062c.939-.075 1.221-1.032 1.512-1.748.39-.99.681-2.215 1.527-2.756a6.698 6.698 0 013.148-.633H180.941c.133 0 .341-.041.424 0v2.756zM158.447 42.916c1.66-2.414 3.263-4.837 4.907-7.234h3.778v13.162h-3.803v-7.218h-.05c-1.66 2.398-3.23 4.812-4.891 7.176h-3.803v-13.12h3.803v7.26c.05 0 .059-.01.059-.026zM31.693 16.868c1.453 3.263 2.84 6.577 3.122 11.014v1.723c-.066 0 0 .2 0 .292a10.446 10.446 0 01-.83 4.02c-.117.185-.214.38-.29.584a13.31 13.31 0 01-.715 1.215.625.625 0 00-.19.267 5.626 5.626 0 01-.366.507.433.433 0 00-.183.233s-.05.109-.108.134c-.3.307-.577.635-.83.982-.175.217-.349.433-.532.633-.34.37-.659.758-.954 1.165 0 0-.042.108-.1.133-.168.164-.31.352-.424.558-.123.19-.256.373-.398.55-.15.165-.274.353-.366.557a14.862 14.862 0 00-1.984 4.238 3.102 3.102 0 01-.581-.45 19.428 19.428 0 01-2.749-2.913 1.076 1.076 0 01-.182-.267 1.042 1.042 0 00-.208-.316 14.595 14.595 0 01-2.275-7.385v-1.565c.177-1.997.74-3.94 1.66-5.72.203-.358.386-.728.549-1.106.514-.983 1.046-1.94 1.66-2.84a.666.666 0 00.191-.29s0-.067.05-.076c.104-.108.186-.235.24-.374.093-.166.199-.325.316-.475.12-.124.219-.268.291-.424 0 0 0-.075.05-.075a.625.625 0 00.19-.267.59.59 0 01.125-.183c.113-.106.203-.233.266-.374.063-.104.135-.202.216-.292.25-.374.548-.708.789-1.082a.66.66 0 01.133-.192.525.525 0 00.182-.258c.291-.458.59-.899.83-1.382.127-.169.225-.357.291-.558.535-1.196.85-2.48.93-3.788.083.05.083.184.183.217.388.577.74 1.178 1.055 1.798a.425.425 0 00.132.242c0 .05 0 .091.05.108a.909.909 0 00.191.341c.125.308.282.583.424.874.03.099.08.19.15.267z" fill="#333"/><path fill-rule="evenodd" clip-rule="evenodd" d="M32.939 17.709c-.2-.358-.34-.783-.532-1.166 0-.067-.1-.117 0-.158h11.335v32.019H11.839v-32.02h14.025a15.626 15.626 0 011.976 0s.05 0 .058.059c-.111.162-.2.339-.265.524a5.744 5.744 0 01-.424.742H13.16v29.304c9.69.05 19.564.05 29.262 0V17.71H32.94z" fill="#333" stroke="#333" stroke-miterlimit="10"/><path fill-rule="evenodd" clip-rule="evenodd" d="M39.307 27.616a18.93 18.93 0 011.736 7.202v.982c-.066.092 0 .308 0 .45a9.529 9.529 0 01-1.163 4.687 1.04 1.04 0 00-.207.316.74.74 0 01-.133.183c-.443.543-.92 1.058-1.428 1.54-.05.059-.125.1-.183.159-.332.233-.648.474-.98.716-1.444.907-3.711 1.174-5.546 1.748-.59.183-1.121.475-1.661.633a4.175 4.175 0 010-1.407c.058-.059 0-.233 0-.342.05-.378.168-.745.349-1.082.12-.206.225-.42.315-.641.155-.31.33-.611.523-.9a.666.666 0 00.191-.29s0-.075.05-.075c.168-.2.318-.415.448-.641a.315.315 0 01.084-.1c.458-.488.888-1.002 1.287-1.54 0-.05.074-.092.108-.134a.973.973 0 00.265-.341c.175-.241.34-.483.523-.716a.566.566 0 00.191-.266c.068-.12.146-.235.233-.342.191-.216.353-.457.481-.716.399-.65.83-1.298 1.155-1.99.124-.167.222-.352.29-.549a8.435 8.435 0 00.93-3.921c.058-.108 0-.325 0-.475v-.899-.958-.266a36.317 36.317 0 00-.448-3.754 9.14 9.14 0 011.104 1.165.982.982 0 01.158.208.566.566 0 00.19.267c.044.046.077.1.1.158a.716.716 0 00.192.291c.143.223.273.454.39.691a.9.9 0 00.182.342c0 .133.117.224.158.341.02.096.06.187.116.266zM16.938 31.512a13.302 13.302 0 011.818-1.807 22.083 22.083 0 00-.664 4.745c-.058.059 0 .234 0 .342V36.04c.006 1.753.32 3.492.93 5.136.07.23.176.446.316.641.083.15.19.283.265.45a.941.941 0 00.266.391l.29.4c.236.353.515.675.83.957.574.612 1.202 1.17 1.877 1.665.15.1.291.208.424.317.076.096.177.17.29.216.125.067.225.158.341.233 0 .067-.166 0-.232 0h-.158c-.042-.067-.191 0-.266 0a9.985 9.985 0 01-4.152-1.082.431.431 0 00-.232-.133c-.216-.1-.42-.226-.606-.375a10.33 10.33 0 01-1.96-1.848 1.43 1.43 0 01-.207-.292.833.833 0 00-.216-.316 2.754 2.754 0 01-.266-.458.425.425 0 00-.125-.233 8.458 8.458 0 01-.955-3.28v-.667c.059-.049 0-.215 0-.316a9.443 9.443 0 01.98-3.654c.09-.131.16-.274.208-.425.14-.287.298-.565.473-.832a.968.968 0 00.216-.325c.153-.246.326-.48.515-.7zM186.853 35.682h4.434c1.628 4.39 3.266 8.769 4.916 13.137-1.37.058-2.848 0-4.251 0-.191-.75-.441-1.432-.64-2.173h-4.592c-.257.691-.448 1.44-.664 2.173h-4.152c1.678-4.346 3.289-8.758 4.949-13.137zm3.587 8.133c-.465-1.59-.921-3.188-1.453-4.712-.44 1.59-.955 3.114-1.395 4.712.922.042 1.968.042 2.857 0h-.009z" fill="#333"/><path d="M97.324 23.137v1.482h-3.022v6.51h-1.794v-7.992h4.816zM97.34 27.273c0-.758 0-1.399-.049-1.948h1.544l.084.832a2.252 2.252 0 011.926-.932c1.27 0 2.408 1.099 2.408 2.955 0 2.107-1.345 3.106-2.632 3.106a1.781 1.781 0 01-1.503-.666v2.889H97.34v-6.236zm1.794 1.365a2.75 2.75 0 000 .383 1.1 1.1 0 001.055.833c.78 0 1.245-.65 1.245-1.665 0-1.016-.415-1.665-1.22-1.665a1.145 1.145 0 00-1.08.915 1.956 1.956 0 000 .325v.874zM105.553 25.325l.831 2.864c.099.333.216.765.29 1.082h.042c.075-.325.166-.75.249-1.099l.722-2.847h1.943l-1.345 3.813c-.83 2.314-1.378 3.23-2.034 3.813a3.138 3.138 0 01-1.727.79l-.391-1.515c.273-.067.536-.17.781-.308.306-.174.564-.423.747-.724a.558.558 0 00.1-.266.758.758 0 00-.075-.292l-2.134-5.32 2.001.009zM115.775 25.326v5.828h-1.81V26.74h-1.777v4.413h-1.802v-5.828h5.389zM122.592 25.326v5.828h-1.81V26.74h-1.777v4.413h-1.794v-5.828h5.381zM128.861 29.73c-.015.468.016.937.091 1.399h-1.66l-.108-.575a2.116 2.116 0 01-1.661.708 1.77 1.77 0 01-1.316-.488 1.78 1.78 0 01-.552-1.294c0-1.507 1.345-2.214 3.396-2.214v-.075c0-.316-.166-.758-1.055-.758-.56.004-1.11.156-1.594.442l-.332-1.166a4.741 4.741 0 012.25-.524 2.245 2.245 0 012.38 1.498c.112.32.15.662.111 1l.05 2.047zm-1.744-1.34c-.946 0-1.66.224-1.66.915a.644.644 0 00.705.691 1.004 1.004 0 00.939-.665 1.323 1.323 0 000-.309l.016-.632zM134.541 23.137v3.33h.166l2.192-3.33h2.184l-2.782 3.555a2.54 2.54 0 011.827 1.923c.253.852.561 1.686.921 2.497h-1.943a11.852 11.852 0 01-.614-1.756c-.274-.9-.639-1.59-1.611-1.59h-.34v3.33h-1.777v-7.992l1.777.033zM145.46 28.163a2.924 2.924 0 01-.834 2.237 2.908 2.908 0 01-2.222.86 2.82 2.82 0 01-2.161-.824 2.848 2.848 0 01-.828-2.164 2.903 2.903 0 013.097-3.089 2.815 2.815 0 012.948 2.98zm-4.152.059c0 .999.415 1.748 1.179 1.748s1.146-.7 1.146-1.756c0-.833-.332-1.732-1.146-1.732-.814 0-1.212.882-1.212 1.74h.033zM146.739 25.326h2.3l.631 2.198c.091.341.257.94.374 1.457.108-.391.299-1.032.465-1.59l.639-2.065h2.275l.349 5.828h-1.661l-.099-2.323c0-.5-.05-1.34-.058-2.031-.225.774-.266.965-.557 1.898l-.772 2.364h-1.312l-.656-2.33c-.158-.542-.34-1.374-.473-1.924h-.05c0 .724 0 1.549-.058 2.031l-.092 2.29h-1.61l.365-5.803zM160.415 25.326v5.828h-1.794V26.74h-1.768v4.413h-1.802v-5.828h5.364zM166.684 29.73c-.013.468.02.936.1 1.398h-1.661l-.108-.574a2.115 2.115 0 01-1.661.707 1.773 1.773 0 01-1.725-1.078 1.79 1.79 0 01-.143-.703c0-1.507 1.353-2.215 3.396-2.215v-.075c0-.316-.166-.757-1.055-.757-.56.005-1.11.157-1.594.44l-.332-1.165a4.765 4.765 0 012.25-.524 2.242 2.242 0 011.876.628 2.262 2.262 0 01.657 1.87v2.047zm-1.744-1.34c-.946 0-1.661.224-1.661.915a.659.659 0 00.197.512.64.64 0 00.518.179.992.992 0 00.93-.666 1.322 1.322 0 000-.308l.016-.633zM169.905 25.326v2.148h1.827v-2.148h1.835v5.827h-1.793v-2.322h-1.827v2.297h-1.802v-5.827l1.76.025zM176.665 25.325v1.782c0 .924 0 1.582-.092 2.364h.05c.266-.666.424-1.115.656-1.665l1.129-2.497h2.201v5.827h-1.661v-1.773c0-.9 0-1.282.1-2.498h-.042a20.186 20.186 0 01-.606 1.557c-.365.833-.83 1.815-1.204 2.714h-2.192V25.31l1.661.016zM183.739 25.325v1.782c0 .924-.049 1.582-.099 2.364h.05c.274-.666.423-1.115.664-1.665l1.121-2.497h2.209v5.827h-1.703v-1.773c0-.899.05-1.282.108-2.497h-.066a24.832 24.832 0 01-.598 1.556c-.374.833-.83 1.815-1.212 2.714h-2.192V25.31l1.718.016zm.557-2.397c0 .524.207.832.539.832.333 0 .548-.333.582-.832h1.137a1.616 1.616 0 01-1.074 1.578 1.611 1.611 0 01-.67.087 1.534 1.534 0 01-1.572-1.006 1.54 1.54 0 01-.088-.66h1.146z" fill="#333"/><path d="M8.369 57.07V3.587M2.822 51.492H196.21" stroke="#333" stroke-width="2.666" stroke-miterlimit="10"/></symbol><symbol fill="none" viewBox="0 0 227 50" id="partners-4" xmlns="http://www.w3.org/2000/svg"><g clip-path="url(#akclip0_67_942)" fill="#333"><path d="M11.142 12.378L4.635 22.429H1.498l7.59-11.628L1.834.724h3.073l6.223 8.863V.71h2.762v8.863L20.088.711h3.099l-7.282 10.078 7.592 11.627h-3.099l-6.507-10.051v10.051h-2.75V12.378z"/><path d="M24.4 25.865c.375.245.865.4 1.266.4 1.148 0 1.42-1.485 1.678-2.661l.245-1.176-5.177-15.762h2.97l3.563 12.119 2.943-12.119h2.608l-4.738 17.61c-.594 2.17-1.11 4.005-3.718 4.005-.71 0-1.265-.09-1.64-.18v-2.236zM38.124 6.667v1.615h.064c.555-1.266 1.86-2.235 3.693-2.235 3.124 0 5.667 2.636 5.667 8.501 0 5.142-2.04 8.501-5.642 8.501-1.575 0-3.008-.8-3.653-1.95v7.067h-2.608V6.667h2.479zm3.408 14.444c1.795 0 3.28-1.524 3.28-6.576 0-5.607-2.17-6.576-3.409-6.576-1.55 0-3.28 1.395-3.28 6.64 0 5.996 2.609 6.512 3.41 6.512zM52.157 22.415H49.55V6.666h2.608v6.486h5.397V6.666h2.607v15.75h-2.607v-7.352h-5.397v7.351zM62.382 11.318c0-1.15.245-5.271 5.358-5.271 3.498 0 5.022 1.835 5.022 5.297v7.597c0 1.395.129 1.55.748 1.55.13 0 .284 0 .4-.038v1.95c-.283.065-.8.13-1.213.13-.775 0-1.794-.155-2.143-1.46-1.11 1.46-2.608 1.95-4.093 1.95-3.537 0-4.492-2.415-4.492-4.741 0-4.005 3.034-4.587 5.448-4.897 2.66-.374 2.724-.31 2.724-2.106 0-2.945-1.265-3.32-2.414-3.32-2.66 0-2.853 2.3-2.815 3.346h-2.53v.013zm7.785 3.437c-3.318.904-5.487.026-5.487 3.604 0 .995.129 2.765 2.104 2.765 2.698 0 3.383-2.144 3.383-5.4v-.97zM74.13 20.4c2.918.71 2.88-3.501 2.88-7.817V6.666h8.83v15.75h-2.57V8.59h-3.782v4.005c0 5.918-.439 10.943-5.358 9.794V20.4zM99.034 8.088h-2.853V4.56c0-1.615.31-4.16 2.853-4.561v1.731c-.53.181-1.175.62-1.175 2.817v.129h1.175v3.41zm3.912 0h-2.892V4.56c0-1.55.284-4.186 2.879-4.561v1.731c-1.02.375-1.175 1.37-1.175 2.817v.129h1.175v3.41h.013zM117.508.71h2.724v21.706h-2.762V5.866l-8.302 16.563h-2.698V.711h2.763v16.434L117.508.711zM138.049 15.232c-.31 3.075-1.679 7.843-7.256 7.843-5.977 0-8.082-5.556-8.082-11.137 0-2.7.246-11.874 8.031-11.874 2.943 0 6.687 1.24 7.1 7.352h-2.724c-.181-2.016-1.02-4.897-4.364-4.897-5.022 0-5.138 7.416-5.138 9.303 0 6.175 2.569 8.81 5.293 8.81 2.634 0 4.274-2.57 4.429-5.4h2.711zM149.358.71h2.853l-5.603 17.83c-1.213 3.876-2.762 4.186-4.428 4.186-.839 0-1.368-.064-2.143-.4V19.69c.8.465 1.549.53 1.833.53.93 0 1.679-.375 2.35-3.191L137.958.724h3.189l4.493 12.584L149.358.71zM155.929 22.416h-2.762V.711h13.323v21.705h-2.763V3.166h-7.811v19.25h.013zM172.867.71v4.432c0 1.641-.865 3.385-2.853 3.63v-1.64c.775-.336 1.175-1.111 1.175-2.041v-.995h-1.175V.711h2.853zm3.912 0v4.432c0 1.486-.8 3.385-2.879 3.63v-1.64c1.085-.49 1.175-1.46 1.175-2.041v-.995H173.9V.711h2.879z"/><path d="M227 27.08H24v1.9h203v-1.9zM4.054 35.89c.723 0 4.067.143 4.067 5.75 0 5.646-3.486 5.75-4.067 5.75-.646 0-4.054-.104-4.054-5.75 0-3.075 1.175-5.75 4.054-5.75zm0 10.285c1.084 0 2.633-.646 2.633-4.522 0-1.912-.49-4.522-2.633-4.522-2.117 0-2.621 2.636-2.621 4.522.013 1.731.413 4.522 2.62 4.522zM8.443 40.153v-.956h5.449v.956h-2.08v6.913h-1.29v-6.913H8.443zM15.867 39.199v.8h.026c.284-.632.93-1.11 1.846-1.11 1.562 0 2.827 1.317 2.827 4.25 0 2.571-1.02 4.251-2.814 4.251-.788 0-1.498-.4-1.82-.969v3.527h-1.305V39.212h1.24v-.013zm1.704 7.222c.904 0 1.64-.762 1.64-3.282 0-2.803-1.085-3.281-1.705-3.281-.774 0-1.64.697-1.64 3.32 0 2.972 1.292 3.243 1.705 3.243zM21.237 41.524c0-.568.13-2.635 2.685-2.635 1.743 0 2.505.917 2.505 2.648v3.799c0 .697.065.775.374.775.065 0 .142 0 .207-.013v.982c-.142.026-.4.065-.607.065-.387 0-.904-.078-1.071-.724-.555.724-1.304.969-2.04.969-1.769 0-2.246-1.215-2.246-2.364 0-2.003 1.523-2.3 2.723-2.442 1.33-.181 1.369-.155 1.369-1.06 0-1.473-.633-1.653-1.214-1.653-1.33 0-1.42 1.15-1.407 1.68h-1.278v-.027zm3.886 1.719c-1.652.452-2.737.013-2.737 1.795 0 .492.065 1.383 1.059 1.383 1.342 0 1.691-1.072 1.691-2.7v-.478h-.013zM33.18 44.263c-.014.646-.233 3.114-2.738 3.114-.748 0-3.047-.13-3.047-4.302 0-1.409.297-4.186 2.983-4.186 1.846 0 2.75 1.395 2.75 2.777h-1.253c-.026-.956-.542-1.808-1.484-1.808-.878 0-1.64.723-1.64 3.23 0 2.971 1.162 3.346 1.717 3.346.568 0 1.42-.452 1.459-2.158h1.252v-.013zM33.373 46.058c1.459.361 1.446-1.745 1.446-3.902v-2.959h4.415v7.868h-1.29v-6.912h-1.886v2.003c0 2.959-.22 5.465-2.685 4.897v-.995zM46.128 44.793c-.09 1.098-.749 2.584-2.737 2.584-3.111 0-3.163-3.501-3.163-4.212 0-2.338.762-4.276 3.086-4.276 1.368 0 2.71.646 2.866 3.876.013.232.013.452.013.684h-4.596c-.013 1.137.374 2.972 1.768 2.972 1.02 0 1.46-.917 1.51-1.628h1.253zm-1.291-2.313c-.013-2.441-1.033-2.635-1.523-2.635-1.575 0-1.73 1.938-1.718 2.635h3.241zM50.04 39.197c.749 0 2.182.155 2.182 1.938 0 1.331-.788 1.693-1.33 1.757v.09c.62.078 1.562.518 1.562 1.99 0 1.964-1.562 2.106-2.466 2.106H47.2V39.21h2.84v-.013zm-1.536 3.282H49.6c.452 0 1.252-.103 1.252-1.215 0-1.059-.774-1.11-1.213-1.11h-1.15v2.325h.014zm0 3.63h1.213c.465 0 1.382-.103 1.382-1.33 0-1.267-.917-1.331-1.42-1.331h-1.163v2.661h-.012zM56.108 38.889c.387 0 3.06.013 3.06 4.224 0 2.339-.943 4.264-3.06 4.264-2.815 0-3.073-3.114-3.073-4.264.013-1.175.258-4.224 3.073-4.224zm0 7.532c1.084 0 1.704-1.253 1.704-3.295 0-1.498-.374-3.268-1.704-3.268s-1.704 1.77-1.704 3.268c0 2.042.62 3.295 1.704 3.295zM64.344 39.198h1.407v7.868h-1.303v-5.852l-2.866 5.852h-1.408v-7.868h1.304v5.853l2.866-5.853zm-2.427-2.971c-.013.323.052 1.227 1.02 1.227.981 0 1.033-.904 1.02-1.227h1.11c-.077 1.99-1.691 2.04-2.143 2.04-.452 0-2.053-.064-2.143-2.04h1.136zM72.13 47.066h-1.305v-7.869h1.304v3.243h2.698v-3.243h1.304v7.868h-1.304v-3.669H72.13v3.67zM77.242 41.524c0-.568.129-2.635 2.685-2.635 1.743 0 2.504.917 2.504 2.648v3.799c0 .697.065.775.375.775.064 0 .142 0 .206-.013v.982c-.142.026-.4.065-.606.065-.388 0-.904-.078-1.072-.724-.555.724-1.304.969-2.04.969-1.769 0-2.246-1.215-2.246-2.364 0-2.003 1.523-2.3 2.724-2.442 1.33-.181 1.368-.155 1.368-1.06 0-1.473-.632-1.653-1.213-1.653-1.33 0-1.42 1.15-1.407 1.68h-1.278v-.027zm3.885 1.719c-1.652.452-2.736.013-2.736 1.795 0 .492.064 1.383 1.058 1.383 1.343 0 1.691-1.072 1.691-2.7v-.478h-.013zM84.007 48.784c.18.129.438.206.632.206.568 0 .71-.749.84-1.33l.128-.594-2.582-7.869h1.485l1.782 6.06 1.471-6.06h1.304l-2.362 8.799c-.297 1.085-.555 2.002-1.86 2.002-.36 0-.632-.051-.826-.09v-1.124h-.012zM90.668 39.197v2.416c0 .866-.026 1.292 1.227 1.292.245 0 .542-.026 1.032-.051v-3.657h1.304v7.868h-1.303V43.81c-.207.013-.827.064-1.253.064-2.052 0-2.31-.84-2.31-2.041v-2.636h1.303zM96.994 47.066H95.69v-7.869h1.304v3.243h2.699v-3.243h1.304v7.868h-1.304v-3.669h-2.699v3.67zM105.063 38.889c.388 0 3.06.013 3.06 4.224 0 2.339-.942 4.264-3.06 4.264-2.814 0-3.072-3.114-3.072-4.264.013-1.175.258-4.224 3.072-4.224zm0 7.532c1.085 0 1.704-1.253 1.704-3.295 0-1.498-.374-3.268-1.704-3.268-1.329 0-1.704 1.77-1.704 3.268 0 2.042.62 3.295 1.704 3.295zM109.246 42.26h3.383v1.318h-3.383V42.26zM113.468 40.153v-.956h5.448v.956h-2.079v6.913h-1.304v-6.913h-2.065zM125.087 44.793c-.09 1.098-.749 2.584-2.737 2.584-3.111 0-3.163-3.501-3.163-4.212 0-2.338.762-4.276 3.086-4.276 1.368 0 2.711.646 2.866 3.876.013.232.013.452.013.684h-4.597c-.012 1.137.375 2.972 1.769 2.972 1.02 0 1.459-.917 1.511-1.628h1.252zm-1.291-2.313c-.013-2.441-1.033-2.635-1.523-2.635-1.575 0-1.73 1.938-1.718 2.635h3.241zM129.683 39.197h1.394l-2.104 3.76 2.259 4.108h-1.394l-1.575-3.023-1.575 3.023h-1.395l2.26-4.108-2.105-3.76h1.395l1.42 2.7 1.42-2.7zM133.104 47.066H131.8v-7.869h1.304v3.243h2.698v-3.243h1.304v7.868h-1.304v-3.669h-2.698v3.67zM142.722 39.197h1.407v7.868h-1.303v-5.852l-2.867 5.852h-1.407v-7.868h1.304v5.853l2.866-5.853zM146.634 39.197v2.416c0 .866-.026 1.292 1.226 1.292.246 0 .543-.026 1.033-.051v-3.657h1.304v7.868h-1.304V43.81c-.206.013-.826.064-1.252.064-2.053 0-2.311-.84-2.311-2.041v-2.636h1.304zM157.104 44.793c-.09 1.098-.749 2.584-2.737 2.584-3.111 0-3.163-3.501-3.163-4.212 0-2.338.762-4.276 3.086-4.276 1.368 0 2.711.646 2.866 3.876.013.232.013.452.013.684h-4.596c-.013 1.137.374 2.972 1.768 2.972 1.02 0 1.459-.917 1.511-1.628h1.252zM155.8 42.48c-.013-2.441-1.033-2.635-1.523-2.635-1.575 0-1.73 1.938-1.717 2.635h3.24zM163.507 44.263c-.013.646-.232 3.114-2.737 3.114-.735 0-3.046-.13-3.046-4.302 0-1.409.297-4.186 2.982-4.186 1.846 0 2.75 1.395 2.75 2.777h-1.253c-.038-.956-.542-1.808-1.484-1.808-.878 0-1.64.723-1.64 3.23 0 2.971 1.162 3.346 1.717 3.346.568 0 1.42-.452 1.459-2.158h1.252v-.013zM168.039 39.197h1.446l-2.802 3.657 2.944 4.212h-1.446l-2.44-3.58v3.58h-1.304v-7.869h1.304v3.114l2.298-3.114zM174.352 39.197h1.407v7.868h-1.304v-5.852l-2.866 5.852h-1.407v-7.868h1.304v5.853l2.866-5.853zM181.388 39.198h1.407v7.868h-1.303v-5.852l-2.867 5.852h-1.407v-7.868h1.304v5.853l2.866-5.853zm-2.427-2.971c-.013.323.052 1.227 1.02 1.227.981 0 1.033-.904 1.02-1.227h1.11c-.077 1.99-1.691 2.04-2.13 2.04-.452 0-2.066-.064-2.143-2.04h1.123zM190.606 43.577l-2.143 3.489h-1.484l2.724-4.135-2.582-3.734h1.445l2.04 3.179v-3.179h1.304v3.179l2.04-3.179h1.446l-2.582 3.734 2.724 4.135h-1.485l-2.13-3.489v3.489h-1.304v-3.489h-.013z"/><path d="M196.287 48.784c.181.129.439.206.632.206.568 0 .71-.749.84-1.33l.129-.594-2.582-7.869h1.484l1.782 6.06 1.472-6.06h1.304l-2.376 8.799c-.297 1.085-.555 2.002-1.859 2.002-.361 0-.633-.051-.813-.09v-1.124h-.013zM203.142 39.199v.8h.026c.284-.632.929-1.11 1.846-1.11 1.562 0 2.84 1.317 2.84 4.25 0 2.571-1.02 4.251-2.814 4.251-.788 0-1.498-.4-1.821-.969v3.527h-1.303V39.212h1.226v-.013zm1.704 7.222c.904 0 1.64-.762 1.64-3.282 0-2.803-1.085-3.281-1.704-3.281-.775 0-1.64.697-1.64 3.32 0 2.972 1.304 3.243 1.704 3.243zM210.165 47.066h-1.304v-7.869h1.304v3.243h2.698v-3.243h1.304v7.868h-1.304v-3.669h-2.698v3.67zM215.278 41.524c0-.568.129-2.635 2.685-2.635 1.743 0 2.505.917 2.505 2.648v3.799c0 .697.064.775.374.775.064 0 .142 0 .206-.013v.982c-.142.026-.4.065-.606.065-.388 0-.904-.078-1.072-.724-.555.724-1.304.969-2.04.969-1.768 0-2.246-1.215-2.246-2.364 0-2.003 1.523-2.3 2.724-2.442 1.33-.181 1.369-.155 1.369-1.06 0-1.473-.633-1.653-1.214-1.653-1.33 0-1.42 1.15-1.407 1.68h-1.278v-.027zm3.886 1.719c-1.653.452-2.737.013-2.737 1.795 0 .492.064 1.383 1.045 1.383 1.343 0 1.692-1.072 1.692-2.7v-.478zM221.152 46.058c1.459.361 1.446-1.745 1.446-3.902v-2.959h4.415v7.868h-1.291v-6.912h-1.885v2.003c0 2.959-.219 5.465-2.672 4.897v-.995h-.013z"/></g><defs><clipPath id="akclip0_67_942"><path fill="#fff" d="M0 0h227v50H0z"/></clipPath></defs></symbol><symbol fill="none" viewBox="0 0 218 46" id="partners-5" xmlns="http://www.w3.org/2000/svg"><g clip-path="url(#alclip0_67_1011)" fill-rule="evenodd" clip-rule="evenodd"><path d="M62.073.577c.13 2.178.13 4.356 0 6.534-.13 2.243-.454 4.421-.908 6.663-.454 2.243-.973 4.421-1.622 6.535-.648 2.114-1.362 4.229-2.205 6.215-.843 2.05-1.687 3.972-2.66 5.83-.972 1.858-1.945 3.587-3.048 5.253s-2.14 3.14-3.243 4.485c-1.103 1.345-2.205 2.498-3.373 3.524l-.39.32-.388-.32a29.932 29.932 0 01-3.438-3.524c-1.103-1.281-2.205-2.755-3.373-4.42a68.9 68.9 0 01-3.113-5.19c-.973-1.794-1.816-3.716-2.66-5.766-.843-1.986-1.556-4.036-2.205-6.215-.648-2.114-1.167-4.356-1.621-6.599-.454-2.242-.714-4.484-.843-6.727-.13-2.242-.065-4.484.13-6.727L27.176 0h34.83l.066.577z" fill="#555"/><path d="M29.836 3.139c-.324 3.78-.13 7.56.584 11.34a53.789 53.789 0 003.243 10.827c1.427 3.46 3.049 6.599 4.995 9.482 1.88 2.883 3.891 5.317 5.967 7.304 1.88-2.05 3.697-4.55 5.578-7.496a69.845 69.845 0 004.93-9.546 59.976 59.976 0 003.307-10.828 43.827 43.827 0 00.844-11.211H29.836v.128zM27.696.576h33.728c.26 4.293 0 8.65-.908 13.07-.843 4.485-2.14 8.713-3.762 12.75-1.622 4.035-3.503 7.687-5.708 10.954-2.14 3.268-4.346 5.895-6.55 7.88-2.271-1.985-4.541-4.548-6.682-7.815-2.205-3.204-4.086-6.855-5.707-10.828-1.622-3.972-2.854-8.2-3.698-12.685-.843-4.42-1.102-8.905-.713-13.326z" fill="#555"/><path d="M57.078 32.674l-1.492-15.312-.194-2.114-.714 2.05-3.372 9.546-5.708-.064 9.405-21.334.26-.64h-.714l-20.82-.257h-.52v.512l1.233 12.942.194 1.858.714-1.73 3.243-7.56 4.735.064-9.34 21.655-.26.64h.714l22.117.257h.52v-.513zM71.932 13.71c-.714-.577-1.557-1.09-2.595-1.346-.973-.32-2.14-.448-3.438-.448-1.232 0-2.4.128-3.372.448-1.038.32-1.881.77-2.595 1.346-.713.64-1.297 1.345-1.621 2.242-.39.833-.52 1.794-.52 2.883 0 .769.066 1.474.26 2.114.195.641.454 1.282.843 1.794.39.513.779.961 1.298 1.346.454.384 1.037.705 1.621.96.584.257 1.232.385 1.946.513.713.128 1.492.192 2.335.192s1.622-.064 2.335-.192c.713-.128 1.362-.32 1.946-.64.584-.257 1.103-.641 1.557-1.026a5.848 5.848 0 001.167-1.345c.324-.512.584-1.089.714-1.73.13-.64.259-1.345.259-2.114 0-1.089-.195-2.05-.519-2.883-.389-.769-.908-1.537-1.621-2.114zm-3.568 6.663c-.13.384-.26.705-.519.96a2.335 2.335 0 01-.778.513c-.324.128-.713.193-1.167.193-.39 0-.779-.065-1.103-.193-.325-.128-.584-.256-.843-.512-.195-.192-.39-.513-.52-.897-.129-.385-.194-.897-.194-1.474 0-.576.065-1.089.195-1.473.13-.385.26-.705.519-.897.26-.256.518-.384.778-.513.324-.128.649-.192 1.103-.192.454 0 .843.064 1.167.192.324.129.584.257.843.513.195.192.39.512.52.833.129.384.194.833.194 1.41 0 .512-.065 1.088-.195 1.537zM12.843 18.002c-.584-.385-1.362-.641-2.206-.833-.843-.192-1.88-.257-3.048-.257H5.643v-1.345h7.913v-3.46H.065v13.454h8.367c.973 0 1.816-.064 2.595-.256.778-.192 1.427-.384 1.945-.769.584-.32.973-.768 1.298-1.28.26-.514.454-1.09.454-1.73 0-.77-.13-1.474-.454-2.05a3.89 3.89 0 00-1.427-1.474zm-7.2 2.434h1.881c.649 0 1.103.064 1.362.256.195.128.26.257.26.449 0 .256-.13.448-.325.577-.26.192-.713.256-1.362.256H5.643v-1.538zM23.61 20.308h7.135v-3.524H23.61V15.76h7.718v-3.652H18.097v13.518h13.426v-3.843H23.61v-1.474zM163.387 13.71c-.714-.577-1.557-1.09-2.595-1.346-.973-.32-2.14-.448-3.437-.448-1.233 0-2.335.128-3.373.448-.973.32-1.881.77-2.595 1.346-.713.64-1.297 1.345-1.621 2.242-.389.833-.519 1.794-.519 2.883 0 .769.065 1.474.259 2.114.195.641.454 1.282.843 1.794.39.513.779.961 1.298 1.346.454.384 1.037.705 1.621.96.584.257 1.233.385 1.946.513.714.128 1.492.192 2.4.192.843 0 1.622-.064 2.335-.192.713-.128 1.362-.32 1.946-.64.584-.257 1.102-.641 1.557-1.026a5.839 5.839 0 001.167-1.345c.324-.512.584-1.089.714-1.73.129-.64.259-1.345.259-2.114 0-1.089-.195-2.05-.519-2.883-.389-.769-.908-1.537-1.686-2.114zm-3.503 6.663c-.13.384-.259.705-.519.96a2.33 2.33 0 01-.778.513c-.324.128-.714.193-1.168.193a3.06 3.06 0 01-1.102-.193c-.325-.128-.584-.256-.843-.512-.195-.192-.39-.513-.519-.897-.13-.385-.195-.897-.195-1.474 0-.576.065-1.089.195-1.473.129-.385.259-.705.519-.897.259-.256.518-.384.778-.513.324-.128.649-.192 1.103-.192.454 0 .778.064 1.167.192.324.129.584.257.843.513.195.192.389.512.519.833.13.384.195.833.195 1.41-.065.512-.13 1.088-.195 1.537zM179.667 19.54l-.454-.127-.13.448a3.376 3.376 0 01-.324.961c-.13.256-.325.448-.454.64-.195.193-.39.257-.649.385a4.564 4.564 0 01-1.038.128c-.389 0-.713-.064-1.038-.128-.259-.128-.518-.256-.713-.448-.195-.193-.324-.513-.454-.897-.13-.449-.195-.961-.195-1.602 0-.512.065-.96.13-1.345.065-.32.195-.641.389-.833.195-.257.519-.513.843-.64.325-.129.714-.193 1.168-.193.195 0 .389 0 .584.064.194.064.324.064.519.128.129.064.259.128.389.256a.781.781 0 01.324.32c.065.065.13.129.195.257.064.128.129.256.194.448l.13.385.389-.064 4.022-.769.583-.128-.194-.513a7.345 7.345 0 00-1.038-1.858 9.727 9.727 0 00-1.492-1.345c-.584-.32-1.297-.577-2.075-.769-.779-.192-1.622-.256-2.595-.256-1.232 0-2.335.128-3.308.448-.973.32-1.816.77-2.529 1.346-1.427 1.217-2.141 2.947-2.141 5.125 0 .833.13 1.602.324 2.242.195.705.519 1.282.908 1.858.39.513.844.961 1.298 1.346a4.7 4.7 0 001.556.897 7.35 7.35 0 001.881.448c.649.128 1.427.128 2.27.128.714 0 1.298-.064 1.881-.128a5.527 5.527 0 001.557-.384c.454-.192.908-.385 1.297-.64.39-.257.779-.577 1.038-.898.325-.32.584-.769.843-1.153.26-.448.39-.897.584-1.41l.13-.448-.454-.128-4.151-1.153zM185.31 12.107v4.037h4.67v9.482h5.578v-9.482h4.67v-4.037H185.31zM217.546 19.475a4.235 4.235 0 00-1.362-1.473c-.584-.385-1.362-.641-2.205-.833-.843-.192-1.881-.257-3.049-.257h-1.946v-4.805h-5.513v13.454h8.367c.973 0 1.816-.064 2.595-.256.778-.192 1.427-.384 1.946-.769.583-.32.973-.768 1.297-1.28.259-.514.454-1.09.454-1.73-.13-.77-.26-1.474-.584-2.05zm-5.383 2.242c-.26.193-.714.257-1.362.257h-1.881v-1.538h1.881c.648 0 1.102.064 1.362.256.194.128.259.257.259.449.065.256 0 .448-.259.577zM76.083 25.625h5.513v-9.481h4.087v9.482h5.513V12.106H76.083v13.518zM140.101 16.528h-4.021v-4.42h-5.578v13.517h5.578V20.5h4.021v5.125h5.579V12.107h-5.579v4.421zM105.4 12.428l-.13-.256h-5.643l-.13.256-5.578 12.557-.324.64h5.773l.13-.32.583-1.73h4.541l.648 1.73.13.32h5.902l-.324-.64-5.578-12.557zm-3.892 7.432l.973-2.627.973 2.627h-1.946zM122.978 19.54l-.454-.128-.13.449a3.376 3.376 0 01-.324.96c-.13.257-.325.45-.454.641-.195.128-.39.257-.649.385-.26.064-.649.128-1.038.128s-.713-.064-1.038-.128c-.259-.128-.519-.257-.713-.449-.195-.192-.324-.512-.454-.897-.13-.448-.195-.96-.195-1.665 0-.513.065-.961.13-1.346.065-.32.195-.64.389-.833.195-.256.519-.512.843-.64.325-.128.714-.192 1.168-.192.194 0 .389 0 .584.064.194.064.324.064.519.128.129.064.259.128.389.256a.781.781 0 01.324.32c.065.064.13.128.195.256.064.129.129.257.194.449l.13.384.389-.064 4.021-.768.584-.129-.194-.512a7.346 7.346 0 00-1.038-1.858 7.792 7.792 0 00-1.557-1.346 7.773 7.773 0 00-2.075-.768c-.779-.193-1.622-.257-2.595-.257-1.232 0-2.335.129-3.308.449-.973.32-1.816.769-2.529 1.345-.714.577-1.233 1.346-1.622 2.179-.324.832-.519 1.858-.519 2.947 0 .833.13 1.601.324 2.242.195.705.519 1.281.909 1.858a8.6 8.6 0 001.297 1.345c.454.385.973.641 1.556.897a7.353 7.353 0 001.881.449c.649.128 1.427.128 2.271.128.713 0 1.297-.064 1.881-.128a5.532 5.532 0 001.556-.385c.454-.192.908-.384 1.298-.64.389-.257.778-.577 1.037-.897.325-.32.584-.705.843-1.153.195-.449.39-.897.584-1.41l.13-.448-.454-.128-4.086-1.09z" fill="#333"/></g><defs><clipPath id="alclip0_67_1011"><path fill="#fff" d="M0 0h218v46H0z"/></clipPath></defs></symbol><symbol fill="none" viewBox="0 0 210 54" id="partners-6" xmlns="http://www.w3.org/2000/svg"><g clip-path="url(#amclip0_67_1045)" fill="#333"><path d="M67.111 0H63.14v54h3.972V0zM38.688 10.995c-3.507 0-6.293 2.812-6.293 6.238V27.41h3.972V17.233c0-1.278 1.083-2.352 2.373-2.352h20.53v-3.938H38.688v.052zM99.455 17.233c0-.818-.155-1.636-.465-2.352a6.303 6.303 0 00-5.829-3.938H77.376c-2.63 0-4.9 1.637-5.829 3.938a5.984 5.984 0 00-.464 2.352v3.886c0 3.478 2.837 6.24 6.293 6.24h15.837c3.508 0 6.293-2.813 6.293-6.24v-3.886h-.051zm-6.294 6.29H77.376c-1.29 0-2.372-1.074-2.372-2.352v-3.938c0-1.278 1.083-2.352 2.372-2.352h15.785c1.29 0 2.373 1.074 2.373 2.352v3.938c0 1.278-1.083 2.352-2.373 2.352zM138.968 0h-3.972v27.41h3.972V0zM142.889 27.41h3.972V10.993h-3.972V27.41zm0-23.473v3.938h3.972V3.937h-3.972zM188.696 23.523c-1.29 0-2.373-1.074-2.373-2.352H210v-3.938c0-.818-.155-1.636-.464-2.352-.619-1.585-1.909-2.813-3.508-3.477a6.127 6.127 0 00-2.373-.46h-15.011c-.825 0-1.65.153-2.373.46-1.599.613-2.837 1.892-3.507 3.477a5.975 5.975 0 00-.465 2.352v3.886c0 .819.155 1.637.465 2.353.619 1.585 1.908 2.812 3.507 3.477.723.307 1.548.46 2.373.46h21.047v-3.937h-20.995v.05zm0-8.642H203.758c1.29 0 2.373.971 2.373 2.659h-19.757c-.051-1.688 1.032-2.66 2.322-2.66zM27.959 14.88a6.303 6.303 0 00-5.83-3.937H0v24.239h3.972v-7.773H22.13c3.507 0 6.293-2.812 6.293-6.238v-3.938c0-.818-.155-1.636-.464-2.352zm-3.508 6.29c0 1.279-1.083 2.353-2.373 2.353H3.92V14.88h18.158c1.29 0 2.373 1.074 2.373 2.352v3.938zM124.731 10.994h-21.304V27.41h3.972V14.88h17.332c1.29 0 2.373 1.073 2.373 2.352v10.176h3.972V17.233c0-3.426-2.837-6.239-6.345-6.239zM172.137 10.994h-21.304V27.41h3.972V14.88h17.332c1.29 0 2.373 1.073 2.373 2.352v10.176h3.972V17.233c-.052-3.426-2.889-6.239-6.345-6.239z"/></g><defs><clipPath id="amclip0_67_1045"><path fill="#fff" d="M0 0h210v54H0z"/></clipPath></defs></symbol><symbol fill="none" viewBox="0 0 96 96" id="partners-7" xmlns="http://www.w3.org/2000/svg"><path d="M30.99 71.19a.712.712 0 00-.885 0L24.4 74.74l-.172-.13a.573.573 0 00-.842.13.55.55 0 00.14.83l1.284 1.014a.593.593 0 00.852-.13.571.571 0 00-.151-.83l-.086-.12.927-.603 2.363 1.683-.292 1.078h-.097a.595.595 0 00-.7.96l1.37.993a.594.594 0 10.7-.95l-.13-.097 1.716-6.633a.668.668 0 00-.291-.745zm-1.942 4.315L27.29 74.21l2.567-1.672-.809 2.966zm21.476 4.315a.593.593 0 00.669-.626v-.885a.68.68 0 00-.313-.68 3.613 3.613 0 00-2.082-.603c-2.351-.097-3.732 1.467-3.85 3.883-.12 2.416 1.002 4.088 3.462 4.207a3.938 3.938 0 002.362-.572.874.874 0 00.388-.669v-.884a.603.603 0 00-.604-.68.594.594 0 00-.647.626v.68a2.967 2.967 0 01-1.348.28c-1.294 0-2.255-1.079-2.157-2.934.097-1.855.96-2.783 2.362-2.718.407.007.81.091 1.186.248v.647a.594.594 0 00.572.68zm1.424-17.68a2.34 2.34 0 102.34 2.341 2.363 2.363 0 00-2.34-2.394v.053zm-5.965-45.227a.57.57 0 00-.615.582.572.572 0 00.615.593h5.037a.604.604 0 00.647-.658v-1.014a.606.606 0 00-.625-.668.595.595 0 00-.626.647v.485H47.72V14.67h2.546a.615.615 0 000-1.23H47.72v-1.984h2.59v.377a.603.603 0 00.625.669.616.616 0 00.647-.647v-.96a.604.604 0 00-.647-.658h-4.908a.582.582 0 00-.626.593.583.583 0 00.604.604h.378v5.501l-.4-.021zm30.202 20.57a.56.56 0 00.734.41.583.583 0 00.399-.777l-.119-.324 2.157-.69 1.079 3.452-2.157.679-.108-.334a.56.56 0 00-.744-.4.572.572 0 00-.389.766l.647 1.974a.572.572 0 00.755.41.593.593 0 00.378-.776l-.075-.335 5.242-1.693.118.334a.595.595 0 001.013.405.593.593 0 00.066-.76l-.647-1.986a.593.593 0 10-1.079.367l.108.334-1.952.648-1.079-3.473 1.952-.626.12.334a.551.551 0 00.733.41.573.573 0 00.388-.755l-.669-1.995a.573.573 0 00-.755-.389.55.55 0 00-.367.755l.108.356-5.242 1.672-.108-.334a.593.593 0 00-.766-.4.571.571 0 00-.367.777l.626 1.963zm-60.782 17.16c-2.287.767-3.452 2.406-2.664 4.715.238.8.735 1.498 1.413 1.984a.766.766 0 00.733.13l.853-.292a.614.614 0 00.112-1.153.594.594 0 00-.5.01l-.648.216a3.117 3.117 0 01-.733-1.154c-.432-1.198.215-2.492 1.93-3.085 1.715-.594 2.956-.13 3.398 1.219.142.375.212.774.205 1.175l-.626.205a.605.605 0 00-.42.798.583.583 0 00.83.378l.842-.27a.743.743 0 00.517-.55 3.635 3.635 0 00-.183-2.157c-.798-2.244-2.772-2.966-5.059-2.168zM19.87 37.86a.572.572 0 00-.755.4l-.13.387-2.157-.68.723-2.264a.592.592 0 00-.389-.799.572.572 0 00-.776.432l-.712 2.265-1.91-.615.723-2.243.367.107a.582.582 0 00.82-.366.592.592 0 00-.432-.81l-.895-.236a.613.613 0 00-.83.399l-1.424 4.476a.572.572 0 00.377.777.582.582 0 00.755-.41l.108-.345 5.242 1.574-.108.335a.594.594 0 00.367.776.583.583 0 00.766-.41l.636-2.027a.55.55 0 00-.366-.723zm12.814-16.805l-.216.161-2.513-.906a2.158 2.158 0 00-.13-2.578c-1.078-1.434-2.437-1.132-3.785-.14-.303.223-.595.46-.874.712l-1.273.939a.592.592 0 00-.14.852.57.57 0 00.841.107l.302-.215 3.29 4.4-.302.216a.593.593 0 00-.13.852.584.584 0 00.853.098l1.596-1.165a.572.572 0 00.151-.853.594.594 0 00-.852-.107l-.194.15-1.262-1.585c.197-.112.387-.235.572-.367.133-.09.256-.195.366-.313l2.158.863-.205.151a.55.55 0 00-.13.82.572.572 0 00.852.119l1.78-1.251a.582.582 0 00.151-.852.583.583 0 00-.906-.108zm-4.563-.313a5.627 5.627 0 01-.647.42l-1.456-1.952c.198-.21.415-.4.647-.572.81-.593 1.521-.722 2.05 0 .528.723.334 1.424-.594 2.104zm53.599 33.75c-2.093-.905-4.229-.42-5.21 1.856-.982 2.276.183 4.131 2.254 5.016 2.071.884 4.228.42 5.2-1.845.97-2.265-.163-4.142-2.244-5.026zm1.078 4.553c-.615 1.413-2.05 1.618-3.505 1.014-1.457-.604-2.266-1.813-1.63-3.225.637-1.414 2.072-1.64 3.517-1.08 1.446.562 2.276 1.867 1.661 3.29h-.043zm-9.708 15.1l-.118.12-5.944-3.355a.68.68 0 00-.83 0 .744.744 0 00-.184.884l1.92 6.472-.15.108a.562.562 0 00-.109.842.572.572 0 00.853.097l1.25-.993a.581.581 0 00.109-.852.571.571 0 00-.842-.086l-.097.075-.345-1.078 2.308-1.823.939.571-.076.076a.562.562 0 00-.107.841.549.549 0 00.84.076l1.317-1.025a.57.57 0 00.13-.852.593.593 0 00-.82-.097h-.044zm-4.864 1.166l-.939-2.913 2.643 1.564-1.704 1.349zm24.927-19.416l-.064-.42a2.553 2.553 0 01-.097-.367v-.119a13.181 13.181 0 00-3.862-6.472 9.034 9.034 0 00-.744-.647 13.28 13.28 0 003.721-4.725c.227-.485.41-.96.583-1.434.172-.475.27-.982.377-1.521a13.343 13.343 0 00-10.377-15.684 15.873 15.873 0 00-2.05-.259c.114-.476.2-.959.26-1.445 0-.259 0-.475.075-.68a4.664 4.664 0 000-.668 9.695 9.695 0 000-1.37c.005-.09.005-.18 0-.27v-.28a13.43 13.43 0 00-3.656-7.94 13.613 13.613 0 00-1.295-1.196 12.78 12.78 0 00-1.456-.993 13.3 13.3 0 00-7.097-1.877c-.486-.028-.972-.02-1.457.022a9.523 9.523 0 00-1.467.28h-.118a13.193 13.193 0 00-4.024 1.877 13.321 13.321 0 00-3.322-4.983 27.096 27.096 0 00-1.078-.917c-.37-.281-.755-.54-1.155-.777a12.76 12.76 0 00-3.516-1.52 13.43 13.43 0 00-14.81 6.04c-.418.688-.779 1.41-1.079 2.157a13.59 13.59 0 00-3.29-1.575 10.489 10.489 0 00-1.078-.29c-.378-.076-.712-.152-1.079-.206a12.5 12.5 0 00-1.78-.086h-.722c-.619.043-1.234.118-1.845.226h-.183l-.529.13-1.132.28a13.15 13.15 0 00-5.393 3.463 14.23 14.23 0 00-.928 1.078c-.29.376-.556.768-.798 1.176a13.148 13.148 0 00-1.899 7.098c0 .496 0 .992.108 1.467.108.474.173 1.014.28 1.499.02.11.048.219.087.324l-.81.075h-.409a13.58 13.58 0 00-7.55 3.7c-.382.394-.742.808-1.08 1.24-.348.44-.669.9-.96 1.38v.087a13.203 13.203 0 00-1.466 10.215 13.289 13.289 0 004.563 7.054 12.76 12.76 0 00-4.671 7.551 13.354 13.354 0 00-.097 4.983 14.13 14.13 0 001.715 4.693 13.105 13.105 0 008.759 6.191 14.58 14.58 0 002.049.259c-.138.47-.243.95-.313 1.434 0 .238-.065.464-.097.67-.032.204 0 .442 0 .657V76.454a13.419 13.419 0 003.678 7.971c.406.423.838.82 1.295 1.187.452.366.932.698 1.434.992a13.43 13.43 0 0011.768.971c.731-.299 1.435-.66 2.104-1.079l.42-.205a13.3 13.3 0 003.355 5.016c.356.324.723.637 1.079.939.356.302.776.528 1.186.787a13.465 13.465 0 003.549 1.478 13.483 13.483 0 0014.777-6.062 14.92 14.92 0 001.08-2.158 12.717 12.717 0 006.946 2.028c2.54-.02 5.027-.72 7.205-2.028a13.407 13.407 0 005.167-5.393 12.394 12.394 0 001.165-7.55h.075l-.291-1.079v-.205c0-.108 0-.216-.086-.324a13.483 13.483 0 0010.15-5.544 13.247 13.247 0 002.233-5.07c.134-.676.22-1.36.258-2.049-.009-.14-.009-.28 0-.42v-.626c-.026-.707-.109-1.41-.248-2.104l-.043-.032zm-2.319 2.502v.335c-.02.56-.073 1.118-.162 1.672a10.787 10.787 0 01-1.758 4.077 10.98 10.98 0 01-9.859 4.552l-2.157-.227.906 1.996.086.216c.036.084.075.167.119.248.108.287.205.579.291.873l.097.41a10.237 10.237 0 01-.733 7.184 10.786 10.786 0 01-4.185 4.401 11.65 11.65 0 01-5.922 1.65 10.097 10.097 0 01-6.817-2.588L59.11 81.74l-.442 2.157v.205l-.054.205a10.304 10.304 0 01-1.208 2.89 10.786 10.786 0 01-5.167 4.401 11.013 11.013 0 01-6.774.486 10.378 10.378 0 01-2.858-1.198 8.911 8.911 0 01-.971-.647 12.04 12.04 0 01-.885-.755 10.527 10.527 0 01-3.02-5.048v-.15l-.13-.583-.42-1.974-1.65 1.51c-.474.44-.99.83-1.543 1.165-.546.328-1.116.616-1.704.863a10.882 10.882 0 01-9.632-.798c-.389-.26-.777-.518-1.144-.81-.366-.29-.722-.625-1.078-.96a10.873 10.873 0 01-2.988-6.471v-.788a6.954 6.954 0 010-.809 4.762 4.762 0 010-.55c.01-.18.032-.361.064-.54.168-.907.447-1.791.831-2.631l.874-1.974-2.158.205a2.474 2.474 0 01-.442 0c-.15.009-.302.009-.453 0h-.701a12.738 12.738 0 01-1.661-.216 10.602 10.602 0 01-7.076-4.994 11.445 11.445 0 01-1.38-3.818 10.97 10.97 0 01.053-4.024 10.409 10.409 0 015.08-6.946l.777-.464h17.334V47.46H11.25l-.798-.464-.108-.075a10.69 10.69 0 01-4.897-6.58 10.787 10.787 0 011.079-8.122l.054-.097c.228-.378.484-.739.766-1.08.27-.334.582-.657.895-.992a11.078 11.078 0 016.18-3.084h1.823l.723.053 2.157.206-.787-2.06a2.431 2.431 0 01-.108-.227c-.054-.13-.075-.205-.097-.238a10.5 10.5 0 01-.399-1.25 8.146 8.146 0 01-.248-1.198c-.05-.401-.078-.804-.086-1.208a10.786 10.786 0 011.531-5.739c.199-.328.415-.644.648-.949.248-.313.485-.615.744-.884a10.572 10.572 0 014.692-2.913l.572-.194h.054a.51.51 0 01.183 0l.302-.075c.496-.087 1.014-.14 1.51-.184h.593c.495.004.989.044 1.478.119.291.031.58.085.863.162l.852.226c1.44.46 2.766 1.217 3.894 2.222l1.64 1.456.453-2.157a1.629 1.629 0 010-.205l.053-.205c.264-1 .667-1.96 1.198-2.847a10.787 10.787 0 015.188-4.423 10.927 10.927 0 016.85-.518c.993.266 1.947.661 2.836 1.176.328.2.644.416.95.647.312.228.61.472.895.734a10.786 10.786 0 012.966 4.843l.097.356v.259l.421 2.157 1.661-1.478c.205-.162.388-.334.54-.442.185-.157.383-.297.593-.42a10.786 10.786 0 013.408-1.51h.119c.377-.087.755-.162 1.078-.206.4-.054.805-.083 1.209-.086a10.894 10.894 0 016.935 2.34 8.8 8.8 0 011.079.96 10.787 10.787 0 012.977 6.473v.226c.005.072.005.144 0 .216.02.36.02.72 0 1.078v.54c0 .162 0 .388-.075.55a11.59 11.59 0 01-.755 2.632l-.874 1.995 2.157-.215c.15-.012.302-.012.453 0 .147-.01.295-.01.442 0 .776-.012 1.55.064 2.309.226a10.604 10.604 0 016.85 4.682 10.722 10.722 0 011.639 8.014c-.087.388-.205.798-.335 1.219a10.657 10.657 0 01-4.778 5.879l-.755.463H67.62v1.295h17.118l.776.463c.343.192.67.408.982.648.318.224.62.47.906.733a10.787 10.787 0 013.117 5.232v.075c0 .097.054.216.076.345.022.13.065.28.065.335a8.51 8.51 0 01.172 1.693.808.808 0 01.043.367l-.043-.032zM49.154 40.752c-2.806-.021-5.524.98-7.648 2.815a9.697 9.697 0 010-2.244c.67-4.81 6.634-9.211 12.944-4.713l1.985-3.527-.13-.14a12.351 12.351 0 00-8.09-2.287 11.584 11.584 0 00-10.948 11.81 11.929 11.929 0 001.187 5.07 11.973 11.973 0 00-1.187 5.07v13.936h4.153c-.086-.27 0-12.48 0-12.792-.043-.722.001-1.446.13-2.158a11.39 11.39 0 007.55 2.783c8.63-.572 10.787-6.795 10.787-6.839 0-.043-2.2-6.256-10.733-6.784zm0 9.47a7.55 7.55 0 01-5.835-2.642 7.118 7.118 0 015.835-2.686c2.298 0 5.264 1.715 5.792 2.642a8.381 8.381 0 01-5.792 2.686zM69.12 23.255c1.553-2.287-2.157-3.905-1.294-5.22.302-.421.755-.475 1.402-.055.368.264.69.589.949.96l-.324.464a.593.593 0 00.151.885.625.625 0 00.906-.184l.486-.744a.744.744 0 000-.841 4.012 4.012 0 00-1.392-1.51c-1.434-.982-2.632-.745-3.343.312-1.608 2.373 2.157 3.851 1.218 5.307-.366.55-1.013.507-1.693 0a3.612 3.612 0 01-1.079-1.143l.367-.54a.616.616 0 00-.162-.895.594.594 0 00-.884.195l-.496.744a.938.938 0 000 1.079 4.962 4.962 0 001.531 1.585c1.608 1.079 2.88.712 3.657-.442v.043z" fill="#333"/></symbol><symbol fill="none" viewBox="0 0 12 12" id="phone-icon" xmlns="http://www.w3.org/2000/svg"><path d="M6.278 9.889L7.894 7.76a.567.567 0 01.567-.133 6.311 6.311 0 001.983.316c.306 0 .556.25.556.556v1.944c0 .306-.25.556-.556.556A9.444 9.444 0 011 1.556C1 1.25 1.25 1 1.556 1H3.5c.306 0 .556.25.556.556 0 .694.11 1.36.316 1.983a.545.545 0 01-.139.561L2.39 6" stroke="currentColor"/></symbol><symbol fill="none" viewBox="0 0 13 13" id="search-icon" xmlns="http://www.w3.org/2000/svg"><path d="M7.9 7.9l-.25.217A4.31 4.31 0 014.83 9.163 4.331 4.331 0 119.163 4.83 4.31 4.31 0 018.117 7.65l-.216.252zm.776.776H9.084l3.21 3.216-.402.401-3.216-3.21V8.677zM.986 4.831a3.84 3.84 0 003.845 3.845 3.84 3.84 0 003.845-3.845A3.84 3.84 0 004.831.987 3.84 3.84 0 00.987 4.83z" fill="#fff" stroke="currentColor"/></symbol><symbol fill="none" viewBox="0 0 15 17" id="slider-arrow" xmlns="http://www.w3.org/2000/svg"><path d="M4 15.5l7-7-7-7" stroke="currentColor" stroke-width="1.8"/></symbol><symbol fill="none" viewBox="0 0 16 16" id="socials-1" xmlns="http://www.w3.org/2000/svg"><path fill-rule="evenodd" clip-rule="evenodd" d="M15.633 4.11c.111-.352 0-.61-.53-.61h-1.75c-.445 0-.65.223-.761.469 0 0-.89 2.055-2.152 3.39-.407.386-.593.509-.816.509-.11 0-.272-.123-.272-.474V4.109c0-.421-.129-.609-.5-.609h-2.75c-.279 0-.446.196-.446.381 0 .4.63.492.695 1.616v2.441c0 .536-.102.633-.324.633-.593 0-2.037-2.065-2.893-4.426-.168-.46-.336-.645-.783-.645H.6C.1 3.5 0 3.723 0 3.969c0 .44.594 2.617 2.763 5.498C4.21 11.433 6.247 12.5 8.102 12.5c1.113 0 1.25-.237 1.25-.645v-1.487c0-.473.106-.568.458-.568.26 0 .705.123 1.743 1.072 1.187 1.123 1.382 1.628 2.05 1.628h1.75c.5 0 .75-.237.607-.704-.158-.466-.725-1.142-1.477-1.943-.408-.457-1.02-.949-1.205-1.194-.26-.317-.186-.457 0-.738 0 0 2.132-2.845 2.355-3.811z" fill="#2A2626"/></symbol><symbol fill="none" viewBox="0 0 16 16" id="socials-2" xmlns="http://www.w3.org/2000/svg"><path d="M6 8a2 2 0 114 0 2 2 0 01-4 0zM4.92 8a3.08 3.08 0 106.161 0 3.08 3.08 0 00-6.162 0zm5.563-3.203a.721.721 0 10.72-.72.72.72 0 00-.72.72zm-4.907 8.087c-.585-.027-.903-.124-1.114-.207-.28-.109-.48-.239-.69-.448-.21-.21-.34-.41-.45-.69-.081-.211-.179-.53-.206-1.114-.029-.633-.034-.823-.034-2.425 0-1.602.006-1.792.034-2.425.027-.585.125-.902.207-1.114.109-.28.239-.48.449-.69.21-.21.41-.34.69-.449.211-.082.53-.18 1.114-.206C6.21 3.086 6.4 3.08 8 3.08c1.602 0 1.792.006 2.425.035.585.026.902.125 1.114.206.28.109.48.24.69.449.21.21.34.41.45.69.082.211.18.53.206 1.114.029.633.035.823.035 2.425 0 1.602-.006 1.792-.035 2.425-.027.585-.125.903-.207 1.114-.109.28-.239.48-.449.69-.21.21-.41.34-.69.449-.21.082-.529.18-1.114.206-.632.029-.822.035-2.425.035-1.602 0-1.792-.006-2.424-.035zm-.05-10.848c-.638.03-1.075.13-1.456.279a2.943 2.943 0 00-1.063.692 2.932 2.932 0 00-.692 1.063c-.148.381-.25.818-.279 1.456C2.006 6.166 2 6.371 2 8c0 1.63.007 1.834.036 2.474.03.639.13 1.075.279 1.456.153.395.358.73.692 1.063a2.95 2.95 0 001.063.692c.382.148.818.25 1.456.279.64.029.845.036 2.474.036 1.63 0 1.834-.007 2.474-.036.639-.03 1.075-.13 1.456-.279a2.951 2.951 0 001.063-.692c.334-.334.539-.668.692-1.063.149-.381.25-.818.28-1.456.028-.64.035-.845.035-2.474 0-1.63-.007-1.834-.036-2.474-.029-.638-.13-1.075-.279-1.456a2.95 2.95 0 00-.692-1.063 2.937 2.937 0 00-1.062-.692c-.382-.148-.818-.25-1.456-.279C9.835 2.007 9.63 2 8 2c-1.63 0-1.834.007-2.475.036z" fill="#2A2626"/></symbol><symbol fill="none" viewBox="0 0 16 16" id="socials-3" xmlns="http://www.w3.org/2000/svg"><path d="M9.044 15V8.614h2.063l.31-2.489H9.043V4.536c0-.72.192-1.212 1.187-1.212H11.5V1.098C11.28 1.068 10.527 1 9.651 1c-1.83 0-3.082 1.16-3.082 3.29v1.835H4.5v2.489h2.07V15h2.474z" fill="#2A2626"/></symbol><symbol fill="none" viewBox="0 0 16 16" id="socials-4" xmlns="http://www.w3.org/2000/svg"><path d="M15.67 4.221a1.987 1.987 0 00-1.41-1.385C13.008 2.5 8 2.5 8 2.5s-5.008 0-6.26.324A2.027 2.027 0 00.33 4.22C0 5.451 0 8 0 8s0 2.562.33 3.779a1.987 1.987 0 001.41 1.385C3.005 13.5 8 13.5 8 13.5s5.008 0 6.26-.323a1.987 1.987 0 001.41-1.385c.33-1.23.33-3.78.33-3.78s.013-2.561-.33-3.79z" fill="#2A2626"/><path d="M6 10.5L11 8 6 5.5v5z" fill="#F3F5F8"/></symbol><symbol fill="none" viewBox="0 0 20 20" id="speaker-icon" xmlns="http://www.w3.org/2000/svg"><g clip-path="url(#avclip0_67_2098)"><path d="M12.583 7.5A2.583 2.583 0 0110 10.083v1.5A4.083 4.083 0 0014.083 7.5h-1.5zM10 10.083A2.583 2.583 0 017.417 7.5h-1.5A4.083 4.083 0 0010 11.583v-1.5zM7.417 7.5A2.583 2.583 0 0110 4.917v-1.5A4.083 4.083 0 005.917 7.5h1.5zM10 4.917A2.583 2.583 0 0112.583 7.5h1.5A4.083 4.083 0 0010 3.417v1.5zm-2.5 9.166h5v-1.5h-5v1.5zM2.417 10A7.583 7.583 0 0110 2.417v-1.5A9.083 9.083 0 00.917 10h1.5zM10 2.417A7.583 7.583 0 0117.583 10h1.5A9.083 9.083 0 0010 .917v1.5zM17.583 10a7.56 7.56 0 01-2.333 5.472l1.039 1.082A9.06 9.06 0 0019.083 10h-1.5zm-2.333 5.472A7.555 7.555 0 0110 17.583v1.5c2.44 0 4.657-.963 6.289-2.529l-1.039-1.082zm-2.75-1.389c1.253 0 2.299.893 2.534 2.076l1.471-.292a4.084 4.084 0 00-4.005-3.284v1.5zm-2.5 3.5a7.555 7.555 0 01-5.25-2.11l-1.039 1.081a9.056 9.056 0 006.29 2.53v-1.5zm-5.25-2.11A7.56 7.56 0 012.417 10h-1.5a9.06 9.06 0 002.794 6.554l1.04-1.082zm2.75-2.89a4.084 4.084 0 00-4.005 3.284l1.471.292A2.584 2.584 0 017.5 14.083v-1.5z" fill="#BE3D3D"/></g><defs><clipPath id="avclip0_67_2098"><path fill="#fff" d="M0 0h20v20H0z"/></clipPath></defs></symbol><symbol fill="none" viewBox="0 0 20 20" id="time-icon" xmlns="http://www.w3.org/2000/svg"><g clip-path="url(#awclip0_67_2051)"><path d="M10.75 6.875a.75.75 0 00-1.5 0h1.5zm-2.962 5.42a.75.75 0 101.091 1.029l-1.091-1.03zM2.032 2.123a.75.75 0 10.937 1.171l-.937-1.171zm3.02-.496A.75.75 0 004.115.456l.937 1.171zm11.98 1.667a.75.75 0 10.937-1.171l-.937 1.171zM15.885.456a.75.75 0 00-.937 1.171l.937-1.171zM9.455 11.62l-.545-.515.545.514zM9.25 6.875v3.373h1.5V6.875h-1.5zm-.37 6.449L10 12.134 8.91 11.105l-1.122 1.19 1.091 1.029zM2.968 3.294l2.083-1.667L4.115.456 2.032 2.123l.937 1.171zm15-1.171L15.885.456l-.937 1.171 2.084 1.667.937-1.171zm-.386 8.085A7.583 7.583 0 0110 17.792v1.5a9.083 9.083 0 009.083-9.084h-1.5zM10 17.792a7.583 7.583 0 01-7.583-7.584h-1.5A9.083 9.083 0 0010 19.292v-1.5zm-7.583-7.584A7.583 7.583 0 0110 2.625v-1.5a9.083 9.083 0 00-9.083 9.083h1.5zM10 2.625a7.583 7.583 0 017.583 7.583h1.5A9.083 9.083 0 0010 1.125v1.5zm-.75 7.623c0 .318-.122.625-.34.857L10 12.134a2.75 2.75 0 00.75-1.886h-1.5z" fill="#BE3D3D"/></g><defs><clipPath id="awclip0_67_2051"><path fill="#fff" d="M0 0h20v20H0z"/></clipPath></defs></symbol><symbol fill="none" viewBox="0 0 28 28" id="useful-1" xmlns="http://www.w3.org/2000/svg"><path d="M20.879 22.065l2.297 1.197a.608.608 0 00.884-.637l-.438-2.537 1.858-1.797a.604.604 0 00-.338-1.033l-2.568-.37-1.15-2.312a.611.611 0 00-1.093 0l-1.149 2.311-2.567.371c-.5.073-.7.683-.339 1.033l1.859 1.797-.439 2.537a.608.608 0 00.884.637l2.298-1.197M13.999 12.491l2.297 1.197a.608.608 0 00.884-.637l-.438-2.537L18.6 8.717a.604.604 0 00-.338-1.032l-2.567-.37-1.149-2.311a.611.611 0 00-1.093 0l-1.148 2.31-2.57.372c-.498.072-.7.682-.337 1.032l1.858 1.797-.439 2.538a.608.608 0 00.885.637l2.297-1.197M7.119 22.065l2.297 1.197a.608.608 0 00.884-.637l-.438-2.537 1.858-1.797a.604.604 0 00-.338-1.033l-2.568-.37-1.15-2.312a.611.611 0 00-1.092 0l-1.15 2.311-2.567.371c-.5.073-.7.683-.339 1.033l1.859 1.797-.439 2.537a.608.608 0 00.885.637l2.297-1.197" stroke="#BE3D3D" stroke-width="1.5" stroke-linecap="round"/></symbol><symbol fill="none" viewBox="0 0 28 28" id="useful-2" xmlns="http://www.w3.org/2000/svg"><path d="M24.258 11.11a2.36 2.36 0 11-3.338 3.338 2.36 2.36 0 013.338-3.338M16.57 6.897a3.634 3.634 0 11-5.14 5.14 3.634 3.634 0 015.14-5.14M7.08 11.11a2.36 2.36 0 11-3.338 3.338A2.36 2.36 0 017.08 11.11M26.833 22.166v-1.279a2.916 2.916 0 00-2.917-2.916h-.934M1.167 22.166v-1.279a2.916 2.916 0 012.916-2.916h.935M20.229 22.166v-1.868a4.083 4.083 0 00-4.084-4.083h-4.292a4.083 4.083 0 00-4.083 4.083v1.868" stroke="#BE3D3D" stroke-width="1.5" stroke-linecap="round"/></symbol><symbol fill="none" viewBox="0 0 28 28" id="useful-3" xmlns="http://www.w3.org/2000/svg"><path fill-rule="evenodd" clip-rule="evenodd" d="M8.943 11.665h10.115a1.945 1.945 0 001.945-1.945V4.274a1.946 1.946 0 00-1.946-1.946H8.942a1.945 1.945 0 00-1.945 1.946V9.72a1.945 1.945 0 001.946 1.944z" stroke="#BE3D3D" stroke-width="1.5" stroke-linecap="round"/><path d="M19.783 23.232h-1.11a2.1 2.1 0 00-.874.19l-4.438 2.021M24.504 16.437h-2.918a1.75 1.75 0 00-1.75 1.751v4.669c0 .966.784 1.75 1.75 1.75h2.918M3.496 24.607h2.917a1.75 1.75 0 001.751-1.75v-4.669a1.75 1.75 0 00-1.75-1.75H3.495" stroke="#BE3D3D" stroke-width="1.5" stroke-linecap="round"/><path d="M20.309 16.937l-3.615-1.592a2.11 2.11 0 00-1.997.16l-2.753 1.785a1.589 1.589 0 00-.204 2.51v0a1.59 1.59 0 001.739.262l1.641-.767 1.154 1.047a1.717 1.717 0 01.005 2.538l-2.445 2.238a2.11 2.11 0 01-2.841.006l-1.47-1.333a2.273 2.273 0 00-1.299-.563M8.188 17.667l2.548-.919a2.097 2.097 0 011.767.178M15.238 5.758a1.751 1.751 0 11-2.477 2.477 1.751 1.751 0 012.477-2.477" stroke="#BE3D3D" stroke-width="1.5" stroke-linecap="round"/></symbol><symbol fill="none" viewBox="0 0 28 28" id="useful-4" xmlns="http://www.w3.org/2000/svg"><path d="M2.329 3.996a.5.5 0 01.5-.5h20.008a.5.5 0 01.5.5v2.502a.5.5 0 01-.5.5H2.83a.5.5 0 01-.5-.5V3.996z" stroke="#BE3D3D" stroke-width="1.5" stroke-linecap="round"/><path d="M14 21.003H5.83a2.334 2.334 0 01-2.334-2.334V6.997H22.17M8.165 11.667H14M8.164 15.168H10.5" stroke="#BE3D3D" stroke-width="1.5" stroke-linecap="round"/><circle cx="20.887" cy="11.666" r="1.751" stroke="#BE3D3D" stroke-width="1.5" stroke-linecap="round"/><path fill-rule="evenodd" clip-rule="evenodd" d="M20.07 25.672h1.867a1.103 1.103 0 001.167-1.167V21.82l1.167-1.4c.13-.213.21-.453.233-.7v-2.218a1.103 1.103 0 00-1.167-1.167H18.67a1.102 1.102 0 00-1.168 1.167v2.218c.025.248.104.487.234.7l1.167 1.4v2.685a1.103 1.103 0 001.167 1.167v0z" stroke="#BE3D3D" stroke-width="1.5" stroke-linecap="round"/></symbol><symbol fill="none" viewBox="0 0 28 28" id="useful-5" xmlns="http://www.w3.org/2000/svg"><path fill-rule="evenodd" clip-rule="evenodd" d="M25.18 7.435c-.267-1.171-1.058-2.095-2.064-2.412C21.297 4.454 14 4.454 14 4.454s-7.294 0-9.116.569C3.88 5.335 3.09 6.259 2.82 7.435 2.333 9.561 2.333 14 2.333 14s0 4.44.487 6.565c.267 1.171 1.058 2.095 2.064 2.412 1.822.569 9.116.569 9.116.569s7.297 0 9.116-.569c1.002-.312 1.793-1.236 2.064-2.412.487-2.126.487-6.565.487-6.565s0-4.44-.487-6.565z" stroke="#BE3D3D" stroke-width="1.5" stroke-linecap="round"/><path fill-rule="evenodd" clip-rule="evenodd" d="M11.669 17.5L17.73 14l-6.062-3.5v7z" stroke="#BE3D3D" stroke-width="1.5" stroke-linecap="round"/></symbol><symbol fill="none" viewBox="0 0 32 32" id="useful-tab-icon-1" xmlns="http://www.w3.org/2000/svg"><path fill-rule="evenodd" clip-rule="evenodd" d="M9.222 21.11a4.229 4.229 0 00-4.227 4.228 1 1 0 11-2 0 6.229 6.229 0 016.227-6.228h5.228a6.23 6.23 0 016.227 6.227h-2a4.229 4.229 0 00-4.227-4.227m0 0H9.222h5.228zM11.835 7.996a3.335 3.335 0 100 6.67 3.335 3.335 0 000-6.67zM6.5 11.331a5.335 5.335 0 1110.67 0 5.335 5.335 0 01-10.67 0zM24.746 15.813a1 1 0 01-1.414 0 6.97 6.97 0 010-9.857 1 1 0 111.414 1.414 4.97 4.97 0 000 7.03 1 1 0 010 1.413zM28.712 13.702a1 1 0 01-1.415 0 3.985 3.985 0 010-5.636 1 1 0 111.415 1.414 1.985 1.985 0 000 2.807 1 1 0 010 1.415z" fill="currentColor"/></symbol><symbol fill="none" viewBox="0 0 32 32" id="useful-tab-icon-2" xmlns="http://www.w3.org/2000/svg"><path d="M15.333 18.35l.926 5.554a2.96 2.96 0 01-2.92 3.445v0a2.958 2.958 0 01-2.918-2.473l-1.088-6.527" stroke="currentColor" stroke-width="2" stroke-linecap="round" stroke-linejoin="round"/><path d="M18.333 18.35h-10.5a4.5 4.5 0 01-4.5-4.5v0a4.5 4.5 0 014.5-4.5h10.5M18.333 9.35l6.668-4.446c.998-.664 2.332.05 2.332 1.25v15.393c0 1.198-1.334 1.912-2.332 1.248l-6.668-4.446M18.333 18.347v-9" stroke="currentColor" stroke-width="2" stroke-linecap="round" stroke-linejoin="round"/></symbol><symbol fill="none" viewBox="0 0 32 32" id="useful-tab-icon-3" xmlns="http://www.w3.org/2000/svg"><path fill-rule="evenodd" clip-rule="evenodd" d="M7.997 28.005H5.329a1.334 1.334 0 01-1.334-1.334v-8.003c0-.737.597-1.334 1.334-1.334h2.668c.736 0 1.333.597 1.333 1.334v8.003c0 .736-.597 1.334-1.333 1.334v0z" stroke="currentcolor" stroke-width="2" stroke-linecap="round" stroke-linejoin="round"/><path d="M17.334 22.67h2.614c.578 0 1.14-.188 1.601-.534l3.223-2.417a2.021 2.021 0 012.64.188v0a2.019 2.019 0 010 2.857l-2.764 2.765a5.34 5.34 0 01-2.727 1.46l-3.908.781a5.335 5.335 0 01-2.341-.056l-3.535-.883a5.275 5.275 0 00-1.293-.16H9.332" stroke="currentColor" stroke-width="2" stroke-linecap="round" stroke-linejoin="round"/><path d="M17.334 22.67h1.98a2.02 2.02 0 002.022-2.022v-.404a2.02 2.02 0 00-1.53-1.96l-3.058-.764a6.275 6.275 0 00-1.519-.186v0a6.257 6.257 0 00-3.475 1.052l-2.423 1.616" stroke="currentColor" stroke-width="2" stroke-linecap="round" stroke-linejoin="round"/><path d="M25.694 8.973a3.335 3.335 0 11-4.716 4.716 3.335 3.335 0 014.716-4.716" stroke="currentcolor" stroke-width="2" stroke-linecap="round" stroke-linejoin="round"/><path fill-rule="evenodd" clip-rule="evenodd" d="M8.892 7.71a1.481 1.481 0 010-2.095l2.726-2.725a1.481 1.481 0 012.095 0l2.725 2.725a1.481 1.481 0 010 2.095l-2.725 2.725a1.481 1.481 0 01-2.095 0L8.892 7.71z" stroke="currentColor" stroke-width="2" stroke-linecap="round" stroke-linejoin="round"/></symbol></svg>