<svg width="44" height="44" viewBox="0 0 44 44" fill="none" xmlns="http://www.w3.org/2000/svg">
<circle opacity="0.2" cx="22" cy="22" r="22" fill="#BE3D3D"/>
<circle cx="22" cy="22" r="16" fill="#BE3D3D"/>
<path fill-rule="evenodd" clip-rule="evenodd" d="M22 29.5C22 29.5 27 25.2614 27 20.5C27 17.7386 24.7614 15.5 22 15.5C19.2386 15.5 17 17.7386 17 20.5C17 25.2614 22 29.5 22 29.5ZM22 23C23.1046 23 24 22.1046 24 21C24 19.8954 23.1046 19 22 19C20.8954 19 20 19.8954 20 21C20 22.1046 20.8954 23 22 23Z" fill="white"/>
</svg>
