<svg width="40" height="40" viewBox="0 0 40 40" fill="none" xmlns="http://www.w3.org/2000/svg">
<path d="M24.634 32.8354L24.2406 32.5269L24.634 32.8354ZM15.3647 32.8354L14.9712 33.144L15.3647 32.8354ZM19.9993 36.6771V36.1771V36.6771ZM32.8327 16.0158C32.8327 18.2671 31.6789 21.1478 29.9917 24.1306C28.3156 27.0938 26.1578 30.082 24.2406 32.5269L25.0275 33.144C26.9598 30.6799 29.1513 27.6476 30.8621 24.6229C32.5619 21.6178 33.8327 18.5432 33.8327 16.0158H32.8327ZM15.7581 32.5269C13.8409 30.082 11.6831 27.0938 10.007 24.1306C8.31979 21.1478 7.16602 18.2671 7.16602 16.0158H6.16602C6.16602 18.5432 7.43678 21.6178 9.13655 24.6229C10.8474 27.6476 13.0389 30.6799 14.9712 33.144L15.7581 32.5269ZM7.16602 16.0158C7.16602 8.33269 12.9456 2.16797 19.9993 2.16797V1.16797C12.3255 1.16797 6.16602 7.85073 6.16602 16.0158H7.16602ZM19.9993 2.16797C27.0531 2.16797 32.8327 8.33269 32.8327 16.0158H33.8327C33.8327 7.85073 27.6732 1.16797 19.9993 1.16797V2.16797ZM24.2406 32.5269C23.2254 33.8214 22.5018 34.7414 21.8356 35.3466C21.1908 35.9323 20.6487 36.1771 19.9993 36.1771V37.1771C20.972 37.1771 21.7431 36.7816 22.508 36.0868C23.2515 35.4114 24.0342 34.4106 25.0275 33.144L24.2406 32.5269ZM14.9712 33.144C15.9645 34.4106 16.7472 35.4114 17.4907 36.0868C18.2556 36.7816 19.0267 37.1771 19.9993 37.1771V36.1771C19.3499 36.1771 18.8079 35.9323 18.1631 35.3466C17.4969 34.7414 16.7733 33.8214 15.7581 32.5269L14.9712 33.144ZM14.4993 16.668C14.4993 19.7055 16.9618 22.168 19.9993 22.168V21.168C17.5141 21.168 15.4993 19.1533 15.4993 16.668H14.4993ZM19.9993 22.168C23.0369 22.168 25.4993 19.7055 25.4993 16.668H24.4993C24.4993 19.1533 22.4846 21.168 19.9993 21.168V22.168ZM25.4993 16.668C25.4993 13.6304 23.0369 11.168 19.9993 11.168V12.168C22.4846 12.168 24.4993 14.1827 24.4993 16.668H25.4993ZM19.9993 11.168C16.9618 11.168 14.4993 13.6304 14.4993 16.668H15.4993C15.4993 14.1827 17.5141 12.168 19.9993 12.168V11.168Z" fill="#CECECE"/>
</svg>
