<svg width="96" height="96" viewBox="0 0 96 96" fill="none" xmlns="http://www.w3.org/2000/svg">
<path d="M30.9896 71.1903C30.8638 71.0906 30.7079 71.0363 30.5474 71.0363C30.3868 71.0363 30.2309 71.0906 30.1051 71.1903L24.399 74.7391L24.2265 74.6096C24.1644 74.5587 24.0922 74.5214 24.0148 74.5002C23.9373 74.479 23.8563 74.4743 23.7769 74.4865C23.6975 74.4988 23.6216 74.5276 23.5541 74.5711C23.4866 74.6146 23.429 74.6718 23.3851 74.7391C23.3331 74.8002 23.2951 74.872 23.2738 74.9494C23.2525 75.0268 23.2484 75.1079 23.2618 75.187C23.2751 75.2662 23.3056 75.3414 23.3512 75.4075C23.3967 75.4736 23.4561 75.5289 23.5253 75.5696L24.8089 76.5836C24.8725 76.6332 24.9456 76.6693 25.0237 76.6897C25.1017 76.7101 25.1831 76.7144 25.2629 76.7023C25.3426 76.6902 25.4191 76.6619 25.4875 76.6193C25.556 76.5766 25.615 76.5204 25.6611 76.4541C25.7092 76.3909 25.7436 76.3184 25.7621 76.2412C25.7806 76.1639 25.7829 76.0837 25.7687 76.0056C25.7545 75.9274 25.7241 75.8531 25.6796 75.7873C25.6351 75.7215 25.5773 75.6658 25.51 75.6236L25.4238 75.5049L26.3514 74.9009L28.7136 76.5836L28.4224 77.6622H28.3253C28.2623 77.6162 28.1908 77.583 28.115 77.5646C28.0391 77.5462 27.9604 77.5429 27.8832 77.5549C27.8061 77.5669 27.7321 77.594 27.6655 77.6347C27.5988 77.6753 27.5408 77.7286 27.4948 77.7917C27.4487 77.8547 27.4156 77.9262 27.3972 78.002C27.3787 78.0779 27.3755 78.1566 27.3875 78.2337C27.3995 78.3109 27.4266 78.3849 27.4672 78.4515C27.5078 78.5182 27.5612 78.5762 27.6242 78.6222L28.9941 79.6146C29.0554 79.6706 29.1279 79.7132 29.2068 79.7395C29.2856 79.7658 29.3691 79.7752 29.4518 79.7671C29.5345 79.7591 29.6147 79.7337 29.6869 79.6927C29.7592 79.6517 29.8221 79.596 29.8715 79.5291C29.9209 79.4623 29.9557 79.3858 29.9736 79.3046C29.9915 79.2235 29.9922 79.1395 29.9756 79.058C29.959 78.9766 29.9254 78.8995 29.8771 78.8319C29.8288 78.7643 29.7668 78.7075 29.6952 78.6654L29.5658 78.5683L31.2808 71.9346C31.3189 71.7957 31.3111 71.6483 31.2586 71.5142C31.2062 71.3801 31.1118 71.2665 30.9896 71.1903ZM29.048 75.5049L27.2898 74.2105L29.857 72.5386L29.048 75.5049ZM50.524 79.8195C50.6108 79.8308 50.699 79.8228 50.7823 79.796C50.8657 79.7692 50.942 79.7243 51.006 79.6645C51.0699 79.6047 51.1198 79.5315 51.1521 79.4501C51.1844 79.3688 51.1983 79.2813 51.1927 79.1939V78.3094C51.2128 78.178 51.1939 78.0435 51.1383 77.9227C51.0827 77.8019 50.9928 77.7001 50.8799 77.6299C50.2642 77.2202 49.5375 77.0094 48.7981 77.0258C46.4467 76.9287 45.066 78.4928 44.9474 80.909C44.8287 83.3251 45.9505 84.9971 48.4098 85.1157C49.2378 85.179 50.0647 84.9789 50.7721 84.544C50.8838 84.4698 50.9769 84.3709 51.0443 84.2549C51.1116 84.139 51.1513 84.0091 51.1604 83.8753V82.9908C51.1712 82.9053 51.1635 82.8186 51.138 82.7364C51.1125 82.6541 51.0698 82.5783 51.0126 82.5139C50.9553 82.4496 50.8851 82.3982 50.8064 82.3632C50.7277 82.3283 50.6424 82.3105 50.5563 82.3112C50.4712 82.3033 50.3854 82.3139 50.3047 82.3422C50.2241 82.3705 50.1505 82.416 50.0891 82.4754C50.0276 82.5348 49.9797 82.6068 49.9486 82.6864C49.9176 82.7661 49.9041 82.8515 49.9092 82.9368V83.6164C49.4879 83.8143 49.0261 83.9104 48.5608 83.8968C47.2665 83.8968 46.3065 82.8182 46.4035 80.9629C46.5006 79.1076 47.3635 78.18 48.7658 78.2447C49.1734 78.2519 49.576 78.3361 49.9523 78.4928V79.14C49.9401 79.223 49.9456 79.3077 49.9685 79.3884C49.9914 79.4692 50.0312 79.5442 50.0852 79.6084C50.1393 79.6726 50.2063 79.7246 50.282 79.761C50.3576 79.7974 50.4401 79.8174 50.524 79.8195ZM51.9478 62.1404C51.4849 62.1404 51.0323 62.2777 50.6474 62.5349C50.2625 62.7921 49.9625 63.1577 49.7853 63.5854C49.6081 64.0131 49.5618 64.4837 49.6521 64.9377C49.7424 65.3918 49.9654 65.8089 50.2927 66.1362C50.62 66.4636 51.0371 66.6865 51.4912 66.7768C51.9452 66.8671 52.4158 66.8208 52.8435 66.6436C53.2712 66.4664 53.6368 66.1664 53.894 65.7815C54.1512 65.3966 54.2885 64.944 54.2885 64.4811C54.2928 64.17 54.2355 63.8611 54.1201 63.5721C54.0046 63.2832 53.8332 63.0199 53.6157 62.7974C53.3982 62.5749 53.1389 62.3976 52.8527 62.2756C52.5665 62.1536 52.2589 62.0893 51.9478 62.0865V62.1404ZM45.9829 16.9126C45.9033 16.9065 45.8234 16.9172 45.7482 16.9439C45.6731 16.9706 45.6043 17.0127 45.5464 17.0676C45.4885 17.1224 45.4427 17.1888 45.412 17.2624C45.3813 17.3361 45.3663 17.4153 45.368 17.495C45.3647 17.5757 45.3786 17.6561 45.4086 17.731C45.4386 17.8059 45.4842 17.8736 45.5423 17.9297C45.6004 17.9857 45.6697 18.0288 45.7456 18.0562C45.8215 18.0835 45.9024 18.0944 45.9829 18.0883H51.0202C51.1078 18.0949 51.1958 18.0824 51.2781 18.0515C51.3604 18.0207 51.4349 17.9722 51.4965 17.9096C51.5581 17.8469 51.6054 17.7716 51.6349 17.6888C51.6644 17.606 51.6755 17.5178 51.6674 17.4303V16.4164C51.6767 16.3299 51.6674 16.2425 51.6399 16.16C51.6124 16.0775 51.5674 16.002 51.508 15.9385C51.4486 15.875 51.3762 15.8251 51.2957 15.7921C51.2152 15.7592 51.1286 15.744 51.0417 15.7476C50.9564 15.7426 50.871 15.7561 50.7913 15.7871C50.7117 15.8182 50.6397 15.8661 50.5803 15.9275C50.5209 15.989 50.4754 16.0626 50.4471 16.1432C50.4188 16.2239 50.4082 16.3097 50.4161 16.3948V16.8802H47.7195V14.669H50.2651C50.4282 14.669 50.5846 14.6042 50.6999 14.4889C50.8152 14.3736 50.8799 14.2172 50.8799 14.0541C50.8799 13.8911 50.8152 13.7347 50.6999 13.6194C50.5846 13.5041 50.4282 13.4393 50.2651 13.4393H47.7195V11.4546H50.3083V11.8321C50.2989 11.9185 50.3082 12.006 50.3358 12.0885C50.3633 12.1709 50.4083 12.2465 50.4677 12.31C50.527 12.3735 50.5994 12.4234 50.6799 12.4564C50.7604 12.4893 50.847 12.5045 50.9339 12.5009C51.0201 12.5055 51.1063 12.492 51.187 12.4611C51.2676 12.4303 51.3408 12.3828 51.4019 12.3217C51.4629 12.2606 51.5104 12.1874 51.5413 12.1068C51.5722 12.0261 51.5857 11.9399 51.5811 11.8537V10.8937C51.5892 10.8062 51.5781 10.718 51.5486 10.6352C51.5191 10.5524 51.4718 10.4771 51.4102 10.4144C51.3486 10.3518 51.2741 10.3033 51.1918 10.2725C51.1095 10.2416 51.0215 10.2291 50.9339 10.2357H46.026C45.945 10.2297 45.8637 10.2406 45.7873 10.2679C45.7108 10.2951 45.6408 10.3381 45.5819 10.3939C45.523 10.4498 45.4764 10.5173 45.4452 10.5923C45.4139 10.6672 45.3987 10.7478 45.4004 10.829C45.3974 10.9091 45.4109 10.989 45.4402 11.0637C45.4695 11.1383 45.5139 11.2061 45.5706 11.2628C45.6273 11.3195 45.6951 11.3639 45.7697 11.3932C45.8444 11.4225 45.9243 11.436 46.0044 11.433H46.382V16.9341L45.9829 16.9126ZM76.1851 37.4824C76.202 37.5601 76.2352 37.6332 76.2825 37.697C76.3298 37.7608 76.3902 37.8139 76.4595 37.8526C76.5289 37.8914 76.6056 37.9149 76.6848 37.9218C76.7639 37.9286 76.8436 37.9186 76.9186 37.8923C76.9986 37.872 77.0734 37.8349 77.138 37.7835C77.2026 37.732 77.2555 37.6675 77.2933 37.594C77.331 37.5206 77.3527 37.44 77.3569 37.3575C77.3611 37.275 77.3478 37.1926 77.3177 37.1157L77.199 36.7921L79.3563 36.1018L80.435 39.5535L78.2777 40.233L78.1698 39.8986C78.1519 39.8207 78.1175 39.7475 78.0689 39.6839C78.0204 39.6204 77.9588 39.5679 77.8883 39.5301C77.8178 39.4923 77.74 39.47 77.6602 39.4648C77.5804 39.4595 77.5004 39.4713 77.4256 39.4995C77.3469 39.5198 77.2734 39.5566 77.2101 39.6075C77.1467 39.6584 77.0949 39.7222 77.0582 39.7946C77.0214 39.8671 77.0006 39.9466 76.997 40.0277C76.9933 40.1089 77.0071 40.1899 77.0372 40.2654L77.6844 42.2393C77.7024 42.3186 77.7371 42.3931 77.7862 42.458C77.8354 42.5228 77.8977 42.5764 77.9692 42.6152C78.0406 42.6539 78.1196 42.6771 78.2007 42.6829C78.2818 42.6888 78.3632 42.6773 78.4395 42.6492C78.5167 42.625 78.5881 42.5854 78.6494 42.5326C78.7107 42.4798 78.7605 42.4151 78.7959 42.3424C78.8312 42.2696 78.8514 42.1904 78.855 42.1096C78.8586 42.0289 78.8457 41.9482 78.817 41.8726L78.7415 41.5382L83.9838 39.8447L84.1024 40.1791C84.1048 40.2716 84.1288 40.3623 84.1724 40.4439C84.2161 40.5256 84.2783 40.5958 84.354 40.6491C84.4297 40.7024 84.5169 40.7372 84.6084 40.7508C84.7 40.7644 84.7935 40.7563 84.8814 40.7273C84.9693 40.6983 85.0492 40.6491 85.1147 40.5837C85.1802 40.5183 85.2295 40.4385 85.2586 40.3506C85.2877 40.2627 85.2959 40.1692 85.2824 40.0777C85.269 39.9861 85.2342 39.8989 85.1811 39.8231L84.5339 37.8384C84.5298 37.7464 84.5043 37.6567 84.4595 37.5762C84.4147 37.4958 84.3518 37.4269 84.2758 37.375C84.1998 37.3231 84.1127 37.2895 84.0215 37.2771C83.9303 37.2646 83.8374 37.2736 83.7502 37.3032C83.6631 37.3328 83.584 37.3824 83.5193 37.4478C83.4546 37.5133 83.406 37.593 83.3773 37.6805C83.3487 37.768 83.3409 37.8609 83.3544 37.952C83.3679 38.0431 83.4024 38.1297 83.4552 38.2051L83.5631 38.5395L81.6107 39.1867L80.5321 35.7135L82.4844 35.0878L82.6031 35.4222C82.6184 35.5007 82.6506 35.575 82.6975 35.6398C82.7444 35.7046 82.8049 35.7584 82.8747 35.7974C82.9445 35.8364 83.022 35.8597 83.1018 35.8657C83.1816 35.8717 83.2617 35.8603 83.3366 35.8321C83.4139 35.8116 83.4861 35.7751 83.5485 35.725C83.6109 35.6748 83.662 35.6121 83.6986 35.5409C83.7352 35.4698 83.7565 35.3917 83.761 35.3118C83.7655 35.2319 83.7532 35.1519 83.7249 35.0771L83.0561 33.0816C83.0356 33.0042 82.9991 32.932 82.949 32.8696C82.8988 32.8072 82.8361 32.7561 82.7649 32.7195C82.6938 32.6829 82.6157 32.6616 82.5358 32.6571C82.4559 32.6526 82.3759 32.6649 82.3011 32.6932C82.2237 32.7131 82.1515 32.7495 82.0897 32.8C82.0278 32.8505 81.9777 32.9139 81.9427 32.9858C81.9079 33.0576 81.889 33.1362 81.8876 33.2161C81.8861 33.296 81.9021 33.3752 81.9343 33.4483L82.0422 33.8042L76.7999 35.4762L76.6921 35.1418C76.6701 35.0639 76.6324 34.9914 76.5814 34.9287C76.5304 34.8659 76.467 34.8143 76.3953 34.7769C76.3236 34.7395 76.245 34.7172 76.1643 34.7113C76.0836 34.7054 76.0026 34.7161 75.9262 34.7427C75.8481 34.7651 75.7757 34.804 75.7138 34.8566C75.6518 34.9093 75.6019 34.9745 75.5672 35.048C75.5324 35.1215 75.5138 35.2016 75.5125 35.2828C75.5112 35.3641 75.5272 35.4447 75.5595 35.5193L76.1851 37.4824ZM15.4031 54.6438C13.1163 55.4096 11.9514 57.0492 12.7388 59.3575C12.9768 60.1574 13.4739 60.8556 14.1518 61.3422C14.253 61.4244 14.3734 61.4795 14.5018 61.5021C14.6302 61.5248 14.7622 61.5143 14.8853 61.4717L15.7375 61.1804C15.8187 61.1606 15.8951 61.1244 15.9619 61.074C16.0287 61.0236 16.0845 60.9601 16.1259 60.8874C16.1673 60.8147 16.1934 60.7343 16.2027 60.6511C16.2119 60.568 16.2041 60.4838 16.1797 60.4038C16.1555 60.3208 16.1134 60.244 16.0564 60.1789C15.9995 60.1139 15.9289 60.062 15.8498 60.0271C15.7707 59.9922 15.6849 59.975 15.5984 59.9767C15.5119 59.9784 15.4268 59.999 15.3492 60.0371L14.702 60.2528C14.3751 59.9271 14.1245 59.5329 13.9685 59.0986C13.537 57.9013 14.1842 56.6069 15.8993 56.0137C17.6143 55.4204 18.8548 55.8843 19.297 57.2326C19.4391 57.608 19.5087 58.0069 19.502 58.4083L18.8763 58.6132C18.7936 58.6337 18.7162 58.6714 18.6491 58.7239C18.5819 58.7765 18.5267 58.8426 18.487 58.918C18.4473 58.9934 18.4239 59.0763 18.4185 59.1614C18.4131 59.2464 18.4258 59.3316 18.4557 59.4114C18.4769 59.4965 18.5171 59.5758 18.5732 59.6432C18.6293 59.7106 18.6999 59.7644 18.7798 59.8007C18.8597 59.837 18.9467 59.8548 19.0344 59.8528C19.1221 59.8508 19.2082 59.8289 19.2862 59.789L20.1276 59.5193C20.2551 59.4822 20.3704 59.4116 20.4614 59.3148C20.5525 59.2181 20.616 59.0987 20.6453 58.9692C20.8048 58.2482 20.7408 57.4957 20.462 56.8119C19.6638 54.5683 17.6898 53.8456 15.4031 54.6438ZM19.8687 37.86C19.7931 37.8318 19.7124 37.8199 19.6319 37.8251C19.5514 37.8303 19.473 37.8525 19.4016 37.8901C19.3303 37.9278 19.2678 37.9802 19.2182 38.0438C19.1685 38.1074 19.1329 38.1807 19.1136 38.2591L18.9842 38.6474L16.8269 37.9678L17.5496 35.7027C17.5817 35.6252 17.597 35.5417 17.5944 35.4579C17.5919 35.374 17.5716 35.2917 17.5349 35.2163C17.4982 35.1408 17.446 35.074 17.3815 35.0203C17.3171 34.9665 17.2421 34.9271 17.1613 34.9045C17.0823 34.8727 16.9972 34.8589 16.9122 34.8642C16.8273 34.8695 16.7445 34.8937 16.6701 34.935C16.5957 34.9764 16.5314 35.0338 16.482 35.1032C16.4326 35.1726 16.3994 35.2521 16.3847 35.3359L15.6727 37.6011L13.7635 36.9863L14.4862 34.7427L14.853 34.8505C14.9299 34.8886 15.0142 34.9092 15.1 34.9109C15.1858 34.9125 15.2709 34.8952 15.3492 34.8602C15.4275 34.8252 15.4972 34.7733 15.5531 34.7082C15.609 34.6431 15.6499 34.5665 15.6727 34.4838C15.7063 34.4028 15.7216 34.3154 15.7173 34.2278C15.7131 34.1402 15.6895 34.0547 15.6482 33.9773C15.607 33.9 15.5491 33.8327 15.4787 33.7804C15.4083 33.7281 15.3273 33.692 15.2413 33.6748L14.346 33.4375C14.2657 33.4036 14.1792 33.3872 14.0921 33.3894C14.005 33.3915 13.9193 33.4121 13.8408 33.4498C13.7622 33.4876 13.6926 33.5416 13.6365 33.6082C13.5804 33.6749 13.5392 33.7528 13.5154 33.8366L12.0916 38.313C12.0595 38.3883 12.0439 38.4696 12.0459 38.5515C12.0479 38.6333 12.0674 38.7138 12.1032 38.7874C12.139 38.8611 12.1902 38.9262 12.2534 38.9783C12.3165 39.0304 12.3901 39.0684 12.4692 39.0896C12.5455 39.116 12.6266 39.1261 12.7071 39.1195C12.7876 39.1128 12.8659 39.0894 12.9369 39.0509C13.0079 39.0123 13.0701 38.9594 13.1196 38.8955C13.1691 38.8316 13.2047 38.7582 13.2242 38.6798L13.3321 38.3346L18.5743 39.9094L18.4665 40.2438C18.4376 40.3187 18.4242 40.3987 18.4271 40.479C18.43 40.5592 18.4492 40.638 18.4835 40.7107C18.5178 40.7833 18.5665 40.8482 18.6266 40.9014C18.6867 40.9547 18.757 40.9951 18.8332 41.0204C18.9102 41.0485 18.9923 41.0601 19.0741 41.0543C19.1559 41.0485 19.2355 41.0255 19.3078 40.9868C19.3801 40.9481 19.4434 40.8946 19.4936 40.8298C19.5438 40.7649 19.5797 40.6902 19.599 40.6105L20.2354 38.5827C20.2622 38.5113 20.2738 38.4352 20.2696 38.3591C20.2653 38.2831 20.2453 38.2087 20.2109 38.1408C20.1764 38.0728 20.1282 38.0128 20.0693 37.9644C20.0104 37.9161 19.9421 37.8805 19.8687 37.86ZM32.6831 21.0546L32.4674 21.2164L29.9541 20.3103C30.2133 19.9241 30.3408 19.4644 30.3175 18.9998C30.2942 18.5353 30.1213 18.0907 29.8247 17.7323C28.746 16.2977 27.3869 16.5998 26.0386 17.5921C25.7356 17.8146 25.444 18.0522 25.1649 18.304L23.8921 19.2425C23.825 19.2876 23.7678 19.346 23.7241 19.4141C23.6804 19.4822 23.6511 19.5584 23.638 19.6382C23.6249 19.7181 23.6282 19.7997 23.6478 19.8782C23.6673 19.9567 23.7028 20.0303 23.7519 20.0946C23.7975 20.1602 23.8563 20.2156 23.9247 20.257C23.993 20.2985 24.0693 20.3252 24.1486 20.3353C24.2279 20.3455 24.3084 20.3389 24.385 20.316C24.4616 20.2931 24.5325 20.2545 24.5932 20.2024L24.8952 19.9867L28.1851 24.3876L27.8831 24.6033C27.8168 24.6494 27.7606 24.7084 27.718 24.7769C27.6753 24.8453 27.647 24.9218 27.6349 25.0016C27.6228 25.0813 27.6271 25.1627 27.6475 25.2408C27.6679 25.3188 27.704 25.3919 27.7536 25.4555C27.8011 25.5206 27.8616 25.5752 27.9313 25.6158C28.001 25.6563 28.0783 25.682 28.1584 25.6911C28.2385 25.7002 28.3196 25.6926 28.3966 25.6688C28.4736 25.6449 28.5449 25.6054 28.6058 25.5526L30.2022 24.3876C30.2728 24.3456 30.3334 24.2889 30.3801 24.2214C30.4268 24.1538 30.4584 24.077 30.4727 23.9961C30.4871 23.9153 30.4838 23.8323 30.4632 23.7528C30.4425 23.6733 30.405 23.5992 30.3532 23.5355C30.3055 23.4708 30.2452 23.4166 30.176 23.3759C30.1067 23.3353 30.0299 23.3091 29.9502 23.299C29.8706 23.2889 29.7897 23.2951 29.7125 23.3172C29.6352 23.3393 29.5633 23.3769 29.5011 23.4276L29.3069 23.5786L28.0449 21.993C28.2416 21.8807 28.4324 21.7583 28.6166 21.6263C28.7501 21.536 28.8731 21.4311 28.9833 21.3135L31.1406 22.1764L30.9357 22.3274C30.869 22.3691 30.8121 22.4247 30.7687 22.4903C30.7254 22.556 30.6966 22.6301 30.6843 22.7078C30.672 22.7855 30.6766 22.8649 30.6976 22.9407C30.7186 23.0165 30.7557 23.0869 30.8062 23.1472C30.8509 23.2153 30.9097 23.2731 30.9785 23.3166C31.0473 23.3602 31.1247 23.3886 31.2054 23.3998C31.2861 23.411 31.3682 23.4049 31.4464 23.3818C31.5245 23.3587 31.5968 23.3191 31.6584 23.2658L33.4381 22.0146C33.5074 21.9714 33.5667 21.9141 33.6124 21.8465C33.658 21.7789 33.689 21.7025 33.7032 21.6221C33.7175 21.5418 33.7147 21.4593 33.695 21.3802C33.6754 21.301 33.6393 21.2268 33.5892 21.1625C33.5431 21.0878 33.4808 21.0244 33.4069 20.9772C33.3329 20.93 33.2493 20.9001 33.1622 20.8897C33.0751 20.8793 32.9867 20.8888 32.9038 20.9173C32.8208 20.9459 32.7454 20.9928 32.6831 21.0546ZM28.1204 20.7418C27.9146 20.8967 27.6983 21.0372 27.4732 21.1625L26.017 19.2101C26.2151 19.0005 26.4317 18.8091 26.6642 18.6384C27.4732 18.0451 28.1851 17.9157 28.7136 18.6384C29.2422 19.3611 29.048 20.0622 28.1204 20.7418ZM81.7186 54.4928C79.626 53.5867 77.4903 54.0721 76.5087 56.3481C75.5271 58.624 76.6921 60.4793 78.7631 61.3638C80.8341 62.2483 82.9914 61.7845 83.9622 59.5193C84.933 57.2541 83.8004 55.3773 81.7186 54.4928ZM82.7972 59.0447C82.1824 60.4577 80.7478 60.6627 79.2916 60.0586C77.8354 59.4546 77.0265 58.2465 77.6629 56.8335C78.2993 55.4204 79.7339 55.1939 81.1793 55.7548C82.6247 56.3157 83.4552 57.6209 82.8404 59.0447H82.7972ZM73.0894 74.1458L72.9707 74.2645L67.0274 70.9099C66.9084 70.818 66.7624 70.7682 66.6121 70.7682C66.4618 70.7682 66.3157 70.818 66.1968 70.9099C66.0735 71.0168 65.9887 71.1613 65.9556 71.3211C65.9224 71.4809 65.9428 71.6472 66.0134 71.7943L67.9334 78.2663L67.7824 78.3741C67.7154 78.4186 67.6587 78.477 67.6162 78.5453C67.5737 78.6137 67.5464 78.6903 67.5362 78.7701C67.526 78.85 67.533 78.931 67.5569 79.0079C67.5808 79.0847 67.6209 79.1555 67.6745 79.2155C67.721 79.282 67.781 79.3379 67.8507 79.3794C67.9204 79.421 67.9981 79.4472 68.0787 79.4564C68.1593 79.4656 68.2409 79.4575 68.3182 79.4327C68.3954 79.4079 68.4665 79.3669 68.5267 79.3126L69.7779 78.3202C69.8439 78.2735 69.8994 78.2137 69.9409 78.1444C69.9825 78.0752 70.0092 77.998 70.0193 77.9179C70.0295 77.8377 70.0228 77.7564 69.9999 77.6789C69.9769 77.6015 69.938 77.5297 69.8858 77.4681C69.8385 77.404 69.7783 77.3505 69.7092 77.3111C69.64 77.2716 69.5634 77.247 69.4842 77.2389C69.405 77.2308 69.325 77.2393 69.2492 77.2639C69.1735 77.2885 69.1037 77.3286 69.0444 77.3818L68.9474 77.4573L68.6022 76.3786L70.9105 74.5557L71.8489 75.1274L71.7734 75.2029C71.7064 75.2474 71.6497 75.3058 71.6072 75.3741C71.5647 75.4424 71.5375 75.5191 71.5272 75.5989C71.517 75.6787 71.524 75.7598 71.5479 75.8366C71.5718 75.9135 71.6119 75.9843 71.6656 76.0442C71.7114 76.1105 71.7713 76.1658 71.841 76.2064C71.9106 76.2469 71.9883 76.2716 72.0686 76.2788C72.1488 76.286 72.2297 76.2755 72.3054 76.248C72.3812 76.2206 72.45 76.1768 72.5069 76.1198L73.8229 75.095C73.8918 75.0512 73.9505 74.9932 73.9951 74.9247C74.0397 74.8563 74.0691 74.7791 74.0814 74.6984C74.0937 74.6177 74.0885 74.5352 74.0662 74.4567C74.044 74.3781 74.0051 74.3052 73.9523 74.2429C73.855 74.1234 73.7151 74.0465 73.5621 74.0284C73.4091 74.0103 73.255 74.0524 73.1325 74.1458H73.0894ZM68.2247 75.3108L67.2862 72.3984L69.9289 73.9624L68.2247 75.3108ZM93.1523 55.895L93.0876 55.4744C93.0462 55.3547 93.0137 55.2321 92.9905 55.1076V54.989C92.3606 52.5018 91.0185 50.2526 89.1289 48.5171C88.8916 48.2869 88.6435 48.0712 88.3847 47.8699C89.9701 46.6004 91.2432 44.9841 92.106 43.1454C92.3325 42.66 92.5159 42.1854 92.6885 41.7108C92.8611 41.2362 92.9581 40.7292 93.066 40.1899C93.7573 36.7353 93.0543 33.1475 91.1103 30.2093C89.1663 27.2711 86.1392 25.221 82.6894 24.5063C82.0126 24.3756 81.328 24.2891 80.6399 24.2474C80.7532 23.7708 80.8397 23.2883 80.8988 22.802C80.8988 22.5431 80.8988 22.3274 80.9743 22.1224C80.9903 21.8998 80.9903 21.6763 80.9743 21.4537C81.0066 20.9976 81.0066 20.5399 80.9743 20.0838C80.979 19.994 80.979 19.904 80.9743 19.8141V19.5337C80.6748 16.5537 79.3877 13.7593 77.3177 11.5948C76.9126 11.1682 76.4802 10.7682 76.0233 10.3975C75.5613 10.0336 75.0748 9.70207 74.5671 9.40515C72.4242 8.12601 69.9647 7.47561 67.4696 7.52829C66.9843 7.50049 66.4977 7.5077 66.0134 7.54987C65.5178 7.60481 65.0274 7.69858 64.5465 7.83032H64.4278C62.9903 8.22415 61.6299 8.85875 60.4044 9.70717C59.6896 7.8154 58.5535 6.11121 57.0822 4.7238C56.7262 4.4002 56.3595 4.09818 56.0035 3.80694C55.6342 3.52594 55.2488 3.26662 54.8494 3.03031C53.7605 2.34927 52.575 1.83653 51.333 1.50942C48.543 0.795159 45.5973 0.996724 42.9307 2.08436C40.264 3.172 38.0177 5.0881 36.5231 7.54987C36.1052 8.2383 35.7445 8.95982 35.4444 9.70717C34.4235 9.03679 33.317 8.50708 32.1545 8.13234C31.8094 8.02447 31.4534 7.91661 31.0759 7.8411C30.6984 7.7656 30.364 7.69009 29.9972 7.63616C29.4068 7.5651 28.812 7.53626 28.2175 7.54987H27.4948C26.8764 7.59278 26.2607 7.66839 25.6503 7.77638H25.4669L24.9384 7.90582L23.8058 8.18627C21.75 8.87792 19.8972 10.0674 18.4125 11.6487C18.0855 11.9926 17.7759 12.3526 17.4849 12.7274C17.1954 13.1029 16.9289 13.4955 16.6867 13.9031C15.3923 16.0405 14.7338 18.5025 14.7883 21.0007C14.7883 21.4968 14.7883 21.993 14.8961 22.4676C15.004 22.9422 15.0687 23.4816 15.1766 23.9669C15.1952 24.0773 15.2241 24.1856 15.2629 24.2905L14.4539 24.366H14.2489H14.044C11.1991 24.7695 8.55549 26.0648 6.49342 28.0658C6.11203 28.4598 5.75197 28.8739 5.41477 29.3063C5.06571 29.7456 4.74506 30.2068 4.45477 30.6869V30.7732C3.5369 32.2902 2.93397 33.9764 2.68193 35.7314C2.42989 37.4864 2.53392 39.2742 2.9878 40.9881C3.70583 43.7711 5.30676 46.2463 7.5505 48.0424C5.14003 49.9191 3.4828 52.5982 2.87994 55.593C2.53511 57.2333 2.50218 58.9239 2.78286 60.5764C3.07133 62.2299 3.65209 63.8187 4.49792 65.2685C5.4386 66.8599 6.7053 68.2342 8.21483 69.3013C9.72436 70.3684 11.4426 71.104 13.2566 71.46C13.9327 71.5946 14.6176 71.6811 15.306 71.7188C15.1676 72.189 15.0631 72.6684 14.9932 73.1535C14.9932 73.3908 14.9285 73.6173 14.8961 73.8222C14.8638 74.0272 14.8961 74.2645 14.8961 74.4802C14.8961 74.793 14.8961 75.1274 14.8961 75.451C14.8961 75.7746 14.8961 76.1197 14.8961 76.4541C15.1937 79.4485 16.4892 82.2559 18.5743 84.4254C18.9798 84.8483 19.4122 85.2446 19.8687 85.6119C20.3214 85.9781 20.8009 86.3098 21.3033 86.6042C23.0612 87.652 25.0354 88.2842 27.0749 88.4525C29.1145 88.6207 31.1655 88.3206 33.0714 87.575C33.8021 87.2764 34.5058 86.9155 35.1748 86.4964L35.5954 86.2914C36.3146 88.1983 37.4623 89.9144 38.9501 91.3072C39.306 91.6308 39.6727 91.9436 40.0287 92.2456C40.3847 92.5476 40.8053 92.7741 41.2152 93.033C42.3214 93.6928 43.5165 94.1905 44.764 94.5108C47.5517 95.2067 50.4887 94.9939 53.147 93.9034C55.8052 92.813 58.0456 90.9019 59.5415 88.4487C59.9587 87.7599 60.3194 87.0385 60.6202 86.2914C62.6904 87.6258 65.1037 88.3303 67.5667 88.3193C70.1064 88.2986 72.5943 87.5984 74.7721 86.2914C76.9704 85.0193 78.7622 83.149 79.9388 80.8982C81.1125 78.5668 81.5202 75.9243 81.1038 73.3476H81.1793L80.888 72.269V72.064C80.888 71.9562 80.888 71.8483 80.8017 71.7404C82.7989 71.6271 84.7459 71.0708 86.5014 70.1119C88.257 69.1529 89.7772 67.8154 90.9518 66.1962C92.0451 64.6825 92.806 62.9549 93.1847 61.1265C93.3186 60.4502 93.4051 59.7654 93.4435 59.0771C93.4341 58.937 93.4341 58.7964 93.4435 58.6564V58.0308C93.4174 57.3241 93.3344 56.6207 93.1954 55.9274L93.1523 55.895ZM90.8332 58.3975V58.7319C90.8135 59.292 90.7595 59.8503 90.6714 60.4038C90.5211 61.1447 90.2933 61.8678 89.9918 62.5611C89.7006 63.2372 89.3391 63.8807 88.9132 64.4811C87.8055 66.0294 86.3142 67.263 84.5858 68.061C82.8574 68.8591 80.9512 69.194 79.0543 69.033L76.897 68.8065L77.8031 70.802L77.8894 71.0177C77.9247 71.1024 77.9643 71.1852 78.008 71.2658C78.1159 71.5535 78.213 71.8447 78.2993 72.1395L78.3963 72.5494C79.0326 74.9536 78.7719 77.5072 77.6629 79.7332C76.7181 81.5708 75.2655 83.0983 73.4777 84.1341C71.6871 85.2045 69.642 85.7745 67.5559 85.7845C65.0404 85.8009 62.6093 84.8778 60.7388 83.1957L59.1101 81.7395L58.6678 83.8968C58.6678 83.8968 58.6678 83.9723 58.6678 84.1018L58.6139 84.3067C58.3609 85.3263 57.9535 86.3011 57.4058 87.1975C56.2019 89.1822 54.39 90.7256 52.239 91.5984C50.0886 92.4697 47.7178 92.6396 45.4651 92.0838C44.4577 91.83 43.4942 91.4264 42.6067 90.8865C42.2693 90.6922 41.945 90.476 41.6359 90.2393C41.3231 90.002 41.0318 89.7431 40.7514 89.4842C39.2854 88.1227 38.2378 86.3717 37.7312 84.4361V84.2851L37.6017 83.7027L37.1811 81.7287L35.5307 83.2388C35.0575 83.6786 34.5407 84.069 33.9883 84.4038C33.4416 84.732 32.8721 85.0204 32.284 85.2667C30.7254 85.8846 29.0452 86.134 27.3743 85.9955C25.7035 85.8571 24.0872 85.3345 22.6516 84.4685C22.2633 84.2096 21.875 83.9508 21.5083 83.6595C21.1415 83.3683 20.7856 83.0339 20.4296 82.6995C18.7347 80.9393 17.6821 78.6594 17.4417 76.2276C17.4417 75.9579 17.4417 75.6991 17.4417 75.4402C17.426 75.1708 17.426 74.9006 17.4417 74.6312C17.4311 74.448 17.4311 74.2643 17.4417 74.0811C17.452 73.9001 17.4736 73.72 17.5065 73.5418C17.6736 72.6335 17.9526 71.7495 18.337 70.9099L19.2107 68.9359L17.0534 69.1409C16.9063 69.1541 16.7583 69.1541 16.6112 69.1409C16.4603 69.15 16.309 69.15 16.1581 69.1409H15.457C14.8992 69.1055 14.3443 69.0334 13.7959 68.9251C12.3314 68.6376 10.9441 68.0441 9.72475 67.1835C8.50541 66.3229 7.48148 65.2145 6.71994 63.931C6.0358 62.7506 5.56822 61.4575 5.33927 60.1126C5.10902 58.7796 5.12731 57.4155 5.3932 56.0892C5.69577 54.636 6.30565 53.2644 7.18189 52.0663C8.05814 50.8682 9.18049 49.8714 10.4736 49.1427L11.2503 48.6789H28.5842V47.46H11.2503L10.4521 46.9962L10.3442 46.9207C9.13494 46.2003 8.07984 45.2483 7.23947 44.1191C6.3991 42.99 5.79 41.706 5.44713 40.3409C4.72437 37.597 5.11191 34.6788 6.52578 32.2186L6.57971 32.1216C6.80801 31.7436 7.06399 31.383 7.34556 31.0429C7.61522 30.7085 7.92803 30.3849 8.24084 30.0505C9.91959 28.3897 12.0851 27.3089 14.4215 26.9656H14.5833H14.7343C14.8961 26.9656 15.0579 26.9656 15.2089 26.9656H15.511H16.2444L16.9671 27.0195L19.1244 27.2245L18.337 25.1642C18.2972 25.0906 18.2612 25.015 18.2292 24.9377C18.1752 24.8083 18.1536 24.7328 18.1321 24.7004C17.9731 24.2921 17.8398 23.8742 17.733 23.4492C17.6204 23.0569 17.5375 22.6566 17.4849 22.2519C17.4354 21.8509 17.4066 21.4477 17.3986 21.0438C17.3621 19.0253 17.8928 17.0372 18.9303 15.3054C19.1286 14.9774 19.3447 14.6606 19.5775 14.3562C19.8256 14.0433 20.0629 13.7413 20.3217 13.4717C21.6001 12.1023 23.2194 11.0972 25.0139 10.5593L25.5856 10.3651H25.6395C25.7001 10.354 25.7622 10.354 25.8229 10.3651L26.1249 10.2896C26.6211 10.2033 27.1388 10.1494 27.635 10.1063H28.2283C28.7231 10.1099 29.217 10.1496 29.706 10.2249C29.9975 10.256 30.286 10.3101 30.5689 10.3867L31.4211 10.6132C32.8603 11.073 34.187 11.83 35.315 12.8353L36.9545 14.2914L37.4076 12.1341C37.4033 12.0659 37.4033 11.9974 37.4076 11.9292L37.4615 11.7242C37.725 10.7235 38.128 9.76492 38.6588 8.87661C39.8647 6.88031 41.6851 5.32863 43.8471 4.45414C46.0153 3.54974 48.4171 3.36818 50.6966 3.93638C51.6897 4.20199 52.6436 4.5973 53.5334 5.11211C53.8605 5.3118 54.1773 5.5278 54.4826 5.7593C54.7948 5.98657 55.0937 6.23146 55.3779 6.49279C56.7816 7.81321 57.8058 9.48556 58.3442 11.3359L58.4413 11.6919V11.8429C58.4413 11.8429 58.4413 11.9184 58.4413 11.9508L58.862 14.1081L60.5231 12.6303C60.728 12.4685 60.9114 12.2959 61.0624 12.1881C61.248 12.0314 61.4464 11.8907 61.6557 11.7674C62.6956 11.07 63.849 10.559 65.0642 10.2573H65.1829C65.5604 10.171 65.9379 10.0955 66.2615 10.0523C66.6619 9.99753 67.0655 9.96871 67.4696 9.96604C69.9823 9.92297 72.4326 10.7499 74.4053 12.3067C74.7906 12.5966 75.1513 12.9177 75.484 13.2667C77.1806 15.0246 78.2303 17.3064 78.4611 19.7386V19.9651C78.4664 20.037 78.4664 20.1091 78.4611 20.1809C78.4814 20.5401 78.4814 20.9003 78.4611 21.2595C78.4611 21.4537 78.4611 21.6371 78.4611 21.7989C78.4611 21.9607 78.4611 22.1872 78.3856 22.349C78.2388 23.253 77.9853 24.1365 77.6305 24.9809L76.7568 26.9764L78.9141 26.7607C79.0649 26.749 79.2163 26.749 79.3671 26.7607C79.5144 26.7514 79.6621 26.7514 79.8094 26.7607C80.5849 26.7494 81.3592 26.8254 82.1177 26.9872C83.5154 27.267 84.8424 27.8258 86.0193 28.6301C87.1961 29.4345 88.1987 30.4679 88.9671 31.6685C90.5513 34.0183 91.1408 36.8997 90.6067 39.6829C90.5204 40.0712 90.4017 40.4811 90.2723 40.9018C90.1392 41.2983 89.9844 41.6872 89.8085 42.0667C88.8863 44.0423 87.3804 45.6875 85.4939 46.7804L84.7388 47.2442H67.6206V48.5386H84.7388L85.5154 49.0024C85.8579 49.1942 86.1859 49.4104 86.497 49.6496C86.8147 49.8742 87.1173 50.1192 87.4031 50.3831C88.9231 51.7913 90.0053 53.6075 90.5204 55.6146V55.6901C90.5204 55.7872 90.5743 55.9058 90.5959 56.0353C90.6175 56.1647 90.6606 56.3157 90.6606 56.3696C90.7746 56.9269 90.8324 57.4943 90.8332 58.0631C90.8871 58.2465 90.8871 58.322 90.8763 58.4299L90.8332 58.3975ZM49.1541 40.7508C46.3477 40.73 43.6296 41.7306 41.5065 43.566C41.4197 42.8207 41.4197 42.0678 41.5065 41.3225C42.1752 36.5117 48.1402 32.1108 54.4503 36.6087L56.435 33.0816L56.3056 32.9413C53.9593 31.2565 51.0967 30.4474 48.2157 30.6546C45.2153 30.819 42.3961 32.1428 40.3534 34.3466C38.3106 36.5503 37.2041 39.4616 37.2674 42.4658C37.2848 44.2225 37.6899 45.9536 38.4539 47.5355C37.6913 49.1179 37.2862 50.8487 37.2674 52.6051C37.2674 53.2631 37.2674 65.9265 37.2674 66.5413H41.4202C41.3339 66.2717 41.4202 54.0613 41.4202 53.7485C41.3775 53.0268 41.421 52.3026 41.5496 51.5912C43.644 53.4066 46.3285 54.396 49.1002 54.3741C57.7294 53.8024 59.8867 47.5786 59.8867 47.5355C59.8867 47.4923 57.6862 41.2793 49.1541 40.7508ZM49.1541 50.2213C48.0472 50.2356 46.9506 50.0062 45.9422 49.5495C44.9338 49.0928 44.0381 48.42 43.3186 47.5786C44.0127 46.7049 44.9025 46.0066 45.9162 45.5401C46.9298 45.0735 48.039 44.8518 49.1541 44.8928C51.4516 44.8928 54.4179 46.6078 54.9465 47.5355C53.4457 49.1599 51.3636 50.1254 49.1541 50.2213ZM69.1199 23.255C70.6732 20.9683 66.9626 19.3503 67.8256 18.0344C68.1276 17.6137 68.5806 17.5598 69.2278 17.9804C69.5963 18.2444 69.9173 18.569 70.177 18.9404L69.8534 19.4042C69.7993 19.47 69.76 19.5466 69.7382 19.6288C69.7163 19.7111 69.7124 19.7971 69.7268 19.881C69.7411 19.9649 69.7733 20.0448 69.8212 20.1151C69.8691 20.1855 69.9316 20.2447 70.0044 20.2887C70.0746 20.3401 70.1548 20.3763 70.2398 20.3949C70.3247 20.4136 70.4127 20.4143 70.4979 20.397C70.5832 20.3798 70.6639 20.3449 70.735 20.2947C70.806 20.2445 70.8658 20.18 70.9105 20.1054L71.3959 19.3611C71.4808 19.2372 71.5262 19.0906 71.5262 18.9404C71.5262 18.7903 71.4808 18.6436 71.3959 18.5198C71.0709 17.9042 70.5914 17.3838 70.0044 17.0096C68.5698 16.0281 67.3725 16.2654 66.6606 17.3224C65.0534 19.6955 68.8179 21.1732 67.8795 22.6294C67.5127 23.1795 66.8656 23.1364 66.186 22.6294C65.7469 22.3321 65.3787 21.9417 65.1074 21.486L65.4741 20.9467C65.5262 20.8787 65.5635 20.8006 65.5837 20.7174C65.6039 20.6341 65.6064 20.5476 65.5912 20.4633C65.576 20.379 65.5433 20.2988 65.4953 20.2279C65.4472 20.157 65.3849 20.0969 65.3123 20.0514C65.2438 19.9991 65.1647 19.9624 65.0806 19.9437C64.9964 19.9251 64.9092 19.925 64.825 19.9435C64.7409 19.962 64.6617 19.9986 64.5931 20.0507C64.5245 20.1029 64.4681 20.1694 64.4278 20.2456L63.9316 20.9899C63.8207 21.1478 63.7612 21.3362 63.7612 21.5292C63.7612 21.7222 63.8207 21.9106 63.9316 22.0685C64.3168 22.7052 64.8403 23.2471 65.4633 23.6541C67.0705 24.7328 68.3433 24.366 69.1199 23.2119V23.255Z" fill="#333333"/>
</svg>
