<svg width="139" height="57" viewBox="0 0 139 57" fill="none" xmlns="http://www.w3.org/2000/svg">
<g clip-path="url(#clip0_67_766)">
<path fill-rule="evenodd" clip-rule="evenodd" d="M136.042 0.422673C135.449 0.423512 134.875 0.636641 134.417 1.02576C133.96 1.41487 133.647 1.95591 133.531 2.55673C133.416 3.15754 133.507 3.78099 133.786 4.32087C134.066 4.86075 134.519 5.28368 135.066 5.51763C135.614 5.75158 136.223 5.78209 136.79 5.60395C137.357 5.42582 137.847 5.05005 138.176 4.54066C138.505 4.03127 138.653 3.41974 138.595 2.81025C138.537 2.20076 138.276 1.63099 137.857 1.19797C137.618 0.951735 137.335 0.756506 137.024 0.623469C136.712 0.490432 136.379 0.422196 136.042 0.422673ZM133.924 0.897859C134.411 0.395189 135.051 0.0824051 135.735 0.0128099C136.42 -0.0567853 137.107 0.121113 137.679 0.516188C138.251 0.911262 138.673 1.49907 138.872 2.17945C139.072 2.85984 139.037 3.5907 138.774 4.24752C138.51 4.90433 138.035 5.44644 137.428 5.78149C136.821 6.11654 136.121 6.2238 135.446 6.08499C134.771 5.94617 134.164 5.56987 133.727 5.02021C133.291 4.47054 133.053 3.78152 133.053 3.07055C133.052 2.66694 133.129 2.26723 133.279 1.89437C133.428 1.52151 133.647 1.18285 133.924 0.897859Z" fill="#333333"/>
<path fill-rule="evenodd" clip-rule="evenodd" d="M134.565 4.83336V1.12883H136.163C136.41 1.1183 136.656 1.15215 136.892 1.22887C137.056 1.29325 137.196 1.41193 137.288 1.56649C137.388 1.73475 137.441 1.92861 137.439 2.12608C137.446 2.37422 137.356 2.61479 137.191 2.79508C136.981 2.99612 136.711 3.11739 136.426 3.13896C136.53 3.18686 136.627 3.25004 136.713 3.32654C136.865 3.47272 136.997 3.63878 137.107 3.82047L137.73 4.83336H137.125L136.683 4.05806C136.544 3.83298 136.429 3.66417 136.341 3.54537C136.273 3.45056 136.192 3.36724 136.099 3.2984C136.032 3.25351 135.959 3.21975 135.881 3.19836C135.793 3.18458 135.704 3.17935 135.615 3.18274H135.065V4.83336H134.565ZM135.043 2.75445H136.078C136.25 2.76157 136.422 2.73831 136.586 2.68567C136.701 2.64468 136.8 2.56556 136.868 2.46059C136.928 2.36141 136.961 2.24658 136.961 2.12921C136.964 2.04717 136.948 1.96561 136.916 1.89046C136.885 1.8153 136.837 1.74842 136.777 1.69467C136.609 1.56531 136.401 1.50412 136.193 1.52273H135.056L135.043 2.75445Z" fill="#333333"/>
<path d="M137.839 4.83311H137.04L136.559 4.05468C136.462 3.89046 136.356 3.73183 136.241 3.57951C136.184 3.49884 136.116 3.42723 136.039 3.36693C135.983 3.33096 135.923 3.30358 135.86 3.28564C135.786 3.28022 135.711 3.28022 135.636 3.28564H135.219V4.84874H134.565V1.12858H136.172C136.419 1.11873 136.666 1.15365 136.901 1.23174C137.079 1.30466 137.229 1.43658 137.327 1.60688C137.43 1.78319 137.484 1.9856 137.482 2.19148C137.487 2.45111 137.394 2.70257 137.222 2.89175C137.081 3.04377 136.902 3.15205 136.704 3.20437L136.765 3.25751C136.915 3.40096 137.045 3.56505 137.152 3.74519L137.839 4.83311ZM137.149 4.62365H137.473L136.986 3.82961C136.886 3.66568 136.767 3.51545 136.632 3.38255C136.556 3.31985 136.472 3.26733 136.384 3.22625L136.081 3.07619L136.417 3.02617C136.663 3.00806 136.897 2.90452 137.079 2.73231C137.148 2.65836 137.201 2.57105 137.236 2.4755C137.272 2.37995 137.288 2.27808 137.285 2.17585C137.287 2.00869 137.244 1.84427 137.161 1.70067C137.087 1.56748 136.97 1.46481 136.831 1.40993C136.62 1.34152 136.399 1.3119 136.178 1.3224H134.774V4.62365H135.022V3.06056H135.627C135.717 3.05798 135.808 3.06426 135.897 3.07931C135.982 3.10218 136.064 3.13913 136.139 3.18873C136.235 3.25992 136.32 3.34645 136.39 3.44508C136.48 3.56388 136.592 3.73269 136.719 3.93902L137.149 4.62365ZM136.081 2.87299H135.016V1.5006H136.19C136.407 1.48623 136.622 1.55279 136.795 1.68817C136.862 1.74882 136.915 1.82398 136.951 1.90827C136.986 1.99257 137.003 2.08393 137.001 2.17585C137.001 2.30743 136.966 2.43645 136.898 2.54787C136.826 2.66335 136.72 2.75204 136.595 2.80109C136.428 2.85454 136.253 2.87884 136.078 2.87299H136.081ZM135.219 2.66354H136.078C136.229 2.6685 136.381 2.64845 136.526 2.60414C136.612 2.57239 136.686 2.51329 136.738 2.43532C136.785 2.35776 136.81 2.26773 136.81 2.17585C136.813 2.11336 136.801 2.0511 136.777 1.99373C136.753 1.93635 136.717 1.88534 136.671 1.84448C136.531 1.74069 136.359 1.69293 136.187 1.71004H135.216L135.219 2.66354Z" fill="#333333"/>
<path fill-rule="evenodd" clip-rule="evenodd" d="M22.9356 19.9051C21.3009 19.8699 19.678 20.1994 18.1776 20.8711C16.6772 21.5427 15.3346 22.5408 14.2412 23.7972C11.9239 26.4002 10.7643 29.615 10.7623 33.4414C10.7603 37.2679 11.9239 40.4608 14.2533 43.0201C15.37 44.2424 16.7165 45.2162 18.2102 45.8817C19.704 46.5472 21.3135 46.8905 22.9402 46.8905C24.5668 46.8905 26.1764 46.5472 27.6701 45.8817C29.1638 45.2162 30.5103 44.2424 31.627 43.0201C33.9644 40.442 35.1342 37.2345 35.1362 33.3977C35.1382 29.5608 33.9745 26.3523 31.6451 23.7722C30.5468 22.5197 29.2005 21.5262 27.6977 20.8589C26.1949 20.1917 24.5708 19.8664 22.9356 19.9051ZM21.299 56.1876C15.6237 56.1876 10.7834 53.9753 6.7781 49.5507C2.77275 45.1261 0.772096 39.7563 0.776129 33.4414C0.776129 27.1224 2.77679 21.7391 6.7781 17.2916C10.7794 12.8441 15.6308 10.6193 21.3323 10.6172C26.8381 10.6172 31.507 12.6617 35.3389 16.7508V12.0459H44.4689V54.7589H35.357V50.0978C31.4767 54.1326 26.7948 56.1625 21.3111 56.1876H21.299Z" fill="#333333"/>
<path fill-rule="evenodd" clip-rule="evenodd" d="M89.8588 36.0825C88.5819 40.5925 85.8718 44.5263 82.1658 47.2493C78.4166 50.0316 74.1017 51.4227 69.221 51.4227C63.1586 51.4227 57.9986 49.2104 53.7411 44.7858C49.4837 40.3612 47.355 34.9915 47.355 28.6766C47.355 22.3596 49.4837 16.9774 53.7411 12.5299C57.9986 8.08236 63.1586 5.85755 69.221 5.85547C74.142 5.85547 78.4952 7.26538 82.2808 10.0852C86.0241 12.8473 88.7653 16.8245 90.0676 21.3832H79.0166C78.1671 19.4905 76.7999 17.8963 75.0838 16.7971C73.2801 15.7112 71.2202 15.1636 69.1333 15.2153C65.856 15.2153 63.0728 16.4939 60.7838 19.0511C58.4947 21.6083 57.3492 24.7168 57.3472 28.3765C57.3472 32.2634 58.523 35.5156 60.8745 38.1333C61.971 39.3983 63.3184 40.4041 64.8251 41.0822C66.3317 41.7604 67.9622 42.0949 69.6052 42.0629C71.5066 42.0675 73.369 41.5053 74.9689 40.4436C76.6167 39.381 77.9459 37.8656 78.8078 36.0669L89.8588 36.0825Z" fill="#333333"/>
<path fill-rule="evenodd" clip-rule="evenodd" d="M134.744 31.4779C133.464 35.988 130.753 39.9222 127.048 42.6477C123.302 45.4237 118.992 46.8128 114.115 46.8149C108.05 46.8149 102.891 44.6047 98.6351 40.1843C94.3797 35.7638 92.252 30.3931 92.252 24.0719C92.252 17.757 94.3797 12.3748 98.6351 7.92518C102.891 3.47558 108.05 1.25182 114.115 1.25391C119.04 1.25391 123.393 2.66278 127.175 5.48051C130.919 8.24343 133.66 12.2218 134.962 16.7817H123.904C123.055 14.8883 121.688 13.2931 119.972 12.1924C118.16 11.1028 116.09 10.5562 113.994 10.6137C110.719 10.6137 107.936 11.8923 105.644 14.4495C103.353 17.0067 102.208 20.1131 102.208 23.7687C102.208 27.6556 103.384 30.9089 105.735 33.5286C106.833 34.7945 108.183 35.8006 109.692 36.4782C111.201 37.1558 112.833 37.4891 114.478 37.4551C116.382 37.4571 118.246 36.8928 119.848 35.8295C121.487 34.7715 122.812 33.2654 123.675 31.4779H134.744Z" fill="#333333"/>
<path fill-rule="evenodd" clip-rule="evenodd" d="M135.491 31.7126C134.815 34.0447 133.778 36.2481 132.42 38.237C131.064 40.1945 129.403 41.9058 127.504 43.3014C125.598 44.7257 123.481 45.8216 121.236 46.5464C118.929 47.2767 116.528 47.6404 114.115 47.6249C109.626 47.6089 105.241 46.2271 101.507 43.6519C97.7735 41.0767 94.8565 37.4221 93.1201 33.1444C90.9137 27.3155 90.9137 20.8415 93.1201 15.0126C94.2671 12.1524 95.9513 9.55558 98.0753 7.37216C100.144 5.14154 102.635 3.37585 105.394 2.18547C108.153 0.995093 111.12 0.405627 114.109 0.453916C116.546 0.438209 118.971 0.808265 121.3 1.55121C123.566 2.28687 125.703 3.39753 127.625 4.83995C129.542 6.25393 131.219 7.98515 132.59 9.96377C133.963 11.9747 135.014 14.2008 135.703 16.5569L136.005 17.601H123.414L123.2 17.1477C122.785 16.2546 122.254 15.4247 121.62 14.6812C121.023 13.9808 120.325 13.3789 119.551 12.8961C118.761 12.4042 117.904 12.0355 117.01 11.802C116.027 11.5503 115.018 11.4274 114.006 11.4362C112.55 11.4179 111.106 11.7194 109.771 12.3209C108.421 12.9569 107.211 13.8719 106.216 15.0094C105.17 16.1643 104.348 17.5165 103.796 18.9922C103.248 20.5236 102.975 22.1457 102.991 23.7784C102.97 25.5074 103.251 27.2262 103.82 28.8522C104.377 30.3858 105.222 31.7904 106.307 32.985C107.331 34.1702 108.591 35.1119 110.001 35.7455C111.412 36.3791 112.938 36.6894 114.475 36.6551C115.342 36.6575 116.204 36.5333 117.037 36.2862C117.88 36.0293 118.684 35.6527 119.427 35.1671C120.183 34.6802 120.87 34.088 121.469 33.407C122.071 32.7208 122.58 31.953 122.982 31.1249L123.2 30.6779H135.796L135.491 31.7126ZM131.147 37.2991C132.202 35.7583 133.048 34.0754 133.661 32.2972H124.152C123.73 33.0836 123.223 33.8178 122.64 34.4856C121.944 35.2731 121.147 35.9589 120.271 36.5238C119.406 37.0885 118.469 37.5272 117.488 37.8274C116.514 38.1188 115.504 38.2662 114.49 38.2651C112.74 38.2969 111.003 37.9396 109.398 37.2174C107.793 36.4952 106.357 35.4249 105.188 34.0792C103.963 32.7281 103.01 31.1396 102.383 29.4055C101.747 27.603 101.431 25.6969 101.448 23.7784C101.43 21.9489 101.738 20.1315 102.356 18.417C102.973 16.7467 103.898 15.2159 105.079 13.909C106.215 12.6121 107.597 11.5695 109.138 10.8453C110.67 10.1503 112.327 9.79874 114 9.81371C115.143 9.80693 116.282 9.94872 117.391 10.2357C118.433 10.5079 119.431 10.9366 120.353 11.5081C121.255 12.076 122.071 12.7799 122.773 13.5964C123.393 14.3226 123.927 15.1222 124.364 15.9785H133.857C133.235 14.1706 132.376 12.4593 131.304 10.8922C130.039 9.05514 128.49 7.44644 126.718 6.13107C124.93 4.79203 122.945 3.75964 120.84 3.07366C118.661 2.38645 116.393 2.04699 114.115 2.06703C111.333 2.01565 108.571 2.56053 106.003 3.66732C103.435 4.7741 101.117 6.41877 99.1947 8.49759C97.2133 10.5268 95.6411 12.942 94.5691 15.6034C92.5199 21.0464 92.5199 27.0855 94.5691 32.5286C96.1309 36.5505 98.8336 39.9901 102.322 42.3955C105.811 44.8008 109.922 46.0593 114.115 46.0055C116.37 46.0218 118.614 45.6835 120.77 45.002C122.855 44.3276 124.821 43.3111 126.594 41.9915C128.352 40.6989 129.89 39.1144 131.147 37.3022V37.2991Z" fill="#333333"/>
<path fill-rule="evenodd" clip-rule="evenodd" d="M22.9357 20.7155C21.404 20.6961 19.8849 21.0037 18.4735 21.619C17.0829 22.2556 15.8362 23.1851 14.8131 24.3481C13.7429 25.5323 12.9074 26.9214 12.3536 28.4372C11.7925 30.0402 11.5148 31.7345 11.5338 33.4391C11.5151 35.1334 11.7929 36.8174 12.3536 38.4097C12.9079 39.9178 13.7436 41.2986 14.8131 42.4737C15.8309 43.6407 17.0799 44.5675 18.4752 45.1911C19.8706 45.8147 21.3795 46.1204 22.8994 46.0876C24.434 46.1064 25.9559 45.7989 27.3706 45.1841C28.7656 44.5531 30.0176 43.6278 31.0462 42.4675C32.1215 41.2952 32.9606 39.9137 33.5148 38.4034C34.6126 35.1653 34.6126 31.6378 33.5148 28.3997C32.9619 26.8909 32.1261 25.5098 31.0553 24.3356C30.0328 23.178 28.7869 22.2547 27.3979 21.6252C25.9864 21.0096 24.4677 20.7 22.9357 20.7155ZM17.8534 20.1372C21.1103 18.7533 24.7641 18.7533 28.021 20.1372C29.6096 20.8567 31.0348 21.9121 32.2049 23.2352C33.417 24.5675 34.3619 26.1347 34.985 27.8463C36.2193 31.4475 36.2193 35.3775 34.985 38.9787C34.3579 40.6902 33.4089 42.2563 32.1928 43.5867C31.0151 44.9071 29.5854 45.9609 27.9938 46.6816C26.3856 47.3799 24.6558 47.7299 22.9115 47.7101C21.1753 47.7278 19.4542 47.3744 17.8564 46.6722C16.2714 45.9524 14.8494 44.8983 13.6817 43.5773C12.472 42.2495 11.5282 40.6877 10.9045 38.9818C9.67031 35.3892 9.67031 31.4671 10.9045 27.8745C11.527 26.1586 12.4707 24.5863 13.6817 23.2477C14.851 21.9205 16.2761 20.861 17.8655 20.1372H17.8534ZM21.2991 56.998C18.4787 57.0243 15.6849 56.434 13.1008 55.2661C10.4889 54.0449 8.1451 52.2866 6.21247 50.0985C4.19785 47.9016 2.6165 45.3203 1.5567 42.4988C-0.5189 36.6451 -0.5189 30.2205 1.5567 24.3669C2.61813 21.5352 4.20019 18.9428 6.2155 16.7328C8.14853 14.5346 10.4956 12.7677 13.1129 11.5402C15.6642 10.4153 18.4059 9.82374 21.1796 9.7996C23.9533 9.77545 26.7042 10.3192 29.2735 11.3995C31.2054 12.2509 32.992 13.4184 34.5645 14.857V11.2369H45.2616V55.5693H34.5736V51.9523C32.9807 53.3812 31.1797 54.5417 29.2372 55.3911C26.7258 56.4613 24.0337 57.0054 21.3172 56.9917L21.2991 56.998ZM13.7361 53.7874C16.1209 54.8606 18.6981 55.4018 21.2991 55.3755C23.8146 55.4022 26.3088 54.8971 28.6285 53.8912C30.9483 52.8854 33.0445 51.4 34.7884 49.5264L36.1285 48.1353V53.9625H43.6915V12.8563H36.1285V18.746L34.7854 17.3142C32.107 14.4863 28.6626 12.5628 24.9058 11.7972C21.149 11.0316 17.2559 11.4597 13.7391 13.0251C11.3164 14.1654 9.14436 15.8047 7.35599 17.8425C5.4779 19.9017 4.00278 22.3167 3.01182 24.9546C1.08374 30.4333 1.08374 36.4386 3.01182 41.9173C4.0006 44.5453 5.47507 46.9493 7.35296 48.995C9.14076 51.0223 11.3096 52.6518 13.727 53.7843L13.7361 53.7874Z" fill="#333333"/>
<path fill-rule="evenodd" clip-rule="evenodd" d="M90.606 36.3169C89.9303 38.6479 88.8933 40.8502 87.5354 42.8381C86.1807 44.797 84.5193 46.5087 82.6195 47.9025C80.7137 49.3256 78.5981 50.4213 76.3543 51.1475C74.0435 51.8807 71.6382 52.2465 69.2209 52.2323C62.9447 52.2323 57.6002 49.9397 53.1874 45.3547C51.0612 43.1857 49.3755 40.5998 48.2291 37.7487C46.0187 31.9141 46.0187 25.4327 48.2291 19.5981C49.3767 16.7384 51.0621 14.1425 53.1874 11.9608C55.2566 9.73134 57.7483 7.96664 60.5069 6.77685C63.2656 5.58706 66.232 4.99773 69.2209 5.04568C71.6603 5.02653 74.0883 5.39234 76.4209 6.13046C78.6871 6.8674 80.8232 7.97796 82.7465 9.4192C84.6643 10.8436 86.3425 12.5841 87.7139 14.5712C89.0829 16.574 90.1328 18.7903 90.8238 21.1361L91.1263 22.1834H78.5324L78.3146 21.727C77.9006 20.8329 77.3681 20.0027 76.7325 19.2604C76.1353 18.5624 75.4385 17.9626 74.6663 17.4816C73.8757 16.9894 73.0195 16.6197 72.1251 16.3843C71.1426 16.132 70.1334 16.0081 69.1211 16.0155C67.6644 15.9981 66.2208 16.3007 64.8858 16.9033C63.5432 17.5456 62.3418 18.4647 61.3554 19.6043C60.3062 20.757 59.4842 22.1098 58.9353 23.5871C58.3833 25.1198 58.1085 26.7442 58.1245 28.3795C58.0979 30.1063 58.3726 31.824 58.9353 33.4502C59.4923 34.9838 60.3374 36.3884 61.422 37.583C62.4461 38.7682 63.7065 39.7099 65.1166 40.3435C66.5266 40.9771 68.0528 41.2874 69.59 41.2531C70.4579 41.2558 71.3217 41.1305 72.1554 40.8811C72.9975 40.6232 73.8008 40.2455 74.5422 39.7588C76.0666 38.7791 77.2973 37.3807 78.0968 35.7198L78.3177 35.2727H90.9115L90.606 36.3169ZM86.2618 41.9002C87.3193 40.3609 88.1653 38.6776 88.7757 36.8984H79.2676C78.3414 38.6292 77.0022 40.0863 75.3772 41.1312C74.5121 41.6993 73.5743 42.1392 72.591 42.438C71.6172 42.7321 70.6076 42.8805 69.593 42.8787C67.8428 42.9105 66.1063 42.5532 64.5013 41.831C62.8964 41.1088 61.4604 40.0385 60.2906 38.6928C59.0663 37.341 58.1123 35.7528 57.4832 34.0191C56.8494 32.2161 56.5339 30.3102 56.5514 28.392C56.5328 26.5604 56.8405 24.7409 57.459 23.0244C58.0808 21.3519 59.0105 19.8199 60.1968 18.5133C61.334 17.2156 62.7168 16.1729 64.2596 15.4496C65.7901 14.7539 67.4461 14.4022 69.1181 14.418C70.2603 14.4106 71.3989 14.5535 72.5063 14.8431C73.5495 15.1147 74.5484 15.5434 75.4709 16.1155C76.374 16.6829 77.1898 17.3868 77.8911 18.2038C78.518 18.9252 79.0602 19.7206 79.5065 20.5734H89.0026C88.3764 18.7717 87.5131 17.0675 86.4372 15.509C85.1679 13.6715 83.6119 12.0647 81.8329 10.7541C80.0467 9.41202 78.0616 8.37841 75.955 7.69355C73.7742 6.99798 71.5032 6.65113 69.2209 6.66504C66.4387 6.61647 63.6767 7.16293 61.1086 8.2701C58.5405 9.37726 56.2216 11.0212 54.2977 13.0987C52.3207 15.1267 50.7526 17.5398 49.6843 20.1983C47.6352 25.6424 47.6352 31.6825 49.6843 37.1266C50.7542 39.7802 52.3245 42.1873 54.3037 44.2074C58.3998 48.4777 63.3722 50.6129 69.2209 50.6129C71.476 50.629 73.7203 50.2896 75.8763 49.6063C77.9608 48.932 79.9262 47.9144 81.6968 46.5926C83.4559 45.3017 84.9946 43.7169 86.2497 41.9034L86.2618 41.9002Z" fill="#333333"/>
</g>
<defs>
<clipPath id="clip0_67_766">
<rect width="139" height="57" fill="white"/>
</clipPath>
</defs>
</svg>
