<svg width="199" height="60" viewBox="0 0 199 60" fill="none" xmlns="http://www.w3.org/2000/svg">
<path fill-rule="evenodd" clip-rule="evenodd" d="M48.0761 35.6816V48.8438C48.0429 44.5147 48.0928 40.0607 48.0761 35.6816Z" fill="#333333"/>
<path fill-rule="evenodd" clip-rule="evenodd" d="M48.1011 35.6816H60.6394V48.8438H56.6039C56.6039 45.5137 56.6039 42.1837 56.6039 38.9118H52.1449V48.8438H48.1011V35.6816Z" fill="#333333"/>
<path fill-rule="evenodd" clip-rule="evenodd" d="M97.6236 35.6816H109.929V38.9451H105.778V48.8438H101.734C101.734 45.5137 101.734 42.1837 101.734 38.9451H97.582L97.6236 35.6816Z" fill="#333333"/>
<path fill-rule="evenodd" clip-rule="evenodd" d="M111.781 35.6816H122.633V38.4956H115.841V40.5852H122.152V43.2909C120.059 43.2909 117.892 43.2909 115.841 43.2909V45.8884H122.841V48.8522H111.781V35.6816Z" fill="#333333"/>
<path fill-rule="evenodd" clip-rule="evenodd" d="M139.324 35.6816H143.359V40.2688C144.779 40.3105 146.382 40.3105 147.802 40.2688V35.6816H151.87V48.8438H147.827V43.549C146.407 43.4907 144.871 43.549 143.417 43.549C143.351 45.2723 143.417 47.1039 143.417 48.8688H139.382L139.324 35.6816Z" fill="#333333"/>
<path fill-rule="evenodd" clip-rule="evenodd" d="M128.595 35.6822C129.368 37.0392 130.132 38.3879 130.92 39.7116C131.676 38.3796 132.432 37.0392 133.171 35.6822H137.605C136.251 37.8051 134.881 39.9114 133.536 42.0427C134.981 44.3488 136.525 46.5466 137.978 48.8444H134.591C134.224 48.8861 133.853 48.8861 133.486 48.8444C133.295 48.7778 132.921 48.0119 132.797 47.8121C132.141 46.7465 131.485 45.6975 130.871 44.6318C129.932 45.9805 129.135 47.4707 128.23 48.8444H123.746C123.746 48.7362 123.862 48.5947 123.954 48.4531C125.307 46.3135 126.835 44.1323 128.205 41.9844C126.852 39.8781 125.482 37.8218 124.111 35.7155C125.573 35.6489 127.117 35.6989 128.595 35.6822Z" fill="#333333"/>
<path fill-rule="evenodd" clip-rule="evenodd" d="M70.0722 35.4732C71.7072 35.4521 73.2943 36.0259 74.5395 37.0883C74.6235 37.1975 74.7212 37.2955 74.8301 37.3797C75.8282 38.5385 76.3895 40.0115 76.4161 41.5423C76.4161 41.6422 76.4161 41.8087 76.4161 41.8587V42.5247C76.358 42.583 76.4161 42.7661 76.4161 42.866C76.411 44.4146 75.8678 45.9131 74.88 47.1036C74.7306 47.2367 74.5892 47.3784 74.4565 47.5282C73.2389 48.5509 71.6936 49.0979 70.1054 49.0683H69.4162C65.1731 48.9351 63.0308 46.6956 62.8398 42.4997V41.8337C62.898 41.8337 62.8398 41.6505 62.8398 41.5673C63.172 37.7627 65.2562 35.7396 69.1505 35.4815L70.0722 35.4732ZM72.3723 41.8254C72.3723 40.3102 71.8907 39.3278 70.9192 38.8116C70.4006 38.5714 69.8259 38.4792 69.2585 38.5452C67.5978 38.7201 66.8754 40.1437 66.8837 41.8753C66.8318 42.1504 66.8318 42.4328 66.8837 42.7078C66.9335 44.6143 67.6144 45.8964 69.4412 46.0379C69.5622 46.0798 69.6938 46.0798 69.8148 46.0379C71.7412 45.938 72.3059 44.4978 72.3059 42.4914C72.3728 42.2762 72.3954 42.0496 72.3723 41.8254Z" fill="#333333"/>
<path fill-rule="evenodd" clip-rule="evenodd" d="M78.9488 35.607C80.2525 35.657 81.581 35.8068 82.2702 36.3729C82.8166 36.9678 83.215 37.6839 83.4327 38.4626C83.7566 39.2951 84.0223 40.6604 85.0934 40.7437C85.1599 39.0786 85.0934 37.3636 85.0934 35.6819H89.1289V40.7437C90.142 40.6521 90.4326 39.5282 90.7398 38.729C90.9623 37.8555 91.3893 37.0478 91.9854 36.3729C92.7493 35.7402 93.9616 35.6819 95.3068 35.607C95.4479 35.607 95.6555 35.607 95.7552 35.607H96.5855V38.3876C93.563 38.0047 94.4017 41.4929 92.3341 42.0674C92.7933 42.2577 93.2215 42.5159 93.6046 42.8333C93.6803 42.9341 93.7697 43.0238 93.8703 43.0997C95.1739 44.7648 95.9794 46.9127 96.9841 48.8691H92.5251C91.9771 47.7286 91.3792 46.3299 90.7564 45.0811C90.4326 44.4318 90.1586 43.6825 89.2203 43.6575C89.1622 45.3226 89.2203 47.1375 89.2203 48.8691H85.1848V43.6325C85.1183 43.6325 84.9855 43.6325 84.9689 43.6325C84.1883 43.6991 83.8977 44.4068 83.5988 45.0312C83.0092 46.2467 82.3782 47.6786 81.8301 48.8192H77.2466C77.861 47.587 78.4755 46.2383 79.1149 44.9812C79.7543 43.7241 80.4933 42.4837 81.8883 42.0424C81.7005 41.9262 81.5065 41.8206 81.307 41.7261C80.2525 40.9851 80.3023 39.1702 79.1979 38.5708C78.712 38.3705 78.1851 38.2906 77.6618 38.3377V35.582H78.4921C78.6001 35.6403 78.8076 35.5904 78.9488 35.607Z" fill="#333333"/>
<path fill-rule="evenodd" clip-rule="evenodd" d="M181.365 38.362C178.342 37.9791 179.197 41.484 177.113 42.0418C178.774 42.6412 179.505 44.223 180.285 45.7965C180.8 46.8371 181.34 47.8778 181.763 48.8435H177.221C176.673 47.6863 176.059 46.296 175.453 45.0306C175.17 44.4395 174.871 43.7401 174.107 43.6569C174.107 43.5986 173.975 43.6569 173.916 43.6569C173.858 45.3219 173.916 47.1368 173.916 48.8685H169.873V35.6813H173.916C173.916 37.3464 173.916 39.1113 173.916 40.7431C174.855 40.6681 175.137 39.7107 175.428 38.9948C175.818 38.0041 176.109 36.7802 176.955 36.2391C177.938 35.776 179.018 35.5589 180.103 35.6064C180.244 35.6064 180.451 35.6064 180.551 35.6064H180.941C181.074 35.6064 181.282 35.5648 181.365 35.6064V38.362Z" fill="#333333"/>
<path fill-rule="evenodd" clip-rule="evenodd" d="M158.447 42.9163C160.107 40.502 161.71 38.0793 163.354 35.6816H167.132V48.8438H163.329V41.6259H163.279C161.619 44.0235 160.049 46.4378 158.388 48.8022H154.585V35.6816H158.388C158.388 38.096 158.388 40.5769 158.388 42.9412C158.438 42.9412 158.447 42.9329 158.447 42.9163Z" fill="#333333"/>
<path fill-rule="evenodd" clip-rule="evenodd" d="M31.6932 16.8677C33.1463 20.1312 34.533 23.4447 34.8153 27.882V29.6054C34.7489 29.6054 34.8153 29.8052 34.8153 29.8967C34.8072 31.2791 34.5249 32.6459 33.9849 33.9178C33.8684 34.1016 33.771 34.2969 33.6943 34.5006C33.4779 34.9181 33.2395 35.3239 32.9802 35.7161C32.894 35.7862 32.8281 35.8782 32.7892 35.9825C32.6769 36.1584 32.555 36.328 32.4239 36.4903C32.3375 36.5441 32.2728 36.6266 32.2412 36.7234C32.2412 36.7234 32.1914 36.8317 32.1332 36.8566C31.8336 37.164 31.5561 37.4922 31.3029 37.839C31.1285 38.0555 30.9541 38.2719 30.7715 38.4717C30.4309 38.8413 30.112 39.2305 29.8166 39.6373C29.8166 39.6373 29.775 39.7455 29.7169 39.7705C29.5488 39.9342 29.4061 40.1222 29.2934 40.3283C29.17 40.5181 29.037 40.7015 28.8949 40.8777C28.7441 41.0428 28.6207 41.2312 28.5295 41.4355C27.6486 42.7339 26.9788 44.1642 26.545 45.6731C26.3341 45.5468 26.139 45.3959 25.9637 45.2235C24.9498 44.3498 24.0288 43.3733 23.2152 42.3097C23.1413 42.2306 23.0797 42.1408 23.0326 42.0433C22.9832 41.926 22.9129 41.8187 22.825 41.7269C21.4173 39.5157 20.6313 36.9644 20.5498 34.3424C20.5498 34.2592 20.5498 34.1176 20.5498 34.076V32.7773C20.7265 30.7805 21.2906 28.8376 22.2105 27.0578C22.413 26.6989 22.5959 26.3293 22.7585 25.9506C23.2734 24.9682 23.8048 24.0108 24.4193 23.1117C24.5076 23.0333 24.5735 22.9327 24.6102 22.8203C24.6102 22.8203 24.6102 22.7537 24.6601 22.7454C24.7638 22.6373 24.8456 22.5101 24.9009 22.3707C24.9934 22.2045 25.0989 22.0458 25.2164 21.8962C25.3363 21.772 25.4346 21.6285 25.507 21.4716C25.507 21.4716 25.507 21.3967 25.5568 21.3967C25.643 21.3265 25.709 21.2345 25.7478 21.1303C25.7774 21.0619 25.8197 20.9997 25.8724 20.9471C25.9845 20.8409 26.0748 20.7136 26.1381 20.5725C26.2006 20.4686 26.2729 20.3711 26.354 20.2811C26.6031 19.9065 26.902 19.5734 27.1428 19.1988C27.1754 19.1276 27.2204 19.0627 27.2757 19.0073C27.3616 18.9422 27.4254 18.8521 27.4584 18.7492C27.749 18.2914 28.0479 17.8501 28.2887 17.3673C28.4147 17.1981 28.5128 17.0098 28.5793 16.8095C29.1139 15.6131 29.4289 14.3299 29.5093 13.0215C29.5924 13.0714 29.5924 13.2046 29.692 13.2379C30.0802 13.815 30.4324 14.4155 30.7466 15.0362C30.7628 15.1292 30.8096 15.2142 30.8794 15.2776C30.8794 15.3276 30.8794 15.3692 30.9292 15.3859C30.9674 15.5122 31.0325 15.6287 31.1202 15.7272C31.2448 16.0352 31.4025 16.31 31.5437 16.6013C31.5738 16.6999 31.6248 16.7908 31.6932 16.8677Z" fill="#333333"/>
<path fill-rule="evenodd" clip-rule="evenodd" d="M32.9386 17.7085C32.7394 17.3505 32.5982 16.9259 32.4072 16.5429C32.4072 16.4763 32.3076 16.4264 32.4072 16.3848H43.7416V48.4036H11.8394V16.3848H25.864C26.5221 16.3431 27.1822 16.3431 27.8403 16.3848C27.8403 16.3848 27.8901 16.3848 27.8984 16.443C27.787 16.6053 27.6977 16.7817 27.6327 16.9675C27.5101 17.2247 27.3685 17.4724 27.2092 17.7085C22.5343 17.7085 17.7847 17.7085 13.1596 17.7085V47.0133C22.8498 47.0633 32.7228 47.0633 42.4213 47.0133V17.7085H32.9386Z" fill="#333333" stroke="#333333" stroke-width="0.999815" stroke-miterlimit="10"/>
<path fill-rule="evenodd" clip-rule="evenodd" d="M39.3075 27.6164C40.3544 29.8785 40.9443 32.326 41.043 34.8178C41.043 34.9676 41.043 35.1924 41.043 35.2923V35.8001C40.9765 35.8917 41.043 36.1082 41.043 36.2497C41.0643 37.8863 40.6639 39.5008 39.8805 40.9368C39.7926 41.0286 39.7222 41.1359 39.6729 41.2532C39.6382 41.3207 39.5934 41.3825 39.54 41.4363C39.0968 41.9794 38.6198 42.4938 38.1118 42.9765C38.062 43.0348 37.9873 43.0764 37.9291 43.1347C37.597 43.3678 37.2815 43.6092 36.9493 43.8506C35.5045 44.7581 33.2376 45.0245 31.4026 45.5989C30.813 45.7821 30.2816 46.0735 29.7418 46.2317C29.6622 45.7661 29.6622 45.2903 29.7418 44.8247C29.8 44.7664 29.7418 44.5916 29.7418 44.4834C29.7923 44.1045 29.9104 43.7379 30.0906 43.4011C30.2106 43.1951 30.3161 42.9809 30.4061 42.76C30.5607 42.4492 30.7355 42.1488 30.9293 41.8609C31.0176 41.7825 31.0835 41.6819 31.1202 41.5695C31.1202 41.5695 31.1202 41.4946 31.1701 41.4946C31.3382 41.2947 31.4882 41.0801 31.6184 40.8536C31.6389 40.8148 31.6672 40.7808 31.7015 40.7537C32.1599 40.2657 32.5897 39.7515 32.9885 39.2135C32.9885 39.1635 33.0633 39.1219 33.0965 39.0803C33.2095 38.9879 33.3003 38.8713 33.3622 38.7389C33.5366 38.4975 33.7026 38.2561 33.8853 38.023C33.9738 37.955 34.0403 37.8623 34.0763 37.7566C34.1443 37.6365 34.222 37.5224 34.3088 37.4152C34.5002 37.199 34.6621 36.9582 34.7904 36.6993C35.189 36.0499 35.6208 35.4005 35.9446 34.7095C36.0689 34.5423 36.1669 34.357 36.2352 34.1601C36.8574 32.9478 37.1765 31.6022 37.1652 30.2389C37.2233 30.1306 37.1652 29.9142 37.1652 29.7643V28.8652C37.1652 28.6987 37.1652 28.4739 37.1652 28.3574V27.9078C37.1652 27.8246 37.1652 27.6747 37.1652 27.6414C37.081 26.3829 36.9314 25.1296 36.7168 23.8867C37.1183 24.242 37.4879 24.632 37.8212 25.0523C37.8828 25.1143 37.9359 25.1843 37.979 25.2604C38.015 25.3661 38.0814 25.4588 38.1699 25.5268C38.2125 25.573 38.2463 25.6266 38.2696 25.685C38.3083 25.7964 38.3739 25.8965 38.4606 25.9764C38.6039 26.1989 38.7343 26.4296 38.8508 26.6673C38.8863 26.7931 38.9486 26.9096 39.0335 27.0087C39.0335 27.1419 39.1498 27.2335 39.1913 27.35C39.2105 27.4462 39.2501 27.537 39.3075 27.6164Z" fill="#333333"/>
<path fill-rule="evenodd" clip-rule="evenodd" d="M16.9378 31.5117C17.4846 30.8522 18.0935 30.2472 18.7563 29.7051C18.3634 31.2579 18.1407 32.8492 18.092 34.4505C18.0339 34.5087 18.092 34.6836 18.092 34.7918V35.6243C18.092 35.7492 18.092 35.9573 18.092 36.0406C18.0978 37.7944 18.4126 39.5333 19.022 41.1773C19.0916 41.4068 19.1982 41.6233 19.3375 41.8183C19.4206 41.9682 19.5285 42.1014 19.6032 42.2679C19.6571 42.4189 19.7486 42.5536 19.869 42.6592L20.1596 43.0588C20.3947 43.412 20.6737 43.7337 20.9899 44.0162C21.563 44.6279 22.1912 45.1853 22.8665 45.6812C23.016 45.7811 23.1572 45.8893 23.29 45.9976C23.3665 46.0938 23.4666 46.1684 23.5806 46.214C23.7052 46.2806 23.8048 46.3722 23.9211 46.4471C23.9211 46.5137 23.755 46.4471 23.6886 46.4471H23.5308C23.4893 46.3805 23.3398 46.4471 23.2651 46.4471C21.8194 46.3916 20.4029 46.0223 19.1133 45.3649C19.0519 45.2969 18.9705 45.2502 18.8808 45.2316C18.6645 45.1316 18.461 45.0058 18.2747 44.857C17.5438 44.3293 16.885 43.708 16.315 43.0088C16.234 42.9208 16.1642 42.8229 16.1075 42.7174C16.061 42.5966 15.9871 42.4882 15.8916 42.4011C15.7885 42.2574 15.6995 42.104 15.6258 41.9432C15.6101 41.8542 15.5665 41.7725 15.5013 41.7101C14.9633 40.6934 14.6383 39.5771 14.5464 38.4299C14.5464 38.3467 14.5464 38.1968 14.5464 38.1635V37.7639C14.6045 37.714 14.5464 37.5475 14.5464 37.4475C14.6231 36.1754 14.9565 34.9321 15.5262 33.7928C15.6152 33.6619 15.6851 33.5189 15.7338 33.3682C15.8743 33.0812 16.0324 32.8031 16.2071 32.5357C16.3003 32.4433 16.3738 32.3328 16.423 32.211C16.5763 31.9649 16.7485 31.7311 16.9378 31.5117Z" fill="#333333"/>
<path fill-rule="evenodd" clip-rule="evenodd" d="M186.853 35.6816H191.287C192.915 40.0718 194.553 44.4509 196.203 48.8189C194.833 48.8771 193.355 48.8189 191.952 48.8189C191.761 48.0696 191.511 47.3869 191.312 46.646H186.72C186.463 47.337 186.272 48.0862 186.056 48.8189H181.904C183.582 44.4731 185.193 40.0607 186.853 35.6816ZM190.44 43.8154C189.975 42.2253 189.519 40.6268 188.987 39.1033C188.547 40.6934 188.032 42.217 187.592 43.8154C188.514 43.857 189.56 43.857 190.449 43.8154H190.44Z" fill="#333333"/>
<path d="M97.3244 23.1367V24.6186H94.3019V31.1289H92.5083V23.1367H97.3244Z" fill="#333333"/>
<path d="M97.3408 27.273C97.3408 26.5154 97.3408 25.8744 97.291 25.3249H98.8355L98.9185 26.1574C99.1372 25.8539 99.4278 25.6098 99.7641 25.447C100.1 25.2842 100.472 25.2079 100.845 25.225C102.115 25.225 103.253 26.3239 103.253 28.1805C103.253 30.2867 101.908 31.2858 100.621 31.2858C100.335 31.3036 100.05 31.2523 99.7883 31.1364C99.5267 31.0205 99.2968 30.8433 99.1178 30.6198V33.5086H97.3408V27.273ZM99.1344 28.6383C99.1255 28.7658 99.1255 28.8938 99.1344 29.0213C99.1933 29.2576 99.3288 29.4676 99.5197 29.6183C99.7106 29.769 99.946 29.8519 100.189 29.8538C100.969 29.8538 101.434 29.2045 101.434 28.1888C101.434 27.1731 101.019 26.5237 100.214 26.5237C99.9577 26.5333 99.7121 26.6288 99.5164 26.7948C99.3207 26.9608 99.1862 27.1878 99.1344 27.4395C99.1254 27.5476 99.1254 27.6562 99.1344 27.7642V28.6383Z" fill="#333333"/>
<path d="M105.553 25.3247L106.384 28.1886C106.483 28.5216 106.6 28.9545 106.674 29.2709H106.716C106.791 28.9462 106.882 28.5216 106.965 28.172L107.687 25.3247H109.63L108.285 29.1377C107.455 31.4521 106.907 32.3679 106.251 32.9507C105.77 33.3867 105.167 33.663 104.524 33.7415L104.133 32.2264C104.406 32.1591 104.669 32.0555 104.914 31.9183C105.22 31.7443 105.478 31.4951 105.661 31.194C105.717 31.1154 105.751 31.0236 105.761 30.9276C105.756 30.8265 105.73 30.7275 105.686 30.6362L103.552 25.3164L105.553 25.3247Z" fill="#333333"/>
<path d="M115.775 25.3262V31.1538H113.965V26.7415H112.188V31.1538H110.386V25.3262H115.775Z" fill="#333333"/>
<path d="M122.592 25.3262V31.1538H120.782V26.7415H119.005V31.1538H117.211V25.3262H122.592Z" fill="#333333"/>
<path d="M128.861 29.7301C128.846 30.1982 128.877 30.6666 128.952 31.1287H127.292L127.184 30.5543C126.976 30.7881 126.72 30.9728 126.433 31.0952C126.146 31.2175 125.835 31.2745 125.523 31.2619C125.282 31.2744 125.041 31.2375 124.815 31.1535C124.589 31.0696 124.382 30.9403 124.207 30.7736C124.032 30.6069 123.893 30.4063 123.798 30.1839C123.703 29.9616 123.654 29.7222 123.655 29.4803C123.655 27.9734 125 27.2658 127.051 27.2658V27.1909C127.051 26.8745 126.885 26.4333 125.996 26.4333C125.436 26.4372 124.886 26.5894 124.402 26.8745L124.07 25.709C124.766 25.3511 125.539 25.171 126.32 25.1845C126.657 25.146 126.997 25.1841 127.317 25.296C127.637 25.4079 127.927 25.5907 128.167 25.8307C128.406 26.0708 128.589 26.362 128.7 26.6825C128.812 27.0031 128.85 27.3447 128.811 27.6821L128.861 29.7301ZM127.117 28.3897C126.171 28.3897 125.457 28.6145 125.457 29.3055C125.45 29.3993 125.464 29.4934 125.498 29.5813C125.531 29.6692 125.583 29.7488 125.65 29.8145C125.717 29.8802 125.798 29.9305 125.886 29.9619C125.975 29.9934 126.069 30.0051 126.162 29.9965C126.368 29.995 126.568 29.9304 126.736 29.8113C126.904 29.6922 127.031 29.5244 127.101 29.3305C127.113 29.2282 127.113 29.1247 127.101 29.0224L127.117 28.3897Z" fill="#333333"/>
<path d="M134.541 23.1368V26.4669H134.707L136.899 23.1368H139.083L136.301 26.6917C136.752 26.8128 137.162 27.0564 137.484 27.3957C137.806 27.735 138.029 28.1568 138.128 28.6148C138.381 29.4665 138.689 30.3008 139.049 31.1124H137.106C136.856 30.544 136.65 29.9566 136.492 29.3558C136.218 28.4566 135.853 27.7656 134.881 27.7656H134.541V31.0957H132.764V23.1035L134.541 23.1368Z" fill="#333333"/>
<path d="M145.46 28.1635C145.486 28.5742 145.426 28.9859 145.282 29.3714C145.138 29.7569 144.914 30.1075 144.626 30.4001C144.337 30.6927 143.99 30.9206 143.607 31.0689C143.224 31.2172 142.814 31.2825 142.404 31.2605C142.006 31.2834 141.608 31.2218 141.236 31.0798C140.863 30.9378 140.525 30.7186 140.243 30.4365C139.961 30.1544 139.741 29.8157 139.598 29.4427C139.456 29.0697 139.393 28.6707 139.415 28.2718C139.388 27.8577 139.449 27.4426 139.596 27.0544C139.742 26.6662 139.97 26.3139 140.263 26.0213C140.556 25.7286 140.909 25.5024 141.297 25.3578C141.685 25.2132 142.099 25.1537 142.512 25.1831C142.906 25.1638 143.3 25.2278 143.669 25.3711C144.037 25.5144 144.37 25.7337 144.648 26.0148C144.926 26.2958 145.142 26.6324 145.282 27.0026C145.422 27.3728 145.482 27.7683 145.46 28.1635ZM141.308 28.2218C141.308 29.2208 141.723 29.9701 142.487 29.9701C143.251 29.9701 143.633 29.2708 143.633 28.2135C143.633 27.381 143.301 26.4818 142.487 26.4818C141.673 26.4818 141.275 27.3643 141.275 28.2218H141.308Z" fill="#333333"/>
<path d="M146.739 25.3262H149.039L149.67 27.524C149.761 27.8654 149.927 28.4648 150.044 28.981C150.152 28.5897 150.343 27.9486 150.509 27.3908L151.148 25.3262H153.423L153.772 31.1538H152.111L152.012 28.8311C152.012 28.3316 151.962 27.4907 151.954 26.7997C151.729 27.574 151.688 27.7655 151.397 28.6979L150.625 31.0623H149.313L148.657 28.7312C148.499 28.1901 148.317 27.3575 148.184 26.8081H148.134C148.134 27.5324 148.134 28.3566 148.076 28.8394L147.984 31.1289H146.374L146.739 25.3262Z" fill="#333333"/>
<path d="M160.415 25.3262V31.1538H158.621V26.7415H156.853V31.1538H155.051V25.3262H160.415Z" fill="#333333"/>
<path d="M166.684 29.7294C166.671 30.1978 166.704 30.6663 166.784 31.1281H165.123L165.015 30.5536C164.807 30.7874 164.551 30.9722 164.264 31.0945C163.977 31.2169 163.666 31.2738 163.354 31.2613C163.113 31.2737 162.872 31.2368 162.646 31.1529C162.42 31.0689 162.213 30.9397 162.038 30.773C161.863 30.6063 161.724 30.4057 161.629 30.1833C161.534 29.961 161.486 29.7216 161.486 29.4797C161.486 27.9728 162.839 27.2652 164.882 27.2652V27.1902C164.882 26.8739 164.716 26.4326 163.827 26.4326C163.267 26.4377 162.717 26.5899 162.233 26.8739L161.901 25.7084C162.597 25.3515 163.37 25.1714 164.151 25.1839C164.491 25.1384 164.836 25.1714 165.161 25.2802C165.486 25.389 165.782 25.5708 166.027 25.8117C166.271 26.0527 166.457 26.3463 166.571 26.6703C166.685 26.9944 166.724 27.3402 166.684 27.6814V29.7294ZM164.94 28.3891C163.994 28.3891 163.279 28.6139 163.279 29.3049C163.273 29.3995 163.287 29.4944 163.321 29.5829C163.355 29.6714 163.408 29.7515 163.476 29.8173C163.544 29.8832 163.625 29.9333 163.715 29.9641C163.804 29.995 163.899 30.0058 163.994 29.9958C164.198 29.9939 164.397 29.929 164.563 29.8098C164.73 29.6907 164.855 29.5231 164.924 29.3298C164.936 29.2275 164.936 29.1241 164.924 29.0218L164.94 28.3891Z" fill="#333333"/>
<path d="M169.905 25.3258V27.4737H171.732V25.3258H173.567V31.1534H171.774V28.8307H169.947V31.1284H168.145V25.3008L169.905 25.3258Z" fill="#333333"/>
<path d="M176.665 25.3252V27.1068C176.665 28.0309 176.665 28.6886 176.573 29.4712H176.623C176.889 28.8052 177.047 28.3556 177.279 27.8062L178.408 25.3086H180.609V31.1363H178.948V29.363C178.948 28.4639 178.948 28.0809 179.048 26.8654H179.006C178.782 27.4981 178.641 27.8728 178.4 28.4222C178.035 29.2548 177.57 30.2371 177.196 31.1363H175.004V25.3086L176.665 25.3252Z" fill="#333333"/>
<path d="M183.739 25.3254V27.107C183.739 28.0311 183.69 28.6888 183.64 29.4714H183.69C183.964 28.8054 184.113 28.3558 184.354 27.8063L185.475 25.3088H187.684V31.1364H185.981V29.3631C185.981 28.464 186.031 28.0811 186.089 26.8656H186.023C185.799 27.4983 185.657 27.8729 185.425 28.4224C185.051 29.2549 184.595 30.2373 184.213 31.1364H182.021V25.3088L183.739 25.3254ZM184.296 22.9277C184.296 23.4522 184.503 23.7603 184.835 23.7603C185.168 23.7603 185.383 23.4272 185.417 22.9277H186.554C186.562 23.1557 186.522 23.3827 186.436 23.5939C186.35 23.805 186.22 23.9955 186.055 24.1528C185.891 24.3101 185.694 24.4307 185.48 24.5065C185.265 24.5823 185.037 24.6117 184.81 24.5928C184.588 24.6118 184.363 24.5817 184.153 24.5048C183.943 24.4278 183.752 24.3058 183.594 24.1472C183.436 23.9886 183.314 23.7973 183.238 23.5867C183.161 23.3761 183.131 23.1512 183.15 22.9277H184.296Z" fill="#333333"/>
<path d="M8.36865 57.0692V3.58789" stroke="#333333" stroke-width="2.66617" stroke-miterlimit="10"/>
<path d="M2.82178 51.4922H196.211" stroke="#333333" stroke-width="2.66617" stroke-miterlimit="10"/>
</svg>
