<svg width="13" height="13" viewBox="0 0 13 13" fill="none" xmlns="http://www.w3.org/2000/svg">
<path d="M7.90064 7.90064L7.64947 8.11655C6.88923 8.77009 5.90375 9.16266 4.83133 9.16266C2.43909 9.16266 0.5 7.22357 0.5 4.83133C0.5 2.43909 2.43909 0.5 4.83133 0.5C7.22357 0.5 9.16266 2.43909 9.16266 4.83133C9.16266 5.90375 8.77009 6.88923 8.11655 7.64947L7.90064 7.90064ZM8.6761 8.6761H8.70383H9.08362L12.2932 11.8922L11.8922 12.2932L8.6761 9.08362V8.70383V8.6761ZM0.986564 4.83133C0.986564 6.95825 2.70442 8.6761 4.83133 8.6761C6.95825 8.6761 8.6761 6.95825 8.6761 4.83133C8.6761 2.70442 6.95825 0.986564 4.83133 0.986564C2.70442 0.986564 0.986564 2.70442 0.986564 4.83133Z" fill="white" stroke="currentColor"/>
</svg>
