<svg width="20" height="20" viewBox="0 0 20 20" fill="none" xmlns="http://www.w3.org/2000/svg">
<g clip-path="url(#clip0_67_2098)">
<path d="M12.5834 7.49996C12.5834 8.92669 11.4268 10.0833 10.0001 10.0833V11.5833C12.2552 11.5833 14.0834 9.75512 14.0834 7.49996H12.5834ZM10.0001 10.0833C8.57335 10.0833 7.41675 8.92669 7.41675 7.49996H5.91675C5.91675 9.75512 7.74492 11.5833 10.0001 11.5833V10.0833ZM7.41675 7.49996C7.41675 6.07322 8.57335 4.91663 10.0001 4.91663V3.41663C7.74492 3.41663 5.91675 5.2448 5.91675 7.49996H7.41675ZM10.0001 4.91663C11.4268 4.91663 12.5834 6.07322 12.5834 7.49996H14.0834C14.0834 5.2448 12.2552 3.41663 10.0001 3.41663V4.91663ZM7.50008 14.0833H12.5001V12.5833H7.50008V14.0833ZM2.41675 9.99996C2.41675 5.8118 5.81192 2.41663 10.0001 2.41663V0.916626C4.98349 0.916626 0.916748 4.98337 0.916748 9.99996H2.41675ZM10.0001 2.41663C14.1882 2.41663 17.5834 5.8118 17.5834 9.99996H19.0834C19.0834 4.98337 15.0167 0.916626 10.0001 0.916626V2.41663ZM17.5834 9.99996C17.5834 12.1506 16.6891 14.0911 15.2501 15.4721L16.2887 16.5544C18.0103 14.9022 19.0834 12.5758 19.0834 9.99996H17.5834ZM15.2501 15.4721C13.8868 16.7804 12.038 17.5833 10.0001 17.5833V19.0833C12.4404 19.0833 14.6574 18.1199 16.2887 16.5544L15.2501 15.4721ZM12.5001 14.0833C13.7527 14.0833 14.7985 14.9755 15.0338 16.1594L16.505 15.867C16.1329 13.9948 14.4822 12.5833 12.5001 12.5833V14.0833ZM10.0001 17.5833C7.96216 17.5833 6.11333 16.7804 4.75007 15.4721L3.71145 16.5544C5.34281 18.1199 7.55973 19.0833 10.0001 19.0833V17.5833ZM4.75007 15.4721C3.31104 14.0911 2.41675 12.1506 2.41675 9.99996H0.916748C0.916748 12.5758 1.9899 14.9022 3.71145 16.5544L4.75007 15.4721ZM7.50008 12.5833C5.518 12.5833 3.86724 13.9948 3.49515 15.867L4.96637 16.1594C5.20167 14.9755 6.24751 14.0833 7.50008 14.0833V12.5833Z" fill="#BE3D3D"/>
</g>
<defs>
<clipPath id="clip0_67_2098">
<rect width="20" height="20" fill="white"/>
</clipPath>
</defs>
</svg>
