<svg width="20" height="20" viewBox="0 0 20 20" fill="none" xmlns="http://www.w3.org/2000/svg">
<g clip-path="url(#clip0_67_2051)">
<path d="M10.7501 6.87499C10.7501 6.46078 10.4143 6.12499 10.0001 6.12499C9.58587 6.12499 9.25008 6.46078 9.25008 6.87499H10.7501ZM7.78771 12.2949C7.50356 12.5963 7.51753 13.071 7.81892 13.3551C8.1203 13.6393 8.59497 13.6253 8.87912 13.3239L7.78771 12.2949ZM2.03156 2.12267C1.70811 2.38143 1.65567 2.8534 1.91443 3.17684C2.17319 3.50029 2.64516 3.55273 2.9686 3.29397L2.03156 2.12267ZM5.05194 1.62731C5.37538 1.36855 5.42782 0.896582 5.16907 0.573135C4.91031 0.249689 4.43834 0.197248 4.11489 0.456005L5.05194 1.62731ZM17.0316 3.29397C17.355 3.55273 17.827 3.50029 18.0857 3.17684C18.3445 2.8534 18.292 2.38143 17.9686 2.12267L17.0316 3.29397ZM15.8853 0.456005C15.5618 0.197248 15.0899 0.249689 14.8311 0.573135C14.5723 0.896582 14.6248 1.36855 14.9482 1.62731L15.8853 0.456005ZM9.4553 11.6195L8.90959 11.105L9.4553 11.6195ZM9.25008 6.87499V10.2475H10.7501V6.87499H9.25008ZM8.87912 13.3239L10.001 12.134L8.90959 11.105L7.78771 12.2949L8.87912 13.3239ZM2.9686 3.29397L5.05194 1.62731L4.11489 0.456005L2.03156 2.12267L2.9686 3.29397ZM17.9686 2.12267L15.8853 0.456005L14.9482 1.62731L17.0316 3.29397L17.9686 2.12267ZM17.5834 10.2083C17.5834 14.3965 14.1882 17.7917 10.0001 17.7917V19.2917C15.0167 19.2917 19.0834 15.2249 19.0834 10.2083H17.5834ZM10.0001 17.7917C5.81192 17.7917 2.41675 14.3965 2.41675 10.2083H0.916748C0.916748 15.2249 4.98349 19.2917 10.0001 19.2917V17.7917ZM2.41675 10.2083C2.41675 6.02016 5.81192 2.62499 10.0001 2.62499V1.12499C4.98349 1.12499 0.916748 5.19173 0.916748 10.2083H2.41675ZM10.0001 2.62499C14.1882 2.62499 17.5834 6.02016 17.5834 10.2083H19.0834C19.0834 5.19173 15.0167 1.12499 10.0001 1.12499V2.62499ZM9.25008 10.2475C9.25008 10.5663 9.12828 10.873 8.90959 11.105L10.001 12.134C10.4821 11.6237 10.7501 10.9488 10.7501 10.2475H9.25008Z" fill="#BE3D3D"/>
</g>
<defs>
<clipPath id="clip0_67_2051">
<rect width="20" height="20" fill="white"/>
</clipPath>
</defs>
</svg>
