<svg width="28" height="28" viewBox="0 0 28 28" fill="none" xmlns="http://www.w3.org/2000/svg">
<path d="M2.32861 3.99609C2.32861 3.71995 2.55247 3.49609 2.82861 3.49609H22.8374C23.1135 3.49609 23.3374 3.71995 23.3374 3.99609V6.49755C23.3374 6.77369 23.1135 6.99755 22.8374 6.99755H2.82861C2.55247 6.99755 2.32861 6.77369 2.32861 6.49755V3.99609Z" stroke="#BE3D3D" stroke-width="1.5" stroke-linecap="round"/>
<path d="M14 21.0029H5.82991C4.54071 21.0029 3.49561 19.9578 3.49561 18.6686V6.99707H22.17" stroke="#BE3D3D" stroke-width="1.5" stroke-linecap="round"/>
<path d="M8.16455 11.6666H14.0003" stroke="#BE3D3D" stroke-width="1.5" stroke-linecap="round"/>
<path d="M8.16431 15.1676H10.4986" stroke="#BE3D3D" stroke-width="1.5" stroke-linecap="round"/>
<circle cx="20.8865" cy="11.6658" r="1.75073" stroke="#BE3D3D" stroke-width="1.5" stroke-linecap="round"/>
<path fill-rule="evenodd" clip-rule="evenodd" d="M20.0693 25.672H21.9367C22.2517 25.691 22.5597 25.5742 22.7829 25.351C23.006 25.1279 23.1229 24.8198 23.1039 24.5048V21.8204L24.271 20.4198C24.4004 20.2069 24.4802 19.9675 24.5044 19.7195V17.5019C24.5235 17.1869 24.4066 16.8789 24.1835 16.6557C23.9603 16.4326 23.6523 16.3157 23.3373 16.3348H18.6687C18.3537 16.3157 18.0456 16.4326 17.8225 16.6557C17.5993 16.8789 17.4825 17.1869 17.5015 17.5019V19.7195C17.5257 19.9675 17.6055 20.2069 17.7349 20.4198L18.9021 21.8204V24.5048C18.8831 24.8198 18.9999 25.1279 19.2231 25.351C19.4462 25.5742 19.7543 25.691 20.0693 25.672V25.672Z" stroke="#BE3D3D" stroke-width="1.5" stroke-linecap="round"/>
</svg>
