<svg width="28" height="28" viewBox="0 0 28 28" fill="none" xmlns="http://www.w3.org/2000/svg">
<path fill-rule="evenodd" clip-rule="evenodd" d="M25.1801 7.43518C24.9129 6.26385 24.1219 5.33985 23.1163 5.02251C21.2974 4.45435 13.9999 4.45435 13.9999 4.45435C13.9999 4.45435 6.70592 4.45435 4.88359 5.02251C3.88142 5.33518 3.09042 6.25918 2.81975 7.43518C2.33325 9.56085 2.33325 14 2.33325 14C2.33325 14 2.33325 18.4392 2.81975 20.5648C3.08692 21.7362 3.87792 22.6602 4.88359 22.9775C6.70592 23.5457 13.9999 23.5457 13.9999 23.5457C13.9999 23.5457 21.2974 23.5457 23.1163 22.9775C24.1184 22.6648 24.9094 21.7408 25.1801 20.5648C25.6666 18.4392 25.6666 14 25.6666 14C25.6666 14 25.6666 9.56085 25.1801 7.43518Z" stroke="#BE3D3D" stroke-width="1.5" stroke-linecap="round"/>
<path fill-rule="evenodd" clip-rule="evenodd" d="M11.6689 17.5L17.7309 14L11.6689 10.5V17.5Z" stroke="#BE3D3D" stroke-width="1.5" stroke-linecap="round"/>
</svg>
