<svg width="28" height="28" viewBox="0 0 28 28" fill="none" xmlns="http://www.w3.org/2000/svg">
<path d="M24.2578 11.1105C25.1795 12.0322 25.1795 13.5265 24.2578 14.4482C23.3361 15.3699 21.8417 15.3699 20.92 14.4482C19.9983 13.5265 19.9983 12.0322 20.92 11.1105C21.8417 10.1888 23.3361 10.1888 24.2578 11.1105" stroke="#BE3D3D" stroke-width="1.5" stroke-linecap="round"/>
<path d="M16.5696 6.89743C17.9889 8.31665 17.9889 10.6177 16.5696 12.0369C15.1504 13.4561 12.8494 13.4561 11.4301 12.0369C10.0109 10.6177 10.0109 8.31667 11.4301 6.89743C12.8494 5.4782 15.1504 5.4782 16.5696 6.89743" stroke="#BE3D3D" stroke-width="1.5" stroke-linecap="round"/>
<path d="M7.07983 11.1105C8.00154 12.0322 8.00154 13.5265 7.07983 14.4482C6.15813 15.3699 4.66376 15.3699 3.74206 14.4482C2.82036 13.5265 2.82036 12.0322 3.74206 11.1105C4.66376 10.1888 6.15813 10.1888 7.07983 11.1105" stroke="#BE3D3D" stroke-width="1.5" stroke-linecap="round"/>
<path d="M26.8331 22.166V20.8874C26.8331 19.2762 25.5276 17.9707 23.9164 17.9707H22.9819" stroke="#BE3D3D" stroke-width="1.5" stroke-linecap="round"/>
<path d="M1.1665 22.166V20.8874C1.1665 19.2762 2.472 17.9707 4.08317 17.9707H5.01767" stroke="#BE3D3D" stroke-width="1.5" stroke-linecap="round"/>
<path d="M20.2289 22.166V20.2982C20.2289 18.043 18.4007 16.2148 16.1455 16.2148H11.8534C9.59819 16.2148 7.77002 18.043 7.77002 20.2982V22.166" stroke="#BE3D3D" stroke-width="1.5" stroke-linecap="round"/>
</svg>
