<svg width="32" height="32" viewBox="0 0 32 32" fill="none" xmlns="http://www.w3.org/2000/svg">
<path d="M15.3333 18.3494L16.2586 23.904C16.5586 25.708 15.1679 27.3494 13.3399 27.3494V27.3494C11.8933 27.3494 10.6586 26.304 10.4213 24.876L9.33325 18.3494" stroke="currentColor" stroke-width="2" stroke-linecap="round" stroke-linejoin="round"/>
<path d="M18.3333 18.3494H7.83325C5.34792 18.3494 3.33325 16.3347 3.33325 13.8494V13.8494C3.33325 11.364 5.34792 9.34937 7.83325 9.34937H18.3333" stroke="currentColor" stroke-width="2" stroke-linecap="round" stroke-linejoin="round"/>
<path d="M18.3333 9.34932L25.0013 4.90399C25.9986 4.23999 27.3333 4.95466 27.3333 6.15332V21.5467C27.3333 22.7453 25.9986 23.4587 25.0013 22.7947L18.3333 18.3493" stroke="currentColor" stroke-width="2" stroke-linecap="round" stroke-linejoin="round"/>
<path d="M18.3332 18.3467V9.34668" stroke="currentColor" stroke-width="2" stroke-linecap="round" stroke-linejoin="round"/>
</svg>
